SplineFontDB: 3.0
FontName: Hi
FullName: Hi. Regular
FamilyName: Hi.
Weight: Regular
Copyright: Copyright (c) 2015, Mew Too/Cannot Into Space Fonts, All Rights Reserved.
Version: 1.996
ItalicAngle: 0
UnderlinePosition: -100
UnderlineWidth: 50
Ascent: 800
Descent: 200
InvalidEm: 0
sfntRevision: 0x0001fefa
LayerCount: 2
Layer: 0 0 "Back" 1
Layer: 1 0 "Fore" 0
PreferredKerning: 4
XUID: [1021 604 120746000 23949]
StyleMap: 0x0000
FSType: 0
OS2Version: 4
OS2_WeightWidthSlopeOnly: 0
OS2_UseTypoMetrics: 1
CreationTime: 1421008990
ModificationTime: 1424210269
PfmFamily: 17
TTFWeight: 400
TTFWidth: 5
LineGap: 90
VLineGap: 0
Panose: 2 0 5 3 0 0 0 0 0 0
OS2TypoAscent: 800
OS2TypoAOffset: 0
OS2TypoDescent: -200
OS2TypoDOffset: 0
OS2TypoLinegap: 90
OS2WinAscent: 813
OS2WinAOffset: 0
OS2WinDescent: 184
OS2WinDOffset: 0
HheadAscent: 813
HheadAOffset: 0
HheadDescent: -184
HheadDOffset: 0
OS2SubXSize: 650
OS2SubYSize: 699
OS2SubXOff: 0
OS2SubYOff: 140
OS2SupXSize: 650
OS2SupYSize: 699
OS2SupXOff: 0
OS2SupYOff: 479
OS2StrikeYSize: 49
OS2StrikeYPos: 258
OS2CapHeight: 590
OS2XHeight: 590
OS2FamilyClass: 2063
OS2Vendor: 'CiSf'
OS2CodePages: 00000001.00000000
OS2UnicodeRanges: 0000002f.10000000.00000000.00000000
Lookup: 3 0 0 "'salt' Stylistic Alternatives in Latin lookup 0" { "'salt' Stylistic Alternatives in Latin lookup 0 subtable"  } ['salt' ('DFLT' <'dflt' > 'latn' <'dflt' > ) ]
Lookup: 4 0 1 "'liga' Standard Ligatures lookup 1" { "'liga' Standard Ligatures lookup 1 subtable"  } ['liga' ('DFLT' <'dflt' > ) ]
Lookup: 258 0 0 "'kern' Horizontal Kerning lookup 0" { "'kern' Horizontal Kerning lookup 0 subtable"  } ['kern' ('DFLT' <'dflt' > 'arab' <'dflt' > 'latn' <'dflt' > ) ]
MarkAttachClasses: 1
DEI: 91125

StartChar: .notdef
Encoding: 65536 -1 0
GlifName: _notdef
Width: 523
Flags: MW
HStem: 0 50<111.5 411.5 111.5 461.5> 483 50<111.5 411.5 111.5 111.5>
VStem: 61.5 50<50 50 50 483> 411.5 50<50 483 483 483>
LayerCount: 2
Back
Fore
SplineSet
61.5 0 m 1
 61.5 533 l 1
 461.5 533 l 1
 461.5 0 l 1
 61.5 0 l 1
111.5 50 m 1
 411.5 50 l 1
 411.5 483 l 1
 111.5 483 l 1
 111.5 50 l 1
EndSplineSet
EndChar

StartChar: space
Encoding: 32 32 1
GlifName: space
Width: 141
GlyphClass: 2
Flags: W
LayerCount: 2
Back
Fore
SplineSet
905.5 402 m 1024,0,0
EndSplineSet
EndChar

StartChar: exclam
Encoding: 33 33 2
GlifName: exclam
Width: 198
GlyphClass: 2
Flags: MW
HStem: -0.25 92.5<85.875 110.875>
VStem: 54.625 88.75<33.5 58.5> 61.9961 74.0996<156 552>
LayerCount: 2
Back
Fore
SplineSet
54.625 46 m 0xc0
 54.625 71 73.375 92.25 98.375 92.25 c 0
 123.375 92.25 143.375 71 143.375 46 c 0
 143.375 21 123.375 -0.25 98.375 -0.25 c 0
 73.375 -0.25 54.625 21 54.625 46 c 0xc0
136.095703125 552 m 2xa0
 136.095703125 156 l 2
 136.095703125 141 119.9453125 128 99.0458984375 128 c 0
 78.1455078125 128 61.9951171875 141.20703125 61.99609375 156 c 2
 61.99609375 156 61.7880859375 551.842773438 61.99609375 552 c 0
 61.99609375 567 78.1455078125 580 99.0458984375 580 c 0
 119.9453125 580 135.669921875 567 136.095703125 552 c 2xa0
EndSplineSet
EndChar

StartChar: quotedbl
Encoding: 34 34 3
GlifName: quotedbl
Width: 319
GlyphClass: 2
Flags: MW
HStem: 557.5 21G 607.5 92.5<80.5039 96.8647 201.504 217.865>
VStem: 49.2539 88.75<653.75 666.25 653.75 666.25> 114.297 32.457 170.254 88.75<653.75 666.25 653.75 666.25> 235.297 32.457
LayerCount: 2
Back
Fore
SplineSet
170.25390625 653.75 m 0xc8
 170.25390625 678.75 189.00390625 700 214.00390625 700 c 0
 239.00390625 700 259.00390625 678.75 259.00390625 653.75 c 1xc8
 264.004882812 633.318359375 274.00390625 600 267.75390625 583.75 c 0
 264.00390625 572.5 217.752929688 562.083984375 182.75390625 557.5 c 1
 210.927734375 571.014648438 235.616210938 577.020507812 235.296875 613.06640625 c 1xc4
 228.970703125 609.52734375 221.725585938 607.5 214.00390625 607.5 c 0
 189.00390625 607.5 170.25390625 628.75 170.25390625 653.75 c 0xc8
49.25390625 653.75 m 0xe0
 49.25390625 678.75 68.00390625 700 93.00390625 700 c 0
 118.00390625 700 138.00390625 678.75 138.00390625 653.75 c 1xe0
 143.004882812 633.318359375 153.00390625 600 146.75390625 583.75 c 0
 143.00390625 572.5 96.7529296875 562.083984375 61.75390625 557.5 c 1
 89.927734375 571.014648438 114.616210938 577.020507812 114.296875 613.06640625 c 1xd0
 107.970703125 609.52734375 100.725585938 607.5 93.00390625 607.5 c 0
 68.00390625 607.5 49.25390625 628.75 49.25390625 653.75 c 0xe0
EndSplineSet
EndChar

StartChar: numbersign
Encoding: 35 35 4
GlifName: numbersign
Width: 791
GlyphClass: 2
Flags: MW
HStem: 171.937 69.5332 343.68 69.4951<558.479 584.057>
LayerCount: 2
Back
Fore
SplineSet
649.137695312 590 m 2
 584.056640625 413.174804688 l 1
 705.419921875 412.73828125 l 2
 721.403320312 412.680664062 740.780273438 397.455078125 747.927734375 377.81640625 c 0
 755.076171875 358.176757812 746.52734375 343.049804688 730.763671875 343.107421875 c 2
 730.763671875 343.107421875 655.573242188 343.353515625 558.479492188 343.6796875 c 1
 520.474609375 240.420898438 l 1
 659.09765625 239.921875 l 2
 675.081054688 239.864257812 694.458007812 224.638671875 701.60546875 205 c 0
 708.75390625 185.360351562 700.205078125 170.233398438 684.44140625 170.291015625 c 2
 684.44140625 170.291015625 600.193359375 170.56640625 494.895507812 170.920898438 c 1
 442.293945312 28 l 2
 436.7734375 13 415.838867188 0 394.939453125 0 c 0
 374.0390625 0 362.749023438 13.20703125 368.194335938 28 c 2
 368.194335938 28 390.689453125 89.181640625 420.842773438 171.171875 c 1
 372.50390625 171.336914062 322.900390625 171.5078125 277.170898438 171.669921875 c 1
 224.293945312 28 l 2
 218.7734375 13 197.838867188 0 176.939453125 0 c 0
 156.0390625 0 144.749023438 13.20703125 150.194335938 28 c 2
 150.194335938 28 172.829101562 89.5625 203.124023438 171.936523438 c 1
 133.969726562 172.19140625 85.6572265625 172.389648438 85.58984375 172.4453125 c 0
 69.6064453125 172.502929688 50.23046875 187.727539062 43.08203125 207.3671875 c 0
 35.93359375 227.006835938 44.408203125 241.733398438 60.24609375 242.076171875 c 2
 228.697265625 241.469726562 l 1
 241.103515625 275.198242188 254.017578125 310.306640625 266.666992188 344.690429688 c 1
 188.4453125 344.974609375 131.985351562 345.201171875 131.912109375 345.26171875 c 0
 115.928710938 345.319335938 96.552734375 360.543945312 89.404296875 380.18359375 c 0
 82.255859375 399.823242188 90.73046875 414.549804688 106.568359375 414.892578125 c 2
 292.251953125 414.224609375 l 1
 328.240234375 512.020507812 356.938476562 589.94140625 357.038085938 590 c 0
 362.55859375 605 383.4921875 618 404.392578125 618 c 0
 425.291992188 618 436.232421875 605 431.137695312 590 c 2
 366.345703125 413.958007812 l 1
 509.963867188 413.44140625 l 1
 546.086914062 511.604492188 574.938476562 589.94140625 575.038085938 590 c 0
 580.55859375 605 601.4921875 618 622.392578125 618 c 0
 643.291992188 618 654.232421875 605 649.137695312 590 c 2
340.75390625 344.42578125 m 1
 302.763671875 241.204101562 l 1
 446.41015625 240.686523438 l 1
 458.8125 274.40625 471.729492188 309.522460938 484.387695312 343.9296875 c 1
 436.680664062 344.091796875 387.118164062 344.262695312 340.75390625 344.42578125 c 1
EndSplineSet
AlternateSubs2: "'salt' Stylistic Alternatives in Latin lookup 0 subtable" uniE008
EndChar

StartChar: dollar
Encoding: 36 36 5
GlifName: dollar
Width: 540
GlyphClass: 2
Flags: MW
HStem: 77.4688 55.5742<64.875 70.5> 265.496 56.0977<168.75 168.75 168.75 179.433> 454.606 56.082<303.05 303.05>
VStem: 47.5498 61.8535<371.638 399.543 371.638 424.614> 228.914 74.1357<133 133> 430.597 61.8535<186.998 215.993>
LayerCount: 2
Back
Fore
SplineSet
228.859375 453.200195312 m 1
 162.112304688 447.919921875 109.403320312 426.737304688 109.403320312 372.349609375 c 0
 109.403320312 370.926757812 93.3759765625 321.391601562 168.75 321.59375 c 2
 168.75 321.59375 190.73828125 321.740234375 228.8671875 321.879882812 c 1
 228.859375 368.715820312 228.859375 414.4375 228.859375 453.200195312 c 1
303.049804688 133.87109375 m 1
 373.577148438 138.065429688 430.596679688 158.713867188 430.596679688 215.28125 c 0
 430.596679688 216.704101562 446.625 266.146484375 371.25 266.037109375 c 0
 371.041992188 266.09765625 346.000976562 265.924804688 303.049804688 265.7578125 c 1
 303.049804688 133.87109375 l 1
303.049804688 562 m 2
 303.049804688 510.688476562 l 1
 403.99609375 510.598632812 469.5 510.162109375 469.5 510.162109375 c 2
 480.75 510.162109375 490.5 498.049804688 490.5 482.375 c 0
 490.5 466.700195312 480.75 454.587890625 469.5 454.587890625 c 2
 469.5 454.587890625 381.04296875 454.602539062 303.049804688 454.606445312 c 1
 303.049804688 322.077148438 l 1
 323.931640625 322.112304688 346.780273438 322.134765625 371.25 322.134765625 c 0
 426.375 322.134765625 492.450195312 334.629882812 492.450195312 215.28125 c 0
 492.450195312 108.036132812 409.977539062 81.1826171875 303.049804688 77.4228515625 c 1
 303.049804688 28 l 2
 303.049804688 13 286.899414062 0 266 0 c 0
 245.099609375 0 228.94921875 13.20703125 228.950195312 28 c 2
 228.950195312 28 228.943359375 46.638671875 228.932617188 76.951171875 c 1
 132.549804688 77.0556640625 70.5 77.46875 70.5 77.46875 c 2
 59.25 77.46875 49.5 89.5810546875 49.5 105.255859375 c 0
 49.5 120.930664062 59.25 133.04296875 70.5 133.04296875 c 2
 70.5 133.04296875 153.009765625 133.029296875 228.9140625 133.024414062 c 1
 228.90234375 171.876953125 228.888671875 218.084960938 228.877929688 265.548828125 c 1
 210.232421875 265.516601562 190.115234375 265.49609375 168.75 265.49609375 c 0
 113.625 265.49609375 47.5498046875 253.000976562 47.5498046875 372.349609375 c 0
 47.5498046875 476.877929688 125.896484375 505.036132812 228.872070312 509.876953125 c 1
 228.885742188 542.03125 228.91015625 561.969726562 228.950195312 562 c 0
 228.950195312 577 245.099609375 590 266 590 c 0
 286.899414062 590 302.624023438 577 303.049804688 562 c 2
EndSplineSet
EndChar

StartChar: percent
Encoding: 37 37 6
GlifName: percent
Width: 610
GlyphClass: 2
Flags: MW
HStem: -0.44043 58.2041<430.707 465.75 430.707 481.94> 175.436 58.2041<430.707 465.75> 383.92 58.2041<144.25 179.293 144.25 195.483> 559.796 58.2041<144.25 179.293>
VStem: 39.4678 58.7363<485.347 516.573 485.347 533.26> 225.339 58.7363<485.347 516.573> 325.925 58.7363<100.987 132.212 100.987 148.899> 511.796 58.7363<100.987 132.212>
LayerCount: 2
Back
Fore
SplineSet
225.338867188 500.959960938 m 0
 225.338867188 532.185546875 196.815429688 559.795898438 161.771484375 559.795898438 c 0
 126.727539062 559.795898438 98.2041015625 532.185546875 98.2041015625 500.959960938 c 0
 98.2041015625 469.734375 126.727539062 442.124023438 161.771484375 442.124023438 c 0
 196.815429688 442.124023438 225.338867188 469.734375 225.338867188 500.959960938 c 0
284.075195312 500.959960938 m 0
 284.075195312 436.360351562 229.1953125 383.919921875 161.771484375 383.919921875 c 0
 94.34765625 383.919921875 39.4677734375 436.360351562 39.4677734375 500.959960938 c 0
 39.4677734375 565.559570312 94.34765625 618 161.771484375 618 c 0
 229.1953125 618 284.075195312 565.559570312 284.075195312 500.959960938 c 0
384.661132812 116.599609375 m 0
 384.661132812 85.3740234375 413.184570312 57.763671875 448.228515625 57.763671875 c 0
 483.272460938 57.763671875 511.795898438 85.3740234375 511.795898438 116.599609375 c 0
 511.795898438 147.825195312 483.272460938 175.435546875 448.228515625 175.435546875 c 0
 413.184570312 175.435546875 384.661132812 147.825195312 384.661132812 116.599609375 c 0
325.924804688 116.599609375 m 0
 325.924804688 181.19921875 380.8046875 233.639648438 448.228515625 233.639648438 c 0
 515.65234375 233.639648438 570.532226562 181.19921875 570.532226562 116.599609375 c 0
 570.532226562 52 515.65234375 -0.4404296875 448.228515625 -0.4404296875 c 0
 380.8046875 -0.4404296875 325.924804688 52 325.924804688 116.599609375 c 0
516.918945312 590 m 2
 166.567382812 28 l 2
 157.215820312 13 132.961914062 0 112.0625 0 c 0
 91.162109375 0 83.244140625 13.20703125 92.4677734375 28 c 2
 92.4677734375 28 442.512695312 589.842773438 442.819335938 590 c 0
 452.170898438 605 476.423828125 618 497.32421875 618 c 0
 518.223632812 618 525.844726562 605 516.918945312 590 c 2
EndSplineSet
EndChar

StartChar: ampersand
Encoding: 38 38 7
GlifName: ampersand
Width: 790
GlyphClass: 2
Flags: MW
HStem: 0 74.0996<132.904 556.902 132.904 603.025 69.0254 556.902> 252.633 74.167 364 74.0996<361.475 580.377> 505.426 74.7959<336.487 441.984>
VStem: 556.902 74.123<74.0996 74.0996>
LayerCount: 2
Back
Fore
SplineSet
368.974609375 438.099609375 m 2
 580.376953125 438.099609375 l 2
 584.560546875 439.354492188 589.140625 440.049804688 593.974609375 440.049804688 c 0
 598.80859375 440.049804688 603.365234375 439.354492188 607.521484375 438.099609375 c 2
 720.974609375 438.099609375 l 2
 735.974609375 438.099609375 748.974609375 421.94921875 748.974609375 401.049804688 c 0
 748.974609375 380.149414062 735.767578125 363.999023438 720.974609375 364 c 2
 631.025390625 363.931640625 l 1
 631.025390625 37.0498046875 l 2
 631.025390625 16.1494140625 618.025390625 0 603.025390625 0 c 0
 602.8671875 -0.2080078125 69.025390625 0 69.025390625 0 c 2
 54.232421875 -0.0009765625 41.025390625 16.1494140625 41.025390625 37.0498046875 c 0
 41.025390625 130.59375 55.390625 213.970703125 99.53515625 267.137695312 c 1
 95.865234375 273.337890625 93.625 281.140625 93.625 289.75 c 0
 93.625 449.881835938 224.724609375 580.221679688 386.224609375 580.221679688 c 0
 547.724609375 580.221679688 524.224609375 579.5 524.224609375 579.5 c 2
 539.224609375 579.5 552.224609375 563.349609375 552.224609375 542.450195312 c 0
 552.224609375 521.549804688 539.224609375 505.400390625 524.224609375 505.400390625 c 2
 524.224609375 505.400390625 497.744140625 505.42578125 386.224609375 505.42578125 c 0
 286.75 505.42578125 216.26953125 426.551757812 185.50390625 326.799804688 c 1
 224.35546875 326.799804688 l 2
 230.892578125 327.278320312 237.6484375 327.521484375 244.625 327.521484375 c 0
 406.125 327.521484375 407.625 326.799804688 407.625 326.799804688 c 2
 422.625 326.799804688 435.625 310.649414062 435.625 289.75 c 0
 435.625 268.849609375 422.625 252.700195312 407.625 252.700195312 c 0
 407.537109375 252.583984375 317.763671875 252.59765625 238.83203125 252.6328125 c 0
 145.8671875 249.58203125 163.05859375 171.869140625 132.904296875 74.099609375 c 1
 556.90234375 74.099609375 l 1
 556.865234375 136.299804688 556.802734375 264.650390625 556.849609375 363.9140625 c 1
 458.03515625 363.897460938 369.044921875 363.907226562 368.974609375 364 c 0
 353.974609375 364 340.974609375 380.149414062 340.974609375 401.049804688 c 0
 340.974609375 421.94921875 353.974609375 437.673828125 368.974609375 438.099609375 c 2
EndSplineSet
EndChar

StartChar: quotesingle
Encoding: 39 39 8
GlifName: quotesingle
Width: 198
GlyphClass: 2
Flags: MW
HStem: 557.5 21G 607.5 92.5<80.5039 96.8647>
VStem: 49.2539 88.75<653.75 666.25 653.75 666.25> 114.297 32.457
LayerCount: 2
Back
Fore
SplineSet
49.25390625 653.75 m 0xe0
 49.25390625 678.75 68.00390625 700 93.00390625 700 c 0
 118.00390625 700 138.00390625 678.75 138.00390625 653.75 c 1xe0
 143.004882812 633.318359375 153.00390625 600 146.75390625 583.75 c 0
 143.00390625 572.5 96.7529296875 562.083984375 61.75390625 557.5 c 1
 89.927734375 571.014648438 114.616210938 577.020507812 114.296875 613.06640625 c 1xd0
 107.970703125 609.52734375 100.725585938 607.5 93.00390625 607.5 c 0
 68.00390625 607.5 49.25390625 628.75 49.25390625 653.75 c 0xe0
EndSplineSet
EndChar

StartChar: parenleft
Encoding: 40 40 9
GlifName: parenleft
Width: 395
GlyphClass: 2
Flags: MW
HStem: -0.171875 0.696289<280.911 288.411 280.911 361.661> 505.976 74.7959<225.151 288.411> 580.075 0.696289<280.911 288.411>
VStem: 42.3115 82.4707<230.851 349.749 230.851 370.366>
LayerCount: 2
Back
Fore
SplineSet
280.911132812 580.075195312 m 1xb0
 295.911132812 580.075195312 308.911132812 563.924804688 308.911132812 543.025390625 c 0
 308.911132812 522.125 295.911132812 505.975585938 280.911132812 505.975585938 c 0
 169.391601562 505.975585938 124.782226562 409.197265625 124.782226562 290.299804688 c 0
 124.782226562 171.40234375 169.391601562 74.6240234375 280.911132812 74.6240234375 c 0
 295.911132812 74.6240234375 308.911132812 58.474609375 308.911132812 37.57421875 c 0
 308.911132812 16.6748046875 295.911132812 0.5244140625 280.911132812 0.5244140625 c 1
 280.911132812 0.5244140625 442.411132812 -0.171875 280.911132812 -0.171875 c 0
 119.411132812 -0.171875 42.3115234375 130.16796875 42.3115234375 290.299804688 c 0
 42.3115234375 450.431640625 119.411132812 580.771484375 280.911132812 580.771484375 c 0xd0
 442.411132812 580.771484375 280.911132812 580.075195312 280.911132812 580.075195312 c 1xb0
EndSplineSet
EndChar

StartChar: parenright
Encoding: 41 41 10
GlifName: parenright
Width: 397
GlyphClass: 2
Flags: MW
HStem: -0.171875 0.696289<107.589 115.089 107.589 195.839> 0.524414 74.0996<107.589 115.089> 580.075 0.696289<107.589 115.089>
VStem: 271.218 82.4707<230.851 349.749>
LayerCount: 2
Back
Fore
SplineSet
115.088867188 580.075195312 m 1x70
 115.088867188 580.075195312 -46.4111328125 580.771484375 115.088867188 580.771484375 c 0
 276.588867188 580.771484375 353.688476562 450.431640625 353.688476562 290.299804688 c 0
 353.688476562 130.16796875 276.588867188 -0.171875 115.088867188 -0.171875 c 0
 -46.4111328125 -0.171875 115.088867188 0.5244140625 115.088867188 0.5244140625 c 1xb0
 100.088867188 0.5244140625 87.0888671875 16.6748046875 87.0888671875 37.57421875 c 0
 87.0888671875 58.474609375 100.088867188 74.6240234375 115.088867188 74.6240234375 c 0
 226.608398438 74.6240234375 271.217773438 171.40234375 271.217773438 290.299804688 c 0
 271.217773438 409.197265625 226.608398438 505.975585938 115.088867188 505.975585938 c 0
 100.088867188 505.975585938 87.0888671875 522.125 87.0888671875 543.025390625 c 0
 87.0888671875 563.924804688 100.088867188 580.075195312 115.088867188 580.075195312 c 1x70
EndSplineSet
EndChar

StartChar: asterisk
Encoding: 42 42 11
GlifName: asterisk
Width: 331
GlyphClass: 2
Flags: MW
HStem: 607.58 29.6406<50.1411 53.0996 50.1411 53.0996 50.1411 129.688>
VStem: 150.68 29.6406<507.042 510>
LayerCount: 2
Back
Fore
SplineSet
180.3203125 734.80078125 m 2
 180.3203125 658.23046875 l 1
 210.020507812 687.935546875 234.458984375 712.364257812 234.5 712.358398438 c 0
 244.6875 722.548828125 265.325195312 701.842773438 255.458007812 691.400390625 c 2
 201.314453125 637.256835938 l 1
 243.321289062 637.259765625 277.875 637.252929688 277.900390625 637.220703125 c 0
 283.900390625 637.220703125 289.099609375 630.760742188 289.099609375 622.400390625 c 0
 289.099609375 614.041015625 283.900390625 607.750976562 277.900390625 607.580078125 c 2
 201.330078125 607.580078125 l 1
 231.03515625 577.879882812 255.463867188 553.44140625 255.458007812 553.400390625 c 0
 265.6484375 543.212890625 244.942382812 522.575195312 234.5 532.442382812 c 2
 180.3203125 586.622070312 l 1
 180.3203125 510 l 2
 180.3203125 504 173.859375 498.80078125 165.5 498.80078125 c 0
 157.139648438 498.80078125 150.6796875 504.083007812 150.6796875 510 c 2
 150.6796875 510 150.666992188 544.571289062 150.657226562 586.598632812 c 1
 96.5 532.442382812 l 2
 86.2822265625 522.22265625 65.4306640625 543.291992188 75.5419921875 553.400390625 c 2
 75.5419921875 553.400390625 99.978515625 577.85546875 129.688476562 607.580078125 c 1
 53.099609375 607.580078125 l 2
 47.099609375 607.580078125 41.900390625 614.041015625 41.900390625 622.400390625 c 0
 41.900390625 630.760742188 47.1826171875 637.220703125 53.099609375 637.220703125 c 2
 53.099609375 637.220703125 87.6708984375 637.233398438 129.698242188 637.243164062 c 1
 75.5419921875 691.400390625 l 2
 65.322265625 701.618164062 86.3916015625 722.469726562 96.5 712.358398438 c 2
 96.5 712.358398438 120.934570312 687.942382812 150.643554688 658.248046875 c 1
 150.640625 700.239257812 150.647460938 734.775390625 150.6796875 734.80078125 c 0
 150.6796875 740.80078125 157.139648438 746 165.5 746 c 0
 173.859375 746 180.149414062 740.80078125 180.3203125 734.80078125 c 2
EndSplineSet
AlternateSubs2: "'salt' Stylistic Alternatives in Latin lookup 0 subtable" uniE006
EndChar

StartChar: plus
Encoding: 43 43 12
GlifName: plus
Width: 572
GlyphClass: 2
Flags: MW
HStem: 271.904 74.0996<67.5 75 75 248.95>
VStem: 248.95 74.0996<90.4541 271.904>
LayerCount: 2
Back
Fore
SplineSet
497 271.904296875 m 2
 323.135742188 271.904296875 l 1
 323.15234375 180.137695312 323.141601562 98.0234375 323.049804688 97.9541015625 c 0
 323.049804688 82.9541015625 306.900390625 69.9541015625 286 69.9541015625 c 0
 265.100585938 69.9541015625 249.375976562 82.9541015625 248.950195312 97.9541015625 c 2
 248.950195312 271.904296875 l 1
 75 271.904296875 l 2
 60 271.904296875 47 288.0546875 47 308.954101562 c 0
 47 329.854492188 60.20703125 346.004882812 75 346.00390625 c 2
 75 346.00390625 157.14453125 346.043945312 248.950195312 346.072265625 c 1
 248.950195312 519.954101562 l 2
 248.950195312 534.954101562 265.100585938 547.954101562 286 547.954101562 c 0
 306.900390625 547.954101562 323.05078125 534.747070312 323.049804688 519.954101562 c 2
 323.049804688 519.954101562 323.08984375 437.860351562 323.1171875 346.08984375 c 1
 414.856445312 346.106445312 496.930664062 346.095703125 497 346.00390625 c 0
 512 346.00390625 525 329.854492188 525 308.954101562 c 0
 525 288.0546875 512 272.330078125 497 271.904296875 c 2
EndSplineSet
AlternateSubs2: "'salt' Stylistic Alternatives in Latin lookup 0 subtable" uniE005
EndChar

StartChar: comma
Encoding: 44 44 13
GlifName: comma
Width: 205
GlyphClass: 2
Flags: MW
HStem: -0.25 92.5<84.0039 100.365>
VStem: 52.7539 88.75<46 58.5 46 58.5> 117.797 32.457
LayerCount: 2
Back
Fore
SplineSet
52.75390625 46 m 0xc0
 52.75390625 71 71.50390625 92.25 96.50390625 92.25 c 0
 121.50390625 92.25 141.50390625 71 141.50390625 46 c 1xc0
 146.504882812 25.568359375 156.50390625 -7.75 150.25390625 -24 c 0
 146.50390625 -35.25 100.252929688 -45.666015625 65.25390625 -50.25 c 1
 93.427734375 -36.7353515625 118.116210938 -30.7294921875 117.796875 5.31640625 c 1xa0
 111.470703125 1.77734375 104.225585938 -0.25 96.50390625 -0.25 c 0
 71.50390625 -0.25 52.75390625 21 52.75390625 46 c 0xc0
EndSplineSet
EndChar

StartChar: hyphen
Encoding: 45 45 14
GlifName: hyphen
Width: 592
GlyphClass: 2
Flags: MW
HStem: 271.904 74.0996<77.5 507 85 507>
LayerCount: 2
Back
Fore
SplineSet
507 271.904296875 m 2
 85 271.904296875 l 2
 70 271.904296875 57 288.0546875 57 308.954101562 c 0
 57 329.854492188 70.20703125 346.004882812 85 346.00390625 c 2
 85 346.00390625 506.842773438 346.211914062 507 346.00390625 c 0
 522 346.00390625 535 329.854492188 535 308.954101562 c 0
 535 288.0546875 522 272.330078125 507 271.904296875 c 2
EndSplineSet
EndChar

StartChar: period
Encoding: 46 46 15
GlifName: period
Width: 196
GlyphClass: 2
Flags: MW
HStem: -0.25 92.5<84.875 109.875>
VStem: 53.625 88.75<33.5 58.5>
LayerCount: 2
Back
Fore
SplineSet
53.625 46 m 0
 53.625 71 72.375 92.25 97.375 92.25 c 0
 122.375 92.25 142.375 71 142.375 46 c 0
 142.375 21 122.375 -0.25 97.375 -0.25 c 0
 72.375 -0.25 53.625 21 53.625 46 c 0
EndSplineSet
EndChar

StartChar: slash
Encoding: 47 47 16
GlifName: slash
Width: 363
GlyphClass: 2
Flags: MW
VStem: 41.0889 280.943
LayerCount: 2
Back
Fore
SplineSet
322.032226562 590 m 2
 115.188476562 28 l 2
 109.66796875 13 88.7333984375 0 67.833984375 0 c 0
 46.93359375 0 35.6435546875 13.20703125 41.0888671875 28 c 2
 41.0888671875 28 247.666015625 589.842773438 247.932617188 590 c 0
 253.453125 605 274.38671875 618 295.287109375 618 c 0
 316.186523438 618 327.126953125 605 322.032226562 590 c 2
EndSplineSet
EndChar

StartChar: zero
Encoding: 48 48 17
GlifName: zero
Width: 708
GlyphClass: 2
Flags: MW
HStem: 0 82.4707<291.422 416.578 291.422 438.28> 502.729 82.4707<291.422 416.578>
VStem: 48.2402 78.7324<236.839 348.359 236.839 373.35> 581.027 78.7324<236.839 348.359>
LayerCount: 2
Back
Fore
SplineSet
126.97265625 292.599609375 m 0
 126.97265625 181.079101562 228.844726562 82.470703125 354 82.470703125 c 0
 479.155273438 82.470703125 581.02734375 181.079101562 581.02734375 292.599609375 c 0
 581.02734375 404.119140625 479.155273438 502.728515625 354 502.728515625 c 0
 228.844726562 502.728515625 126.97265625 404.119140625 126.97265625 292.599609375 c 0
48.240234375 292.599609375 m 0
 48.240234375 454.099609375 185.440429688 585.19921875 354 585.19921875 c 0
 522.559570312 585.19921875 659.759765625 454.099609375 659.759765625 292.599609375 c 0
 659.759765625 131.099609375 522.559570312 0 354 0 c 0
 185.440429688 0 48.240234375 131.099609375 48.240234375 292.599609375 c 0
EndSplineSet
AlternateSubs2: "'salt' Stylistic Alternatives in Latin lookup 0 subtable" uniE019
EndChar

StartChar: one
Encoding: 49 49 18
GlifName: one
Width: 298
GlyphClass: 2
Flags: MW
VStem: 174.371 74.0996<20.5 28>
LayerCount: 2
Back
Fore
SplineSet
174.282226562 465.118164062 m 1
 108.458984375 399.294921875 l 2
 97.8525390625 388.688476562 77.240234375 390.916015625 62.4619140625 405.694335938 c 0
 47.6826171875 420.47265625 45.6015625 441.231445312 56.0625 451.69140625 c 2
 56.0625 451.69140625 166.157226562 561.8671875 166.37109375 562 c 0
 176.977539062 572.606445312 185.875 592 211.420898438 590 c 0
 232.3203125 590 248.044921875 577 248.470703125 562 c 2
 248.470703125 28 l 2
 248.470703125 13 232.3203125 0 211.420898438 0 c 0
 190.520507812 0 174.370117188 13.20703125 174.37109375 28 c 2
 174.37109375 28 174.258789062 304.362304688 174.282226562 465.118164062 c 1
EndSplineSet
EndChar

StartChar: two
Encoding: 50 50 19
GlifName: two
Width: 691
GlyphClass: 2
Flags: MW
HStem: 0.402344 74.7959<286.24 397.76 286.24 422.75> 210.55 74.7959<174.25 211> 503.976 74.7959<293.24 404.76>
VStem: 49.4004 82.4707<106.925 138.823 106.925 217.44> 559.129 82.4707<361.351 452.749>
LayerCount: 2
Back
Fore
SplineSet
612 1.1240234375 m 2
 612 1.1240234375 503.5 0.40234375 342 0.40234375 c 0
 180.5 0.40234375 49.400390625 -18.2578125 49.400390625 137.874023438 c 0
 49.400390625 297.005859375 137.5 285.345703125 211 285.345703125 c 0
 372.5 285.345703125 481 284.624023438 481 284.624023438 c 2
 535.51953125 284.624023438 559.12890625 329.40234375 559.12890625 393.299804688 c 0
 559.12890625 512.197265625 460.51953125 503.975585938 349 503.975585938 c 0
 237.479492188 503.975585938 79 503.950195312 79 503.950195312 c 2
 64 503.950195312 51 520.099609375 51 541 c 0
 51 561.899414062 64 578.049804688 79 578.049804688 c 2
 79 578.049804688 187.5 578.771484375 349 578.771484375 c 0
 510.5 578.771484375 641.599609375 553.431640625 641.599609375 393.299804688 c 0
 641.599609375 247.16796875 576.5 209.828125 481 209.828125 c 0
 319.5 209.828125 211 210.549804688 211 210.549804688 c 2
 99.48046875 210.549804688 131.87109375 139.771484375 131.87109375 137.874023438 c 0
 131.87109375 75.9765625 230.48046875 75.1982421875 342 75.1982421875 c 0
 453.520507812 75.1982421875 612 75.2236328125 612 75.2236328125 c 2
 627 75.2236328125 640 59.07421875 640 38.173828125 c 0
 640 17.2744140625 627 1.1240234375 612 1.1240234375 c 2
EndSplineSet
EndChar

StartChar: three
Encoding: 51 51 20
GlifName: three
Width: 768
GlyphClass: 2
Flags: MW
HStem: -0.171875 74.7959<373.267 484.787 373.267 509.777> 252.95 74.0996<66.873 468.373 74.373 468.373> 505.976 74.7959<373.267 484.787>
VStem: 639.156 82.4707<230.851 349.749>
LayerCount: 2
Back
Fore
SplineSet
74.373046875 327.049804688 m 2
 468.373046875 327.049804688 l 2
 483.373046875 327.049804688 496.373046875 309.899414062 496.373046875 289 c 0
 496.373046875 268.099609375 483.166015625 252.94921875 468.373046875 252.950195312 c 2
 468.373046875 252.950195312 74.5302734375 252.7421875 74.373046875 252.950195312 c 0
 59.373046875 252.950195312 46.373046875 269.099609375 46.373046875 290 c 0
 46.373046875 310.899414062 59.373046875 326.624023438 74.373046875 327.049804688 c 2
159.02734375 580.049804688 m 2
 159.02734375 580.049804688 267.52734375 580.771484375 429.02734375 580.771484375 c 0
 590.52734375 580.771484375 721.626953125 450.431640625 721.626953125 290.299804688 c 0
 721.626953125 130.16796875 590.52734375 -0.171875 429.02734375 -0.171875 c 0
 267.52734375 -0.171875 159.02734375 0.5498046875 159.02734375 0.5498046875 c 2
 144.02734375 0.5498046875 131.02734375 16.7001953125 131.02734375 37.599609375 c 0
 131.02734375 58.5 144.02734375 74.6494140625 159.02734375 74.6494140625 c 2
 159.02734375 74.6494140625 317.506835938 74.6240234375 429.02734375 74.6240234375 c 0
 540.546875 74.6240234375 639.15625 171.40234375 639.15625 290.299804688 c 0
 639.15625 409.197265625 540.546875 505.975585938 429.02734375 505.975585938 c 0
 317.506835938 505.975585938 159.02734375 505.950195312 159.02734375 505.950195312 c 2
 144.02734375 505.950195312 131.02734375 522.099609375 131.02734375 543 c 0
 131.02734375 563.899414062 144.02734375 580.049804688 159.02734375 580.049804688 c 2
EndSplineSet
EndChar

StartChar: four
Encoding: 52 52 21
GlifName: four
Width: 645
GlyphClass: 2
Flags: MW
HStem: 239.229 74.7959<308.55 354.338> 515.376 74.7959<354 354>
VStem: 416.213 74.0996<20.5 28>
LayerCount: 2
Back
Fore
SplineSet
490.337890625 557.400390625 m 1
 490.337890625 313.328125 l 1
 574.337890625 313.328125 l 2
 589.337890625 313.328125 602.337890625 297.177734375 602.337890625 276.278320312 c 0
 602.337890625 255.377929688 589.130859375 239.227539062 574.337890625 239.228515625 c 2
 574.337890625 239.228515625 541.395507812 239.1875 490.3125 239.16015625 c 1
 490.3125 28 l 2
 490.3125 13 474.162109375 0 453.262695312 0 c 0
 432.362304688 0 416.211914062 13.20703125 416.212890625 28 c 2
 416.212890625 28 416.170898438 121.001953125 416.143554688 239.135742188 c 1
 380.962890625 239.135742188 354.390625 239.158203125 354.337890625 239.228515625 c 0
 262.762695312 239.228515625 217.90625 238.399414062 67.2626953125 239.014648438 c 1
 24.0107421875 248.647460938 45.7880859375 276.8671875 71.73828125 314.700195312 c 0
 174.698242188 464.807617188 264.654296875 586.159179688 354.337890625 590.171875 c 0
 499.495117188 596.666015625 490.337890625 557.400390625 490.337890625 557.400390625 c 1
416.161132812 515.915039062 m 1
 400.913085938 515.877929688 380.797851562 515.7265625 354.337890625 515.375976562 c 0
 312.065429688 514.815429688 266.276367188 470.859375 170.208984375 330.700195312 c 0
 156.497070312 310.6953125 207.818359375 314.024414062 354.337890625 314.024414062 c 2
 354.337890625 314.024414062 360.76953125 314.03515625 416.12890625 314.04296875 c 1
 416.116210938 394.071289062 416.125976562 471.984375 416.161132812 515.915039062 c 1
EndSplineSet
AlternateSubs2: "'salt' Stylistic Alternatives in Latin lookup 0 subtable" uniE012
EndChar

StartChar: five
Encoding: 53 53 22
GlifName: five
Width: 690
GlyphClass: 2
Flags: MW
HStem: -0.291992 74.7959<292.74 404.26 292.74 429.25> 293.134 74.7959<173.75 210.5 154.74 291.25> 503.281 74.7959<285.74 397.26>
VStem: 48.9004 82.4707<439.657 471.554 439.657 518.671> 558.629 82.4707<125.731 217.128>
LayerCount: 2
Back
Fore
SplineSet
611.5 577.35546875 m 2
 626.5 577.35546875 639.5 561.205078125 639.5 540.305664062 c 0
 639.5 519.405273438 626.5 503.255859375 611.5 503.255859375 c 2
 611.5 503.255859375 453.020507812 503.28125 341.5 503.28125 c 0
 229.98046875 503.28125 131.37109375 502.502929688 131.37109375 440.60546875 c 0
 131.37109375 438.708007812 98.98046875 367.9296875 210.5 367.9296875 c 2
 210.5 367.9296875 319 368.651367188 480.5 368.651367188 c 0
 576 368.651367188 641.099609375 331.311523438 641.099609375 185.1796875 c 0
 641.099609375 25.0478515625 510 -0.2919921875 348.5 -0.2919921875 c 0
 187 -0.2919921875 78.5 0.4296875 78.5 0.4296875 c 2
 63.5 0.4296875 50.5 16.580078125 50.5 37.4794921875 c 0
 50.5 58.3798828125 63.5 74.529296875 78.5 74.529296875 c 2
 78.5 74.529296875 236.979492188 74.50390625 348.5 74.50390625 c 0
 460.01953125 74.50390625 558.62890625 66.2822265625 558.62890625 185.1796875 c 0
 558.62890625 249.077148438 535.01953125 293.85546875 480.5 293.85546875 c 2
 480.5 293.85546875 372 293.133789062 210.5 293.133789062 c 0
 137 293.133789062 48.900390625 281.473632812 48.900390625 440.60546875 c 0
 48.900390625 596.737304688 180 578.077148438 341.5 578.077148438 c 0
 503 578.077148438 611.5 577.35546875 611.5 577.35546875 c 2
EndSplineSet
EndChar

StartChar: six
Encoding: 54 54 23
GlifName: six
Width: 692
GlyphClass: 2
Flags: MW
HStem: 0.628906 74.1748<305.461 342.177 341.152 389.139> 251.743 75.0342 503.573 74.7959<286.24 397.76>
VStem: 52 82.4707<141.966 185.353 141.966 209.048> 560.129 82.4707<141.966 185.412>
LayerCount: 2
Back
Fore
SplineSet
389.138671875 0.62890625 m 2
 389.138671875 0.62890625 468.102539062 0.015625 351.048828125 0 c 2
 350 0 l 1
 347.299804688 0 l 1
 344.599609375 0 l 1
 343.55078125 0 l 2
 226.497070312 0.015625 305.4609375 0.62890625 305.4609375 0.62890625 c 2
 162.440429688 5.5205078125 52 41.1689453125 52 184.471679688 c 0
 52 233.625 60.4052734375 266.005859375 74.189453125 287.286132812 c 1
 58.8701171875 308.44921875 49.400390625 341.725585938 49.400390625 393.897460938 c 0
 49.400390625 550.029296875 180.5 578.369140625 342 578.369140625 c 0
 503.5 578.369140625 612 577.647460938 612 577.647460938 c 2
 627 577.647460938 640 561.497070312 640 540.59765625 c 0
 640 519.697265625 627 503.547851562 612 503.547851562 c 2
 612 503.547851562 453.520507812 503.573242188 342 503.573242188 c 0
 230.48046875 503.573242188 131.87109375 479.794921875 131.87109375 393.897460938 c 0
 131.87109375 392.145507812 113.657226562 335.720703125 189.935546875 327.274414062 c 0
 197.905273438 327.12890625 205.833984375 326.943359375 213.599609375 326.943359375 c 0
 263.856445312 326.943359375 308.98046875 326.873046875 347.299804688 326.77734375 c 0
 385.619140625 326.873046875 430.743164062 326.943359375 481 326.943359375 c 0
 554.5 326.943359375 642.599609375 343.603515625 642.599609375 184.471679688 c 0
 642.599609375 41.1689453125 532.159179688 5.5205078125 389.138671875 0.62890625 c 2
381.592773438 251.743164062 m 0
 336.716796875 251.577148438 278.536132812 251.42578125 211 251.42578125 c 0
 205.377929688 251.42578125 199.670898438 251.328125 193.924804688 251.219726562 c 0
 116.036132812 243.224609375 134.470703125 186.234375 134.470703125 184.471679688 c 0
 134.470703125 99.4599609375 231.055664062 75.29296875 341.15234375 74.8037109375 c 0
 343.202148438 74.8037109375 345.250976562 74.7978515625 347.299804688 74.7978515625 c 0
 349.348632812 74.7978515625 351.397460938 74.8037109375 353.447265625 74.8037109375 c 0
 463.543945312 75.29296875 560.12890625 99.4599609375 560.12890625 184.471679688 c 0
 560.12890625 186.352539062 581.137695312 251.17578125 483.537109375 252.13671875 c 1
 483.55078125 251.671875 483.571289062 251.42578125 483.599609375 251.42578125 c 2
 483.599609375 251.42578125 436.470703125 251.577148438 381.592773438 251.743164062 c 0
EndSplineSet
EndChar

StartChar: seven
Encoding: 55 55 24
GlifName: seven
Width: 686
GlyphClass: 2
Flags: MW
HStem: 505.976 74.7959<289.94 401.46>
VStem: 555.829 73.7207 555.829 82.4707<290.3 290.3 290.3 349.749>
LayerCount: 2
Back
Fore
SplineSet
555.450195312 28 m 1xc0
 555.5 28 555.829101562 171.40234375 555.829101562 290.299804688 c 0
 555.829101562 409.197265625 457.219726562 505.975585938 345.700195312 505.975585938 c 0
 234.1796875 505.975585938 75.7001953125 505.950195312 75.7001953125 505.950195312 c 2
 60.7001953125 505.950195312 47.7001953125 522.099609375 47.7001953125 543 c 0
 47.7001953125 563.899414062 60.7001953125 580.049804688 75.7001953125 580.049804688 c 2
 75.7001953125 580.049804688 184.200195312 580.771484375 345.700195312 580.771484375 c 0
 507.200195312 580.771484375 627.8203125 450.087890625 638.299804688 290.299804688 c 1xa0
 629.549804688 28 l 2
 629.5 13 613.399414062 0 592.5 0 c 0
 571.599609375 0 555.5 13 555.450195312 28 c 1xc0
EndSplineSet
EndChar

StartChar: eight
Encoding: 56 56 25
GlifName: eight
Width: 693
GlyphClass: 2
Flags: MW
HStem: 0.620117 74.1855<303.623 339.898 338.578 389.377> 251.625 75.1484<346 346> 503.57 74.7988<345.18 346.5 346.5 347.82> 577.749 0.619141
VStem: 49.9004 82.4707<142.027 185.351 142.027 209.791 393.02 436.342> 560.629 82.4707<142.027 185.351 393.02 436.342>
LayerCount: 2
Back
Fore
SplineSet
501.755859375 251.159179688 m 0xcc
 494.935546875 251.2890625 488.158203125 251.42578125 481.5 251.42578125 c 0
 430.62890625 251.42578125 385.06640625 251.51171875 346.5 251.625 c 0
 307.93359375 251.51171875 262.37109375 251.42578125 211.5 251.42578125 c 0
 204.841796875 251.42578125 198.064453125 251.2890625 191.244140625 251.159179688 c 0
 114.028320312 242.940429688 132.37109375 186.229492188 132.37109375 184.471679688 c 0
 132.37109375 99.5830078125 228.678710938 75.3623046875 338.578125 74.8056640625 c 0
 341.21875 74.8056640625 343.859375 74.798828125 346.5 74.798828125 c 0
 349.140625 74.798828125 351.78125 74.8056640625 354.421875 74.8056640625 c 0
 464.321289062 75.3623046875 560.62890625 99.5830078125 560.62890625 184.471679688 c 0
 560.62890625 186.229492188 578.971679688 242.940429688 501.755859375 251.159179688 c 0xcc
303.623046875 577.749023438 m 2xdc
 303.623046875 577.749023438 229.599609375 578.346679688 340.9296875 578.368164062 c 0xdc
 341.452148438 578.368164062 341.9765625 578.369140625 342.5 578.369140625 c 2
 346.5 578.369140625 l 1
 350.5 578.369140625 l 2xec
 351.0234375 578.369140625 351.547851562 578.368164062 352.0703125 578.368164062 c 0
 463.400390625 578.346679688 389.376953125 577.749023438 389.376953125 577.749023438 c 2
 532.524414062 572.892578125 643.099609375 537.288085938 643.099609375 393.897460938 c 0
 643.099609375 343.259765625 634.178710938 310.422851562 619.645507812 289.184570312 c 1
 634.178710938 267.946289062 643.099609375 235.109375 643.099609375 184.471679688 c 0
 643.099609375 41.0810546875 532.524414062 5.4765625 389.376953125 0.6201171875 c 2
 389.376953125 0.6201171875 463.400390625 0.0224609375 352.0703125 0.0009765625 c 0
 351.547851562 0.0009765625 351.0234375 0 350.5 0 c 2
 346.5 0 l 1
 342.5 0 l 2
 341.9765625 0 341.452148438 0.0009765625 340.9296875 0.0009765625 c 0
 229.599609375 0.0224609375 303.623046875 0.6201171875 303.623046875 0.6201171875 c 2
 160.475585938 5.4765625 49.900390625 41.0810546875 49.900390625 184.471679688 c 0
 49.900390625 235.109375 58.8212890625 267.946289062 73.3544921875 289.184570312 c 1
 58.8212890625 310.422851562 49.900390625 343.259765625 49.900390625 393.897460938 c 0
 49.900390625 537.288085938 160.475585938 572.892578125 303.623046875 577.749023438 c 2xdc
346.5 326.7734375 m 0
 385.09765625 326.872070312 430.673828125 326.943359375 481.5 326.943359375 c 0
 488.245117188 326.943359375 495.11328125 327.083984375 502.025390625 327.215820312 c 0
 578.927734375 335.455078125 560.62890625 392.141601562 560.62890625 393.897460938 c 0
 560.62890625 478.786132812 464.321289062 503.006835938 354.421875 503.563476562 c 0
 351.78125 503.563476562 349.140625 503.5703125 346.5 503.5703125 c 0xec
 343.859375 503.5703125 341.21875 503.563476562 338.578125 503.563476562 c 0
 228.678710938 503.006835938 132.37109375 478.786132812 132.37109375 393.897460938 c 0
 132.37109375 392.141601562 114.072265625 335.455078125 190.974609375 327.215820312 c 0
 197.88671875 327.083984375 204.754882812 326.943359375 211.5 326.943359375 c 0
 262.326171875 326.943359375 307.90234375 326.872070312 346.5 326.7734375 c 0
EndSplineSet
EndChar

StartChar: nine
Encoding: 57 57 26
GlifName: nine
Width: 695
GlyphClass: 2
Flags: MW
HStem: 0 74.7959<295.634 407.154 295.634 432.145> 251.592 75.0342 503.571 74.7979<345.07 346.095 346.095 347.119>
VStem: 50.7949 82.4707<392.957 436.403 392.957 465.549> 561.523 82.4707<141.523 185.348>
LayerCount: 2
Back
Fore
SplineSet
304.255859375 577.740234375 m 2
 304.255859375 577.740234375 225.291992188 578.353515625 342.345703125 578.369140625 c 2
 343.39453125 578.369140625 l 1
 346.094726562 578.369140625 l 1
 348.794921875 578.369140625 l 1
 349.84375 578.369140625 l 2
 466.897460938 578.353515625 387.93359375 577.740234375 387.93359375 577.740234375 c 2
 530.954101562 572.848632812 641.39453125 537.200195312 641.39453125 393.897460938 c 0
 641.39453125 344.744140625 644.205078125 291.083007812 644.205078125 291.083007812 c 2
 643.994140625 184.471679688 643.994140625 236.643554688 643.994140625 184.471679688 c 0
 643.994140625 28.33984375 512.89453125 0 351.39453125 0 c 0
 189.89453125 0 81.39453125 0.7216796875 81.39453125 0.7216796875 c 2
 66.39453125 0.7216796875 53.39453125 16.8720703125 53.39453125 37.771484375 c 0
 53.39453125 58.671875 66.39453125 74.8212890625 81.39453125 74.8212890625 c 2
 81.39453125 74.8212890625 239.874023438 74.7958984375 351.39453125 74.7958984375 c 0
 462.9140625 74.7958984375 561.5234375 98.57421875 561.5234375 184.471679688 c 0
 561.5234375 186.223632812 579.737304688 242.6484375 503.458984375 251.094726562 c 0
 495.489257812 251.240234375 487.560546875 251.42578125 479.794921875 251.42578125 c 0
 429.538085938 251.42578125 384.4140625 251.49609375 346.094726562 251.591796875 c 0
 307.775390625 251.49609375 262.651367188 251.42578125 212.39453125 251.42578125 c 0
 138.89453125 251.42578125 50.794921875 234.765625 50.794921875 393.897460938 c 0
 50.794921875 537.200195312 161.235351562 572.848632812 304.255859375 577.740234375 c 2
311.801757812 326.625976562 m 0
 356.677734375 326.791992188 414.858398438 326.943359375 482.39453125 326.943359375 c 0
 488.016601562 326.943359375 493.723632812 327.041015625 499.469726562 327.149414062 c 0
 577.358398438 335.14453125 558.923828125 392.134765625 558.923828125 393.897460938 c 0
 558.923828125 478.909179688 462.338867188 503.076171875 352.2421875 503.565429688 c 0
 350.192382812 503.565429688 348.143554688 503.571289062 346.094726562 503.571289062 c 0
 344.045898438 503.571289062 341.997070312 503.565429688 339.947265625 503.565429688 c 0
 229.850585938 503.076171875 133.265625 478.909179688 133.265625 393.897460938 c 0
 133.265625 392.016601562 112.256835938 327.193359375 209.857421875 326.232421875 c 1
 209.84375 326.697265625 209.823242188 326.943359375 209.794921875 326.943359375 c 2
 209.794921875 326.943359375 256.923828125 326.791992188 311.801757812 326.625976562 c 0
EndSplineSet
EndChar

StartChar: colon
Encoding: 58 58 27
GlifName: colon
Width: 200
GlyphClass: 2
Flags: MW
HStem: -0.5 92.5<86.875 111.875> 182 92.5<86.875 111.875>
VStem: 55.625 88.75<33.25 58.25 215.75 240.75>
LayerCount: 2
Back
Fore
SplineSet
55.625 228.25 m 0
 55.625 253.25 74.375 274.5 99.375 274.5 c 0
 124.375 274.5 144.375 253.25 144.375 228.25 c 0
 144.375 203.25 124.375 182 99.375 182 c 0
 74.375 182 55.625 203.25 55.625 228.25 c 0
55.625 45.75 m 0
 55.625 70.75 74.375 92 99.375 92 c 0
 124.375 92 144.375 70.75 144.375 45.75 c 0
 144.375 20.75 124.375 -0.5 99.375 -0.5 c 0
 74.375 -0.5 55.625 20.75 55.625 45.75 c 0
EndSplineSet
EndChar

StartChar: semicolon
Encoding: 59 59 28
GlifName: semicolon
Width: 206
GlyphClass: 2
Flags: MW
HStem: -0.5 92.5<84.5039 100.865> 182 92.5<84.5039 109.504>
VStem: 53.2539 88.75<45.75 58.25 45.75 58.25 215.75 240.75> 118.297 32.457
LayerCount: 2
Back
Fore
SplineSet
53.25390625 45.75 m 0xe0
 53.25390625 70.75 72.00390625 92 97.00390625 92 c 0
 122.00390625 92 142.00390625 70.75 142.00390625 45.75 c 1xe0
 147.004882812 25.318359375 157.00390625 -8 150.75390625 -24.25 c 0
 147.00390625 -35.5 100.752929688 -45.916015625 65.75390625 -50.5 c 1
 93.927734375 -36.9853515625 118.616210938 -30.9794921875 118.296875 5.06640625 c 1xd0
 111.970703125 1.52734375 104.725585938 -0.5 97.00390625 -0.5 c 0
 72.00390625 -0.5 53.25390625 20.75 53.25390625 45.75 c 0xe0
53.25390625 228.25 m 0
 53.25390625 253.25 72.00390625 274.5 97.00390625 274.5 c 0
 122.00390625 274.5 142.00390625 253.25 142.00390625 228.25 c 0
 142.00390625 203.25 122.00390625 182 97.00390625 182 c 0
 72.00390625 182 53.25390625 203.25 53.25390625 228.25 c 0
EndSplineSet
EndChar

StartChar: less
Encoding: 60 60 29
GlifName: less
Width: 363
GlyphClass: 2
Flags: MW
VStem: 46.5 270<164.572 353.45>
LayerCount: 2
Back
Fore
SplineSet
46.5 343 m 0
 46.5 363.900390625 59.5 384.833984375 74.5 390.354492188 c 0
 74.6572265625 390.62109375 288.5 533.6484375 288.5 533.6484375 c 1
 303.29296875 537.732421875 316.5 529.265625 316.5 513.58984375 c 0
 316.5 497.915039062 303.5 482.21484375 288.5 478.07421875 c 1
 113.166992188 343 l 1
 288.5 207.92578125 l 1
 303.5 203.78515625 316.5 188.084960938 316.5 172.41015625 c 0
 316.5 156.734375 303.29296875 148.267578125 288.5 152.3515625 c 1
 288.5 152.3515625 74.6572265625 295.37890625 74.5 295.645507812 c 0
 59.5 301.166015625 46.5 322.099609375 46.5 343 c 0
EndSplineSet
EndChar

StartChar: equal
Encoding: 61 61 30
GlifName: equal
Width: 515
GlyphClass: 2
Flags: MW
HStem: 134 72<89.4863 93.4863 93.4863 419.486> 278 72<89.4863 93.4863 93.4863 419.486>
LayerCount: 2
Back
Fore
SplineSet
419.486328125 134 m 2
 93.486328125 134 l 2
 70.46875 134 59.486328125 149.333007812 59.486328125 168 c 0
 59.486328125 186 69.486328125 198.666992188 89.486328125 206 c 1
 419.486328125 206 l 1
 444.153320312 200.666992188 455.819335938 188 454.486328125 168 c 0
 453.819335938 148 442.153320312 136.666992188 419.486328125 134 c 2
419.486328125 278 m 2
 93.486328125 278 l 2
 70.46875 278 59.486328125 293.333007812 59.486328125 312 c 0
 59.486328125 330 69.486328125 342.666992188 89.486328125 350 c 1
 199.486328125 350 309.749023438 353.259765625 419.486328125 350 c 0
 444.416015625 349.259765625 456.153320312 333.666992188 455.486328125 313 c 0
 454.819335938 293 442.819335938 281.333007812 419.486328125 278 c 2
EndSplineSet
EndChar

StartChar: greater
Encoding: 62 62 31
GlifName: greater
Width: 365
GlyphClass: 2
Flags: MW
VStem: 47.5 270<164.572 353.45 332.55 521.428>
LayerCount: 2
Back
Fore
SplineSet
317.5 343 m 0
 317.5 322.099609375 304.5 301.166015625 289.5 295.645507812 c 0
 289.342773438 295.37890625 75.5 152.3515625 75.5 152.3515625 c 1
 60.70703125 148.267578125 47.5 156.734375 47.5 172.41015625 c 0
 47.5 188.084960938 60.5 203.78515625 75.5 207.92578125 c 1
 250.833007812 343 l 1
 75.5 478.07421875 l 1
 60.5 482.21484375 47.5 497.915039062 47.5 513.58984375 c 0
 47.5 529.265625 60.70703125 537.732421875 75.5 533.6484375 c 1
 75.5 533.6484375 289.342773438 390.62109375 289.5 390.354492188 c 0
 304.5 384.833984375 317.5 363.900390625 317.5 343 c 0
EndSplineSet
EndChar

StartChar: question
Encoding: 63 63 32
GlifName: question
Width: 597
GlyphClass: 2
Flags: MW
HStem: 0 79.5498<242.17 263.67> 298.849 63.7998<284.224 284.224> 516.267 64.3242<252.868 343.596>
VStem: 215.295 76.3252<29.0244 50.5244> 220.498 63.7256<132.985 298.849>
LayerCount: 2
Back
Fore
SplineSet
284.223632812 298.848632812 m 1xe8
 284.223632812 132.985351562 l 2
 284.223632812 120.0859375 270.333984375 108.905273438 252.360351562 108.905273438 c 0
 234.38671875 108.905273438 220.497070312 120.263671875 220.498046875 132.985351562 c 2
 220.498046875 132.985351562 220.319335938 330.650390625 220.498046875 330.78515625 c 0
 220.498046875 348.758789062 231.677734375 362.282226562 244.578125 362.6484375 c 2
 473.44140625 362.6484375 l 1
 446.983398438 448.434570312 386.370117188 516.266601562 300.822265625 516.266601562 c 0
 204.9140625 516.266601562 68.6220703125 516.245117188 68.6220703125 516.245117188 c 2
 55.7216796875 516.245117188 44.5419921875 530.133789062 44.5419921875 548.107421875 c 0
 44.5419921875 566.081054688 55.7216796875 579.970703125 68.6220703125 579.970703125 c 2
 68.6220703125 579.970703125 161.932617188 580.590820312 300.822265625 580.590820312 c 0
 439.711914062 580.590820312 552.458007812 468.499023438 552.458007812 330.78515625 c 0
 552.458007812 312.811523438 541.099609375 298.921875 528.377929688 298.922851562 c 2
 528.377929688 298.922851562 362.282226562 298.817382812 284.223632812 298.848632812 c 1xe8
215.294921875 39.7744140625 m 0xf0
 215.294921875 61.2744140625 231.419921875 79.5498046875 252.919921875 79.5498046875 c 0
 274.419921875 79.5498046875 291.620117188 61.2744140625 291.620117188 39.7744140625 c 0
 291.620117188 18.2744140625 274.419921875 0 252.919921875 0 c 0
 231.419921875 0 215.294921875 18.2744140625 215.294921875 39.7744140625 c 0xf0
EndSplineSet
EndChar

StartChar: at
Encoding: 64 64 33
GlifName: at
Width: 680
GlyphClass: 2
Flags: MW
HStem: 4.83691 74.7959<337 337> 112.771 49.4824<340.303 415.396 340.303 428.417> 414.408 49.4824<340.303 405.514 327.282 415.396> 510.98 0.886719 510.984 74.7959<281.54 337.3 337.3 345.54>
VStem: 44.7002 82.4707<235.86 354.757 235.86 375.375> 194.394 47.2393<254.875 321.787 254.875 336.781>
LayerCount: 2
Back
Fore
SplineSet
622.658203125 130.504882812 m 0xee
 637.01171875 150.815429688 554.434570312 3.5771484375 337.299804688 4.8369140625 c 0
 175.802734375 5.7744140625 44.7001953125 135.176757812 44.7001953125 295.30859375 c 0
 44.7001953125 455.440429688 175.799804688 585.780273438 337.299804688 585.780273438 c 0xee
 498.799804688 585.780273438 607.299804688 585.05859375 607.299804688 585.05859375 c 2
 622.299804688 585.05859375 635.299804688 568.908203125 635.299804688 548.008789062 c 0
 635.299804688 527.108398438 622.299804688 510.958984375 607.299804688 510.958984375 c 1
 561.305664062 288.331054688 l 2
 541.750976562 193.680664062 478.985351562 112.771484375 377.849609375 112.771484375 c 0
 276.713867188 112.771484375 194.393554688 191.430664062 194.393554688 288.331054688 c 0
 194.393554688 385.231445312 276.713867188 463.890625 377.849609375 463.890625 c 0
 433.177734375 463.890625 482.875 440.348632812 516.543945312 403.158203125 c 1
 541.627929688 441.4453125 490.383789062 491.641601562 429.279296875 510.98046875 c 1
 415.884765625 510.98046875 402.418945312 510.982421875 389.153320312 510.982421875 c 1
 400.493164062 511.23828125 413.109375 511.545898438 426.396484375 511.8671875 c 1xf6
 396.193359375 520.899414062 363.857421875 522.301757812 337.299804688 510.984375 c 1
 353.780273438 510.984375 371.28515625 510.982421875 389.153320312 510.982421875 c 1
 356.84375 510.256835938 334.893554688 509.958984375 337.299804688 510.984375 c 1
 225.780273438 510.984375 127.170898438 414.206054688 127.170898438 295.30859375 c 0
 127.170898438 176.411132812 225.84765625 83.5029296875 337.299804688 79.6328125 c 0
 482 74.6083984375 565.13671875 176.868164062 569 181.608398438 c 0
 578.475585938 193.235351562 598.291992188 188.702148438 615.138671875 176.33203125 c 0
 642 156.608398438 614.000976562 118.254882812 622.658203125 130.504882812 c 0xee
241.6328125 288.331054688 m 0
 241.6328125 221.418945312 302.756835938 162.25390625 377.849609375 162.25390625 c 0
 452.942382812 162.25390625 514.06640625 221.418945312 514.06640625 288.331054688 c 0
 514.06640625 355.243164062 452.942382812 414.408203125 377.849609375 414.408203125 c 0
 302.756835938 414.408203125 241.6328125 355.243164062 241.6328125 288.331054688 c 0
EndSplineSet
EndChar

StartChar: A
Encoding: 65 65 34
GlifName: A_
Width: 720
GlyphClass: 2
Flags: MW
HStem: 0 82.4707<297.422 406.107> 502.729 82.4707<297.422 422.578>
VStem: 54.2402 78.7324<236.839 348.359 236.839 373.35> 591.15 74.0996<2.9707 10.4707 2.9707 24.7627>
LayerCount: 2
Back
Fore
SplineSet
665.25 10.470703125 m 2
 665.25 -4.529296875 591.150390625 -5.529296875 591.150390625 9.470703125 c 0
 591.150390625 40.0546875 591.157226562 70.638671875 591.157226562 101.221679688 c 1
 535.04296875 39.236328125 452.213867188 0 360 0 c 0
 191.440429688 0 54.240234375 131.099609375 54.240234375 292.599609375 c 0
 54.240234375 454.099609375 191.440429688 585.19921875 360 585.19921875 c 0
 528.559570312 585.19921875 665.759765625 454.099609375 665.759765625 292.599609375 c 2
 665.25 10.470703125 l 2
132.97265625 292.599609375 m 0
 132.97265625 181.079101562 234.844726562 82.470703125 360 82.470703125 c 0
 485.155273438 82.470703125 587.02734375 181.079101562 587.02734375 292.599609375 c 0
 587.02734375 404.119140625 485.155273438 502.728515625 360 502.728515625 c 0
 234.844726562 502.728515625 132.97265625 404.119140625 132.97265625 292.599609375 c 0
EndSplineSet
EndChar

StartChar: B
Encoding: 66 66 35
GlifName: B_
Width: 723
GlyphClass: 2
Flags: MW
HStem: 0 82.4707<298.922 424.078 298.922 445.78> 502.729 82.4707<315.393 424.078>
VStem: 56.25 74.0996<718.729 726.229> 588.527 78.7324<236.84 348.36>
LayerCount: 2
Back
Fore
SplineSet
56.25 718.728515625 m 2
 56.25 733.728515625 130.349609375 734.728515625 130.349609375 719.728515625 c 0
 130.349609375 689.14453125 130.342773438 514.560546875 130.342773438 483.977539062 c 1
 186.45703125 545.962890625 269.286132812 585.19921875 361.5 585.19921875 c 0
 530.059570312 585.19921875 667.259765625 454.099609375 667.259765625 292.599609375 c 0
 667.259765625 131.099609375 530.059570312 0 361.5 0 c 0
 192.940429688 0 55.740234375 131.099609375 55.740234375 292.599609375 c 2
 56.25 718.728515625 l 2
588.52734375 292.599609375 m 0
 588.52734375 404.120117188 486.655273438 502.728515625 361.5 502.728515625 c 0
 236.344726562 502.728515625 134.47265625 404.120117188 134.47265625 292.599609375 c 0
 134.47265625 181.080078125 236.344726562 82.470703125 361.5 82.470703125 c 0
 486.655273438 82.470703125 588.52734375 181.080078125 588.52734375 292.599609375 c 0
EndSplineSet
EndChar

StartChar: C
Encoding: 67 67 36
GlifName: C_
Width: 684
GlyphClass: 2
Flags: MW
HStem: -0.171875 74.7959<283.54 395.06 283.54 420.05> 505.976 74.7959<283.54 395.06>
VStem: 46.7002 82.4707<230.851 349.749 230.851 370.366>
LayerCount: 2
Back
Fore
SplineSet
609.299804688 580.049804688 m 2
 624.299804688 580.049804688 637.299804688 563.899414062 637.299804688 543 c 0
 637.299804688 522.099609375 624.299804688 505.950195312 609.299804688 505.950195312 c 2
 609.299804688 505.950195312 450.8203125 505.975585938 339.299804688 505.975585938 c 0
 227.780273438 505.975585938 129.170898438 409.197265625 129.170898438 290.299804688 c 0
 129.170898438 171.40234375 227.780273438 74.6240234375 339.299804688 74.6240234375 c 0
 450.8203125 74.6240234375 609.299804688 74.6494140625 609.299804688 74.6494140625 c 2
 624.299804688 74.6494140625 637.299804688 58.5 637.299804688 37.599609375 c 0
 637.299804688 16.7001953125 624.299804688 0.5498046875 609.299804688 0.5498046875 c 2
 609.299804688 0.5498046875 500.799804688 -0.171875 339.299804688 -0.171875 c 0
 177.799804688 -0.171875 46.7001953125 130.16796875 46.7001953125 290.299804688 c 0
 46.7001953125 450.431640625 177.799804688 580.771484375 339.299804688 580.771484375 c 0
 500.799804688 580.771484375 609.299804688 580.049804688 609.299804688 580.049804688 c 2
EndSplineSet
EndChar

StartChar: D
Encoding: 68 68 37
GlifName: D_
Width: 721
GlyphClass: 2
Flags: MW
HStem: 0 82.4707<297.922 423.078 297.922 444.78> 502.729 82.4707<297.922 406.607 276.22 423.078>
VStem: 54.7402 78.7324<236.84 348.36 236.84 373.35> 591.657 74.6025
LayerCount: 2
Back
Fore
SplineSet
665.75 718.728515625 m 2
 666.259765625 292.599609375 l 2
 666.259765625 131.099609375 529.059570312 0 360.5 0 c 0
 191.940429688 0 54.740234375 131.099609375 54.740234375 292.599609375 c 0
 54.740234375 454.099609375 191.940429688 585.19921875 360.5 585.19921875 c 0
 452.713867188 585.19921875 535.54296875 545.962890625 591.657226562 483.977539062 c 1
 591.657226562 514.560546875 591.650390625 689.14453125 591.650390625 719.728515625 c 0
 591.650390625 734.728515625 665.75 733.728515625 665.75 718.728515625 c 2
133.47265625 292.599609375 m 0
 133.47265625 181.080078125 235.344726562 82.470703125 360.5 82.470703125 c 0
 485.655273438 82.470703125 587.52734375 181.080078125 587.52734375 292.599609375 c 0
 587.52734375 404.120117188 485.655273438 502.728515625 360.5 502.728515625 c 0
 235.344726562 502.728515625 133.47265625 404.120117188 133.47265625 292.599609375 c 0
EndSplineSet
EndChar

StartChar: E
Encoding: 69 69 38
GlifName: E_
Width: 677
GlyphClass: 2
Flags: W
LayerCount: 2
Back
Fore
SplineSet
627.412109375 156.776367188 m 0
 564.6328125 95 580.690429688 95.638671875 492.154296875 40.6015625 c 0
 361.912109375 -40.361328125 161.80859375 -3.7431640625 81.05859375 136.120117188 c 0
 0.30859375 275.983398438 53.578125 458.119140625 199.5546875 542.3984375 c 0
 318.849609375 611.274414062 463.78515625 593.852539062 556.854492188 508.848632812 c 0
 577.669921875 489.836914062 629.854492188 454 606.854492188 433 c 0
 544.359375 372.814453125 478.676757812 316.206054688 410.854492188 262 c 0
 399.034179688 252.764648438 376.467773438 249.096679688 363.600585938 265.56640625 c 0
 350.733398438 282.036132812 351.643554688 302.03515625 362.854492188 312 c 0
 389.854492188 336 526.51171875 439.174804688 502.854492188 450.366210938 c 0
 422.528320312 488.362304688 328.700195312 521.732421875 240.790039062 470.9765625 c 0
 132.40234375 408.399414062 93.4833984375 272.065429688 149.243164062 175.486328125 c 0
 205.002929688 78.90625 353.626953125 28.294921875 450.918945312 107.0234375 c 2
 573.465820312 206.1875 l 2
 585.126953125 215.624023438 602.79296875 218.373046875 618.854492188 205 c 0
 634.916992188 191.626953125 638.102539062 167.295898438 627.412109375 156.776367188 c 0
EndSplineSet
AlternateSubs2: "'salt' Stylistic Alternatives in Latin lookup 0 subtable" uniE00A
EndChar

StartChar: F
Encoding: 70 70 39
GlifName: F_
Width: 685
GlyphClass: 2
Flags: MW
HStem: 279 74.0996<178.5 561 186 561> 505.976 74.7959<284.04 395.56>
VStem: 55.9502 74.0996<28 28>
LayerCount: 2
Back
Fore
SplineSet
561 279 m 2
 186 279 l 2
 171 279 158 295.150390625 158 316.049804688 c 0
 158 336.950195312 171.20703125 353.100585938 186 353.099609375 c 2
 186 353.099609375 560.842773438 353.307617188 561 353.099609375 c 0
 576 353.099609375 589 336.950195312 589 316.049804688 c 0
 589 295.150390625 576 279.42578125 561 279 c 2
130.049804688 28 m 1
 130 13 113.900390625 0 93 0 c 0
 72.1005859375 0 56 13 55.9501953125 28 c 1
 56 28 47.2001953125 290.299804688 47.2001953125 290.299804688 c 1
 57.6796875 450.087890625 178.299804688 580.771484375 339.799804688 580.771484375 c 0
 501.299804688 580.771484375 609.799804688 580.049804688 609.799804688 580.049804688 c 2
 624.799804688 580.049804688 637.799804688 563.899414062 637.799804688 543 c 0
 637.799804688 522.099609375 624.799804688 505.950195312 609.799804688 505.950195312 c 2
 609.799804688 505.950195312 451.3203125 505.975585938 339.799804688 505.975585938 c 0
 228.280273438 505.975585938 129.670898438 409.197265625 129.670898438 290.299804688 c 0
 129.670898438 171.40234375 130 28 130.049804688 28 c 1
EndSplineSet
EndChar

StartChar: G
Encoding: 71 71 40
GlifName: G_
Width: 701
GlyphClass: 2
Flags: MW
HStem: -0.171875 74.7959<292.04 384.775 292.04 428.55> 505.976 74.7959<292.04 403.56>
VStem: 55.2002 82.4707<230.851 349.749 230.851 370.366> 571.696 74.1035<37.5996 74.6426>
LayerCount: 2
Back
Fore
SplineSet
617.799804688 580.049804688 m 2
 632.799804688 580.049804688 645.799804688 563.899414062 645.799804688 543 c 0
 645.799804688 522.099609375 632.799804688 505.950195312 617.799804688 505.950195312 c 2
 617.799804688 505.950195312 459.3203125 505.975585938 347.799804688 505.975585938 c 0
 236.280273438 505.975585938 137.670898438 409.197265625 137.670898438 290.299804688 c 0
 137.670898438 171.40234375 236.280273438 74.6240234375 347.799804688 74.6240234375 c 0
 421.750976562 74.6240234375 516.3515625 74.634765625 571.696289062 74.642578125 c 1
 571.674804688 308.599609375 l 2
 571.673828125 323.599609375 587.82421875 336.599609375 608.724609375 336.599609375 c 0
 629.624023438 336.599609375 645.774414062 323.599609375 645.774414062 308.599609375 c 2
 645.799804688 37.599609375 l 2
 645.788085938 16.685546875 632.79296875 0.5498046875 617.799804688 0.5498046875 c 2
 617.799804688 0.5498046875 509.299804688 -0.171875 347.799804688 -0.171875 c 0
 186.299804688 -0.171875 55.2001953125 130.16796875 55.2001953125 290.299804688 c 0
 55.2001953125 450.431640625 186.299804688 580.771484375 347.799804688 580.771484375 c 0
 509.299804688 580.771484375 617.799804688 580.049804688 617.799804688 580.049804688 c 2
EndSplineSet
AlternateSubs2: "'salt' Stylistic Alternatives in Latin lookup 0 subtable" uniE003
EndChar

StartChar: H
Encoding: 72 72 41
GlifName: H_
Width: 663
GlyphClass: 2
Flags: MW
HStem: 400.129 82.4707<286.833 388.949>
VStem: 57.9395 74.1562 531.176 74.7959<134.24 245.76>
LayerCount: 2
Back
Fore
SplineSet
94.7998046875 0 m 2
 73.900390625 0 57.75 13 57.75 28 c 2
 57.75 28 57.0283203125 28.5 57.0283203125 190 c 0
 57.0283203125 197.844726562 57.3359375 205.6171875 57.939453125 213.306640625 c 0
 57.8974609375 377.00390625 57.8681640625 589.903320312 57.99609375 590 c 0
 57.99609375 605 74.1455078125 618 95.0458984375 618 c 0
 115.9453125 618 131.669921875 605 132.095703125 590 c 2
 132.095703125 386.150390625 l 1
 185.29296875 445.370117188 244.166015625 482.599609375 329.5 482.599609375 c 0
 489.631835938 482.599609375 605.971679688 351.5 605.971679688 190 c 0
 605.971679688 28.5 605.25 28 605.25 28 c 2
 605.25 13 589.099609375 0 568.200195312 0 c 0
 547.299804688 0 531.150390625 13 531.150390625 28 c 2
 531.150390625 28 531.17578125 78.4794921875 531.17578125 190 c 0
 531.17578125 301.51953125 448.397460938 400.12890625 329.5 400.12890625 c 0
 214.252929688 400.12890625 137.787109375 307.481445312 132.095703125 200.232421875 c 1
 132.095703125 28 l 2
 132.095703125 13 115.9453125 0 95.0458984375 0 c 2
 94.7998046875 0 l 2
EndSplineSet
AlternateSubs2: "'salt' Stylistic Alternatives in Latin lookup 0 subtable" uniE004
EndChar

StartChar: I
Encoding: 73 73 42
GlifName: I_
Width: 197
GlyphClass: 2
Flags: MW
VStem: 61.4961 74.0996<28 562>
LayerCount: 2
Back
Fore
SplineSet
135.595703125 562 m 2
 135.595703125 28 l 2
 135.595703125 13 119.4453125 0 98.5458984375 0 c 0
 77.6455078125 0 61.4951171875 13.20703125 61.49609375 28 c 2
 61.49609375 28 61.2880859375 561.842773438 61.49609375 562 c 0
 61.49609375 577 77.6455078125 590 98.5458984375 590 c 0
 119.4453125 590 135.169921875 577 135.595703125 562 c 2
EndSplineSet
EndChar

StartChar: J
Encoding: 74 74 43
GlifName: J_
Width: 691
GlyphClass: 2
Flags: MW
HStem: 0 74.7959<292.44 403.96 292.44 428.95>
VStem: 557.95 74.0996<552 552> 558.329 82.4707<290.472 290.472 290.472 349.92>
LayerCount: 2
Back
Fore
SplineSet
557.950195312 552.771484375 m 1xc0
 558 567.771484375 574.099609375 580.771484375 595 580.771484375 c 0
 615.899414062 580.771484375 632 567.771484375 632.049804688 552.771484375 c 1xc0
 632 552.771484375 640.799804688 290.471679688 640.799804688 290.471679688 c 1
 630.3203125 130.68359375 509.700195312 0 348.200195312 0 c 0
 186.700195312 0 78.2001953125 0.7216796875 78.2001953125 0.7216796875 c 2
 63.2001953125 0.7216796875 50.2001953125 16.8720703125 50.2001953125 37.771484375 c 0
 50.2001953125 58.671875 63.2001953125 74.8212890625 78.2001953125 74.8212890625 c 2
 78.2001953125 74.8212890625 236.6796875 74.7958984375 348.200195312 74.7958984375 c 0
 459.719726562 74.7958984375 558.329101562 171.57421875 558.329101562 290.471679688 c 0xa0
 558.329101562 409.369140625 558 552.771484375 557.950195312 552.771484375 c 1xc0
EndSplineSet
EndChar

StartChar: K
Encoding: 75 75 44
GlifName: K_
Width: 571
GlyphClass: 2
Flags: MW
VStem: 47.6318 74.0996<138.338 590 138.338 590 138.338 597.5>
LayerCount: 2
Back
Fore
SplineSet
520.56640625 28 m 0
 529.486328125 13.20703125 517.26171875 0 491.135742188 0 c 0
 465.01171875 0 436.985351562 13 427.94140625 28 c 2
 290.453125 264.474609375 l 1
 147.875976562 28 l 2
 138.83203125 13 110.805664062 0 84.681640625 0 c 0
 68.185546875 0 57.2314453125 5.265625 53.642578125 12.8701171875 c 0
 49.8251953125 17.310546875 47.6318359375 22.546875 47.6318359375 28 c 2
 47.6318359375 28 47.423828125 589.842773438 47.6318359375 590 c 0
 47.6318359375 605 63.78125 618 84.681640625 618 c 0
 105.581054688 618 121.305664062 605 121.731445312 590 c 2
 121.731445312 138.337890625 l 1
 157.125976562 197.079101562 202.174804688 271.8359375 245.396484375 343.544921875 c 1
 243.431640625 351.471679688 247.58984375 358.41015625 256.763671875 362.403320312 c 1
 329.44140625 482.977539062 393.940429688 589.931640625 394.095703125 590 c 0
 403.139648438 605 431.1640625 618 457.290039062 618 c 0
 483.4140625 618 495.232421875 605 486.720703125 590 c 2
 337.294921875 342.166015625 l 2
 338.815429688 340.388671875 518.676757812 31.25 520.56640625 28 c 0
EndSplineSet
EndChar

StartChar: L
Encoding: 76 76 45
GlifName: L_
Width: 681
GlyphClass: 2
Flags: MW
HStem: 0 74.7959<282.04 393.56 282.04 418.55>
VStem: 45.2002 82.4707<290.472 290.472> 53.9502 73.7207
LayerCount: 2
Back
Fore
SplineSet
128.049804688 552.771484375 m 1xa0
 128 552.771484375 127.670898438 409.369140625 127.670898438 290.471679688 c 0
 127.670898438 171.57421875 226.280273438 74.7958984375 337.799804688 74.7958984375 c 0
 449.3203125 74.7958984375 607.799804688 74.8212890625 607.799804688 74.8212890625 c 2
 622.799804688 74.8212890625 635.799804688 58.671875 635.799804688 37.771484375 c 0
 635.799804688 16.8720703125 622.799804688 0.7216796875 607.799804688 0.7216796875 c 2
 607.799804688 0.7216796875 499.299804688 0 337.799804688 0 c 0
 176.299804688 0 55.6796875 130.68359375 45.2001953125 290.471679688 c 1xc0
 53.9501953125 552.771484375 l 2
 54 567.771484375 70.1005859375 580.771484375 91 580.771484375 c 0
 111.900390625 580.771484375 128 567.771484375 128.049804688 552.771484375 c 1xa0
EndSplineSet
EndChar

StartChar: M
Encoding: 77 77 46
GlifName: M_
Width: 1066
GlyphClass: 2
Flags: MW
HStem: 508.129 82.4707<255.978 369.634 235.36 374.875 697.366 811.022>
VStem: 58.9551 74.7949<242.24 353.76 242.24 378.75> 496.102 74.7969<242.24 353.76> 932.25 74.7949<242.24 353.76>
LayerCount: 2
Back
Fore
SplineSet
1006.32421875 28 m 2
 1006.32421875 13 990.173828125 0 969.2734375 0 c 0
 948.373046875 0 932.224609375 13 932.224609375 28 c 2
 932.224609375 28 932.25 186.479492188 932.25 298 c 0
 932.25 409.51953125 870.470703125 508.12890625 751.57421875 508.12890625 c 0
 632.67578125 508.12890625 570.8984375 409.51953125 570.8984375 298 c 0
 570.8984375 186.479492188 570.923828125 28 570.923828125 28 c 2
 570.923828125 13 554.7734375 0 533.873046875 0 c 0
 533.749023438 0 533.624023438 0.0009765625 533.5 0.0009765625 c 0
 533.375 0.0009765625 533.250976562 0 533.126953125 0 c 0
 512.2265625 0 496.076171875 13 496.076171875 28 c 2
 496.076171875 28 496.1015625 186.479492188 496.1015625 298 c 0
 496.1015625 409.51953125 434.32421875 508.12890625 315.42578125 508.12890625 c 0
 196.529296875 508.12890625 133.75 409.51953125 133.75 298 c 0
 133.75 186.479492188 133.775390625 28 133.775390625 28 c 2
 133.775390625 13 117.626953125 0 96.7265625 0 c 0
 75.826171875 0 59.67578125 13 59.67578125 28 c 2
 59.67578125 28 58.955078125 136.5 58.955078125 298 c 0
 58.955078125 459.5 155.294921875 590.599609375 315.42578125 590.599609375 c 0
 423.841796875 590.599609375 483.600585938 530.505859375 533.5 441.5703125 c 1
 583.399414062 530.505859375 643.158203125 590.599609375 751.57421875 590.599609375 c 0
 911.705078125 590.599609375 1007.04492188 459.5 1007.04492188 298 c 0
 1007.04492188 136.5 1006.32421875 28 1006.32421875 28 c 2
EndSplineSet
EndChar

StartChar: N
Encoding: 78 78 47
GlifName: N_
Width: 699
GlyphClass: 2
Flags: MW
HStem: 508.129 82.4707<290.051 408.949>
VStem: 59.0283 74.7959<242.24 353.76 242.24 378.75> 565.176 74.7959<242.24 353.76>
LayerCount: 2
Back
Fore
SplineSet
639.25 28 m 2
 639.25 13 623.099609375 0 602.200195312 0 c 0
 581.299804688 0 565.150390625 13 565.150390625 28 c 2
 565.150390625 28 565.17578125 186.479492188 565.17578125 298 c 0
 565.17578125 409.51953125 468.397460938 508.12890625 349.5 508.12890625 c 0
 230.602539062 508.12890625 133.82421875 409.51953125 133.82421875 298 c 0
 133.82421875 186.479492188 133.849609375 28 133.849609375 28 c 2
 133.849609375 13 117.700195312 0 96.7998046875 0 c 0
 75.900390625 0 59.75 13 59.75 28 c 2
 59.75 28 59.0283203125 136.5 59.0283203125 298 c 0
 59.0283203125 459.5 189.368164062 590.599609375 349.5 590.599609375 c 0
 509.631835938 590.599609375 639.971679688 459.5 639.971679688 298 c 0
 639.971679688 136.5 639.25 28 639.25 28 c 2
EndSplineSet
EndChar

StartChar: O
Encoding: 79 79 48
GlifName: O_
Width: 716
GlyphClass: 2
Flags: MW
HStem: 0 82.4707<295.422 420.578 295.422 442.28> 502.729 82.4707<295.422 420.578>
VStem: 52.2402 78.7324<236.839 348.359 236.839 373.35> 585.027 78.7324<236.839 348.359>
LayerCount: 2
Back
Fore
SplineSet
130.97265625 292.599609375 m 0
 130.97265625 181.079101562 232.844726562 82.470703125 358 82.470703125 c 0
 483.155273438 82.470703125 585.02734375 181.079101562 585.02734375 292.599609375 c 0
 585.02734375 404.119140625 483.155273438 502.728515625 358 502.728515625 c 0
 232.844726562 502.728515625 130.97265625 404.119140625 130.97265625 292.599609375 c 0
52.240234375 292.599609375 m 0
 52.240234375 454.099609375 189.440429688 585.19921875 358 585.19921875 c 0
 526.559570312 585.19921875 663.759765625 454.099609375 663.759765625 292.599609375 c 0
 663.759765625 131.099609375 526.559570312 0 358 0 c 0
 189.440429688 0 52.240234375 131.099609375 52.240234375 292.599609375 c 0
EndSplineSet
EndChar

StartChar: P
Encoding: 80 80 49
GlifName: P_
Width: 726
GlyphClass: 2
Flags: MW
HStem: 0 82.4707<316.893 425.578 300.422 447.28> 502.729 82.4707<300.422 425.578>
VStem: 57.75 74.0996<-103.029 -95.5293> 590.027 78.7324<236.839 348.359>
LayerCount: 2
Back
Fore
SplineSet
57.75 -95.529296875 m 2
 57.240234375 292.599609375 l 2
 57.240234375 454.099609375 194.440429688 585.19921875 363 585.19921875 c 0
 531.559570312 585.19921875 668.759765625 454.099609375 668.759765625 292.599609375 c 0
 668.759765625 131.099609375 531.559570312 0 363 0 c 0
 270.786132812 0 187.95703125 39.236328125 131.842773438 101.221679688 c 1
 131.842773438 70.638671875 131.849609375 -65.9453125 131.849609375 -96.529296875 c 0
 131.849609375 -111.529296875 57.75 -110.529296875 57.75 -95.529296875 c 2
590.02734375 292.599609375 m 0
 590.02734375 404.119140625 488.155273438 502.728515625 363 502.728515625 c 0
 237.844726562 502.728515625 135.97265625 404.119140625 135.97265625 292.599609375 c 0
 135.97265625 181.079101562 237.844726562 82.470703125 363 82.470703125 c 0
 488.155273438 82.470703125 590.02734375 181.079101562 590.02734375 292.599609375 c 0
EndSplineSet
EndChar

StartChar: Q
Encoding: 81 81 50
GlifName: Q_
Width: 720
GlyphClass: 2
Flags: MW
HStem: 0 82.4707<297.422 406.107> 502.729 82.4707<297.422 422.578>
VStem: 54.2402 78.7324<236.839 348.359 236.839 373.35> 591.15 74.0996<-103.029 -95.5293 -103.029 -81.2373>
LayerCount: 2
Back
Fore
SplineSet
665.25 -95.529296875 m 2
 665.25 -110.529296875 591.150390625 -111.529296875 591.150390625 -96.529296875 c 0
 591.150390625 -65.9453125 591.157226562 70.638671875 591.157226562 101.221679688 c 1
 535.04296875 39.236328125 452.213867188 0 360 0 c 0
 191.440429688 0 54.240234375 131.099609375 54.240234375 292.599609375 c 0
 54.240234375 454.099609375 191.440429688 585.19921875 360 585.19921875 c 0
 528.559570312 585.19921875 665.759765625 454.099609375 665.759765625 292.599609375 c 2
 665.25 -95.529296875 l 2
132.97265625 292.599609375 m 0
 132.97265625 181.079101562 234.844726562 82.470703125 360 82.470703125 c 0
 485.155273438 82.470703125 587.02734375 181.079101562 587.02734375 292.599609375 c 0
 587.02734375 404.119140625 485.155273438 502.728515625 360 502.728515625 c 0
 234.844726562 502.728515625 132.97265625 404.119140625 132.97265625 292.599609375 c 0
EndSplineSet
EndChar

StartChar: R
Encoding: 82 82 51
GlifName: R_
Width: 686
GlyphClass: 2
Flags: MW
HStem: 505.976 74.7959<284.54 396.06>
VStem: 56.4502 74.0996<28 28>
LayerCount: 2
Back
Fore
SplineSet
130.549804688 28 m 1
 130.5 13 114.400390625 0 93.5 0 c 0
 72.6005859375 0 56.5 13 56.4501953125 28 c 1
 56.5 28 47.7001953125 290.299804688 47.7001953125 290.299804688 c 1
 58.1796875 450.087890625 178.799804688 580.771484375 340.299804688 580.771484375 c 0
 501.799804688 580.771484375 610.299804688 580.049804688 610.299804688 580.049804688 c 2
 625.299804688 580.049804688 638.299804688 563.899414062 638.299804688 543 c 0
 638.299804688 522.099609375 625.299804688 505.950195312 610.299804688 505.950195312 c 2
 610.299804688 505.950195312 451.8203125 505.975585938 340.299804688 505.975585938 c 0
 228.780273438 505.975585938 130.170898438 409.197265625 130.170898438 290.299804688 c 0
 130.170898438 171.40234375 130.5 28 130.549804688 28 c 1
EndSplineSet
EndChar

StartChar: S
Encoding: 83 83 52
GlifName: S_
Width: 697
GlyphClass: 2
Flags: MW
HStem: 0 74.7959<296.74 408.26 296.74 433.25> 251.426 74.7959<213.5 213.5 213.5 294.25> 503.573 74.7959<288.74 400.26>
VStem: 51.9004 82.4707<392.949 436.846 392.949 471.963> 562.629 82.4707<141.523 185.42>
LayerCount: 2
Back
Fore
SplineSet
483.5 326.943359375 m 0
 557 326.943359375 645.099609375 343.603515625 645.099609375 184.471679688 c 0
 645.099609375 28.33984375 514 0 352.5 0 c 0
 191 0 82.5 0.7216796875 82.5 0.7216796875 c 2
 67.5 0.7216796875 54.5 16.8720703125 54.5 37.771484375 c 0
 54.5 58.671875 67.5 74.8212890625 82.5 74.8212890625 c 2
 82.5 74.8212890625 240.979492188 74.7958984375 352.5 74.7958984375 c 0
 464.01953125 74.7958984375 562.62890625 98.57421875 562.62890625 184.471679688 c 0
 562.62890625 186.369140625 584 252.291992188 483.5 252.147460938 c 0
 483 252.291992188 375 251.42578125 213.5 251.42578125 c 0
 140 251.42578125 51.900390625 234.765625 51.900390625 393.897460938 c 0
 51.900390625 550.029296875 183 578.369140625 344.5 578.369140625 c 0
 506 578.369140625 614.5 577.647460938 614.5 577.647460938 c 2
 629.5 577.647460938 642.5 561.497070312 642.5 540.59765625 c 0
 642.5 519.697265625 629.5 503.547851562 614.5 503.547851562 c 2
 614.5 503.547851562 456.020507812 503.573242188 344.5 503.573242188 c 0
 232.98046875 503.573242188 134.37109375 479.794921875 134.37109375 393.897460938 c 0
 134.37109375 392 113.000976562 325.953125 213.5 326.221679688 c 2
 213.5 326.221679688 322 326.943359375 483.5 326.943359375 c 0
EndSplineSet
AlternateSubs2: "'salt' Stylistic Alternatives in Latin lookup 0 subtable" uniE016
EndChar

StartChar: T
Encoding: 84 84 53
GlifName: T_
Width: 584
GlyphClass: 2
Flags: MW
HStem: 515.882 74.168<329.05 329.05>
VStem: 254.95 74.0996<20.5 28>
LayerCount: 2
Back
Fore
SplineSet
67 590.049804688 m 2
 278.401367188 590.049804688 l 2
 282.5859375 591.3046875 287.166015625 592 292 592 c 0
 296.833984375 592 301.390625 591.3046875 305.545898438 590.049804688 c 2
 517 590.049804688 l 2
 532 590.049804688 545 573.899414062 545 553 c 0
 545 532.099609375 531.79296875 515.94921875 517 515.950195312 c 2
 517 515.950195312 427.93359375 515.909179688 329.049804688 515.881835938 c 1
 329.049804688 28 l 2
 329.049804688 13 312.899414062 0 292 0 c 0
 271.099609375 0 254.94921875 13.20703125 254.950195312 28 c 2
 254.950195312 28 254.810546875 379.770507812 254.875 515.864257812 c 1
 156.059570312 515.84765625 67.0703125 515.857421875 67 515.950195312 c 0
 52 515.950195312 39 532.099609375 39 553 c 0
 39 573.899414062 52 589.624023438 67 590.049804688 c 2
EndSplineSet
EndChar

StartChar: U
Encoding: 85 85 54
GlifName: U_
Width: 696
GlyphClass: 2
Flags: MW
HStem: 0 82.4707<288.551 407.449 288.551 428.066>
VStem: 57.5283 74.7959<236.84 348.36 236.84 373.35> 563.676 74.7959<236.84 348.36>
LayerCount: 2
Back
Fore
SplineSet
637.75 562.599609375 m 2
 637.75 562.599609375 638.471679688 454.099609375 638.471679688 292.599609375 c 0
 638.471679688 131.099609375 508.131835938 0 348 0 c 0
 187.868164062 0 57.5283203125 131.099609375 57.5283203125 292.599609375 c 0
 57.5283203125 454.099609375 58.25 562.599609375 58.25 562.599609375 c 2
 58.25 577.599609375 74.400390625 590.599609375 95.2998046875 590.599609375 c 0
 116.200195312 590.599609375 132.349609375 577.599609375 132.349609375 562.599609375 c 2
 132.349609375 562.599609375 132.32421875 404.120117188 132.32421875 292.599609375 c 0
 132.32421875 181.080078125 229.102539062 82.470703125 348 82.470703125 c 0
 466.897460938 82.470703125 563.67578125 181.080078125 563.67578125 292.599609375 c 0
 563.67578125 404.120117188 563.650390625 562.599609375 563.650390625 562.599609375 c 2
 563.650390625 577.599609375 579.799804688 590.599609375 600.700195312 590.599609375 c 0
 621.599609375 590.599609375 637.75 577.599609375 637.75 562.599609375 c 2
EndSplineSet
EndChar

StartChar: V
Encoding: 86 86 55
GlifName: V_
Width: 592
GlyphClass: 2
Flags: MW
HStem: -0.72168 0.72168<244.969 255.419 244.969 332.169> 0 74.0742<251.419 251.827 251.419 255.419>
VStem: 461.169 74.0996<552 552> 461.548 82.4707<289.75 289.75 289.75 349.199>
LayerCount: 2
Back
Fore
SplineSet
253.8671875 74.08984375 m 2x40
 251.418945312 74.07421875 l 2
 252.235351562 74.07421875 253.051757812 74.08984375 253.8671875 74.08984375 c 2x40
49.220703125 552 m 2
 44.1259765625 567 55.06640625 580 75.9658203125 580 c 0
 96.8662109375 580 117.799804688 567 123.3203125 552 c 0
 123.538085938 551.872070312 229.109375 203.23828125 268 74.787109375 c 1
 372.530273438 83.783203125 461.547851562 176.783203125 461.547851562 289.75 c 0x90
 461.547851562 408.647460938 461.21875 552.049804688 461.168945312 552.049804688 c 1
 461.21875 567.049804688 477.318359375 580.049804688 498.21875 580.049804688 c 0
 519.118164062 580.049804688 535.21875 567.049804688 535.268554688 552.049804688 c 1xa0
 535.21875 552.049804688 544.018554688 289.75 544.018554688 289.75 c 1
 533.5390625 129.961914062 412.918945312 -0.7216796875 251.418945312 -0.7216796875 c 0
 89.9189453125 -0.7216796875 255.418945312 0 255.418945312 0 c 2x90
 234.51953125 0 213.584960938 13 208.064453125 28 c 2
 49.220703125 552 l 2
EndSplineSet
AlternateSubs2: "'salt' Stylistic Alternatives in Latin lookup 0 subtable" uniE015
EndChar

StartChar: W
Encoding: 87 87 56
GlifName: W_
Width: 1064
GlyphClass: 2
Flags: MW
HStem: 0 82.4707<253.978 367.634 695.366 809.022>
VStem: 57.9551 74.7949<236.84 348.36 236.84 373.35> 494.102 74.7969<236.84 348.36> 931.25 74.7949<236.84 348.36>
LayerCount: 2
Back
Fore
SplineSet
58.67578125 562.599609375 m 2
 58.67578125 577.599609375 74.826171875 590.599609375 95.7265625 590.599609375 c 0
 116.626953125 590.599609375 132.775390625 577.599609375 132.775390625 562.599609375 c 2
 132.775390625 562.599609375 132.75 404.120117188 132.75 292.599609375 c 0
 132.75 181.080078125 194.529296875 82.470703125 313.42578125 82.470703125 c 0
 432.32421875 82.470703125 494.1015625 181.080078125 494.1015625 292.599609375 c 0
 494.1015625 404.120117188 494.076171875 562.599609375 494.076171875 562.599609375 c 2
 494.076171875 577.599609375 510.2265625 590.599609375 531.126953125 590.599609375 c 0
 531.250976562 590.599609375 531.375976562 590.598632812 531.5 590.598632812 c 0
 531.625 590.598632812 531.749023438 590.599609375 531.873046875 590.599609375 c 0
 552.7734375 590.599609375 568.923828125 577.599609375 568.923828125 562.599609375 c 2
 568.923828125 562.599609375 568.8984375 404.120117188 568.8984375 292.599609375 c 0
 568.8984375 181.080078125 630.67578125 82.470703125 749.57421875 82.470703125 c 0
 868.470703125 82.470703125 931.25 181.080078125 931.25 292.599609375 c 0
 931.25 404.120117188 931.224609375 562.599609375 931.224609375 562.599609375 c 2
 931.224609375 577.599609375 947.373046875 590.599609375 968.2734375 590.599609375 c 0
 989.173828125 590.599609375 1005.32421875 577.599609375 1005.32421875 562.599609375 c 2
 1005.32421875 562.599609375 1006.04492188 454.099609375 1006.04492188 292.599609375 c 0
 1006.04492188 131.099609375 909.705078125 0 749.57421875 0 c 0
 641.158203125 0 581.399414062 60.09375 531.5 149.029296875 c 1
 481.600585938 60.09375 421.841796875 0 313.42578125 0 c 0
 153.294921875 0 57.955078125 131.099609375 57.955078125 292.599609375 c 0
 57.955078125 454.099609375 58.67578125 562.599609375 58.67578125 562.599609375 c 2
EndSplineSet
EndChar

StartChar: X
Encoding: 88 88 57
GlifName: X_
Width: 630
GlyphClass: 2
Flags: W
LayerCount: 2
Back
Fore
SplineSet
586.900390625 562 m 2
 361.354492188 295.049804688 l 1
 474.133789062 161.533203125 586.900390625 28 586.900390625 28 c 2
 596.14453125 13.20703125 584.2109375 0 558.083984375 0 c 0
 531.9609375 0 503.6484375 13 494.275390625 28 c 2
 315 240.185546875 l 1
 135.724609375 28 l 2
 126.3515625 13 98.0390625 0 71.916015625 0 c 0
 45.7890625 0 33.85546875 13.20703125 43.099609375 28 c 2
 43.099609375 28 155.865234375 161.533203125 268.645507812 295.049804688 c 1
 43.099609375 562 l 2
 34.2578125 577 45.791015625 590 71.916015625 590 c 0
 98.041015625 590 126.3515625 577 135.724609375 562 c 0
 135.877929688 561.932617188 219.673828125 462.76953125 315 349.92578125 c 1
 410.325195312 462.76953125 494.12109375 561.932617188 494.275390625 562 c 0
 503.6484375 577 531.958984375 590 558.083984375 590 c 0
 584.208984375 590 595.7421875 577 586.900390625 562 c 2
EndSplineSet
EndChar

StartChar: Y
Encoding: 89 89 58
GlifName: Y_
Width: 661
GlyphClass: 2
Flags: MW
HStem: -65.3223 74.7959<264.394 375.914 264.394 400.904> 108 82.4707<273.051 375.167>
VStem: 56.0283 74.7959<344.84 456.36 344.84 481.35> 529.904 75.0674<396.677 481.35 396.677 562.6>
LayerCount: 2
Back
Fore
SplineSet
567.200195312 590.599609375 m 2
 588.099609375 590.599609375 604.25 577.599609375 604.25 562.599609375 c 2
 604.25 562.599609375 604.971679688 562.099609375 604.971679688 400.599609375 c 0
 604.971679688 392.754882812 604.6640625 384.982421875 604.060546875 377.29296875 c 0
 604.102539062 213.595703125 604.131835938 185.696289062 604.00390625 185.599609375 c 0
 612.524414062 6.8115234375 481.654296875 -65.322265625 320.154296875 -65.322265625 c 0
 158.654296875 -65.322265625 197.154296875 -64.6005859375 197.154296875 -64.6005859375 c 2
 182.154296875 -64.6005859375 169.154296875 -48.4501953125 169.154296875 -27.55078125 c 0
 169.154296875 -6.650390625 182.154296875 9.4990234375 197.154296875 9.4990234375 c 2
 197.154296875 9.4990234375 208.633789062 9.4736328125 320.154296875 9.4736328125 c 0
 431.673828125 9.4736328125 530.283203125 48.251953125 530.283203125 167.149414062 c 0
 530.283203125 172.541992188 530.28125 177.522460938 530.28125 182.116210938 c 0
 530.064453125 183.26171875 529.9375 184.424804688 529.904296875 185.599609375 c 2
 529.904296875 204.44921875 l 1
 476.70703125 145.229492188 417.833984375 108 332.5 108 c 0
 172.368164062 108 56.0283203125 239.099609375 56.0283203125 400.599609375 c 0
 56.0283203125 562.099609375 56.75 562.599609375 56.75 562.599609375 c 2
 56.75 577.599609375 72.900390625 590.599609375 93.7998046875 590.599609375 c 0
 114.700195312 590.599609375 130.849609375 577.599609375 130.849609375 562.599609375 c 2
 130.849609375 562.599609375 130.82421875 512.120117188 130.82421875 400.599609375 c 0
 130.82421875 289.080078125 213.602539062 190.470703125 332.5 190.470703125 c 0
 447.747070312 190.470703125 524.212890625 283.118164062 529.904296875 390.3671875 c 1
 529.904296875 562.599609375 l 2
 529.904296875 577.599609375 546.0546875 590.599609375 566.954101562 590.599609375 c 2
 567.200195312 590.599609375 l 2
530.262695312 208.25 m 0
 530.194335938 260.0859375 529.974609375 210.888671875 529.9140625 205.008789062 c 1
 529.946289062 206.102539062 530.064453125 207.18359375 530.262695312 208.25 c 0
EndSplineSet
AlternateSubs2: "'salt' Stylistic Alternatives in Latin lookup 0 subtable" uniE00D
EndChar

StartChar: Z
Encoding: 90 90 59
GlifName: Z_
Width: 699
GlyphClass: 2
Flags: MW
HStem: 0 74.7959<289.74 401.26 289.74 426.25> 252.147 74.7959<214 214> 503.573 74.7959<297.74 409.26>
VStem: 52.9004 82.4707<141.523 185.42 141.523 264.038> 563.629 82.4707<392.949 436.846>
LayerCount: 2
Back
Fore
SplineSet
214.5 326.943359375 m 0
 376 326.943359375 484.5 326.221679688 484.5 326.221679688 c 2
 584.999023438 325.953125 563.62890625 392 563.62890625 393.897460938 c 0
 563.62890625 479.794921875 465.01953125 503.573242188 353.5 503.573242188 c 0
 241.979492188 503.573242188 83.5 503.547851562 83.5 503.547851562 c 2
 68.5 503.547851562 55.5 519.697265625 55.5 540.59765625 c 0
 55.5 561.497070312 68.5 577.647460938 83.5 577.647460938 c 2
 83.5 577.647460938 192 578.369140625 353.5 578.369140625 c 0
 515 578.369140625 646.099609375 550.029296875 646.099609375 393.897460938 c 0
 646.099609375 234.765625 558 251.42578125 484.5 251.42578125 c 0
 323 251.42578125 215 252.291992188 214.5 252.147460938 c 0
 114 252.291992188 135.37109375 186.369140625 135.37109375 184.471679688 c 0
 135.37109375 98.57421875 233.98046875 74.7958984375 345.5 74.7958984375 c 0
 457.020507812 74.7958984375 615.5 74.8212890625 615.5 74.8212890625 c 2
 630.5 74.8212890625 643.5 58.671875 643.5 37.771484375 c 0
 643.5 16.8720703125 630.5 0.7216796875 615.5 0.7216796875 c 2
 615.5 0.7216796875 507 0 345.5 0 c 0
 184 0 52.900390625 28.33984375 52.900390625 184.471679688 c 0
 52.900390625 343.603515625 141 326.943359375 214.5 326.943359375 c 0
EndSplineSet
AlternateSubs2: "'salt' Stylistic Alternatives in Latin lookup 0 subtable" uniE017
EndChar

StartChar: bracketleft
Encoding: 91 91 60
GlifName: bracketleft
Width: 353
GlyphClass: 2
Flags: MW
HStem: -0.171875 0.696289<238.911 246.411 238.911 319.661> 505.976 74.7959<183.151 246.411> 580.075 0.696289<238.911 246.411>
VStem: 42.3115 82.4707<230.851 349.749 230.851 370.366>
LayerCount: 2
Back
Fore
SplineSet
238.911132812 580.075195312 m 1xb0
 253.911132812 580.075195312 266.911132812 563.924804688 266.911132812 543.025390625 c 0
 266.911132812 522.125 253.911132812 505.975585938 238.911132812 505.975585938 c 0
 127.391601562 505.975585938 124.782226562 409.197265625 124.782226562 290.299804688 c 0
 124.782226562 171.40234375 127.391601562 74.6240234375 238.911132812 74.6240234375 c 0
 253.911132812 74.6240234375 266.911132812 58.474609375 266.911132812 37.57421875 c 0
 266.911132812 16.6748046875 253.911132812 0.5244140625 238.911132812 0.5244140625 c 1
 238.911132812 0.5244140625 400.411132812 -0.171875 238.911132812 -0.171875 c 0
 77.4111328125 -0.171875 42.3115234375 130.16796875 42.3115234375 290.299804688 c 0
 42.3115234375 450.431640625 77.4111328125 580.771484375 238.911132812 580.771484375 c 0xd0
 400.411132812 580.771484375 238.911132812 580.075195312 238.911132812 580.075195312 c 1xb0
EndSplineSet
EndChar

StartChar: backslash
Encoding: 92 92 61
GlifName: backslash
Width: 362
GlyphClass: 2
Flags: MW
VStem: 40.4678 280.943
LayerCount: 2
Back
Fore
SplineSet
40.4677734375 590 m 2
 35.373046875 605 46.3134765625 618 67.212890625 618 c 0
 88.11328125 618 109.046875 605 114.567382812 590 c 0
 114.833984375 589.842773438 321.411132812 28 321.411132812 28 c 2
 326.856445312 13.20703125 315.56640625 0 294.666015625 0 c 0
 273.766601562 0 252.83203125 13 247.311523438 28 c 2
 40.4677734375 590 l 2
EndSplineSet
EndChar

StartChar: bracketright
Encoding: 93 93 62
GlifName: bracketright
Width: 356
GlyphClass: 2
Flags: MW
HStem: -0.171875 0.696289<108.089 115.589 108.089 196.339> 0.524414 74.0996<108.089 115.589> 580.075 0.696289<108.089 115.589>
VStem: 229.718 82.4707<230.851 349.749>
LayerCount: 2
Back
Fore
SplineSet
115.588867188 580.075195312 m 1x70
 115.588867188 580.075195312 -45.9111328125 580.771484375 115.588867188 580.771484375 c 0
 277.088867188 580.771484375 312.188476562 450.431640625 312.188476562 290.299804688 c 0
 312.188476562 130.16796875 277.088867188 -0.171875 115.588867188 -0.171875 c 0
 -45.9111328125 -0.171875 115.588867188 0.5244140625 115.588867188 0.5244140625 c 1xb0
 100.588867188 0.5244140625 87.5888671875 16.6748046875 87.5888671875 37.57421875 c 0
 87.5888671875 58.474609375 100.588867188 74.6240234375 115.588867188 74.6240234375 c 0
 227.108398438 74.6240234375 229.717773438 171.40234375 229.717773438 290.299804688 c 0
 229.717773438 409.197265625 227.108398438 505.975585938 115.588867188 505.975585938 c 0
 100.588867188 505.975585938 87.5888671875 522.125 87.5888671875 543.025390625 c 0
 87.5888671875 563.924804688 100.588867188 580.075195312 115.588867188 580.075195312 c 1x70
EndSplineSet
EndChar

StartChar: asciicircum
Encoding: 94 94 63
GlifName: asciicircum
Width: 476
GlyphClass: 2
Flags: MW
HStem: 494 270<59.5723 248.45 227.55 416.428>
LayerCount: 2
Back
Fore
SplineSet
238 764 m 0
 258.900390625 764 279.833984375 751 285.354492188 736 c 0
 285.62109375 735.842773438 428.6484375 522 428.6484375 522 c 1
 432.732421875 507.20703125 424.265625 494 408.58984375 494 c 0
 392.915039062 494 377.21484375 507 373.07421875 522 c 1
 238 697.333007812 l 1
 102.92578125 522 l 1
 98.78515625 507 83.0849609375 494 67.41015625 494 c 0
 51.734375 494 43.267578125 507.20703125 47.3515625 522 c 1
 47.3515625 522 190.37890625 735.842773438 190.645507812 736 c 0
 196.166015625 751 217.099609375 764 238 764 c 0
EndSplineSet
EndChar

StartChar: underscore
Encoding: 95 95 64
GlifName: underscore
Width: 865
GlyphClass: 2
Flags: MW
HStem: -133.004 74.0996<89 768.5 96.5 768.5>
LayerCount: 2
Back
Fore
SplineSet
96.5 -58.904296875 m 2
 768.5 -58.904296875 l 2
 783.5 -58.904296875 796.5 -75.0546875 796.5 -95.9541015625 c 0
 796.5 -116.854492188 783.29296875 -133.004882812 768.5 -133.00390625 c 2
 768.5 -133.00390625 96.6572265625 -133.211914062 96.5 -133.00390625 c 0
 81.5 -133.00390625 68.5 -116.854492188 68.5 -95.9541015625 c 0
 68.5 -75.0546875 81.5 -59.330078125 96.5 -58.904296875 c 2
EndSplineSet
EndChar

StartChar: grave
Encoding: 96 96 65
GlifName: grave
Width: 228
GlyphClass: 2
Flags: MW
HStem: 557.5 21G 607.5 92.5<61.1309 120.625>
LayerCount: 2
Back
Fore
SplineSet
51.4482421875 653.75 m 0
 39.7900390625 678.75 48.630859375 700 73.630859375 700 c 0
 98.630859375 700 128.540039062 678.75 140.198242188 653.75 c 1
 154.7265625 633.318359375 180.26171875 600 181.588867188 583.75 c 0
 183.084960938 572.5 141.69140625 562.083984375 108.830078125 557.5 c 1
 130.702148438 571.014648438 152.58984375 577.020507812 135.461914062 613.06640625 c 1
 130.786132812 609.52734375 124.486328125 607.5 116.764648438 607.5 c 0
 91.7646484375 607.5 63.10546875 628.75 51.4482421875 653.75 c 0
EndSplineSet
EndChar

StartChar: a
Encoding: 97 97 66
GlifName: a
Width: 720
GlyphClass: 2
Flags: MW
HStem: 0 82.4707<297.422 406.107> 502.729 82.4707<297.422 422.578>
VStem: 54.2402 78.7324<236.839 348.359 236.839 373.35> 591.15 74.0996<2.9707 10.4707 2.9707 24.7627>
LayerCount: 2
Back
Fore
SplineSet
665.25 10.470703125 m 2
 665.25 -4.529296875 591.150390625 -5.529296875 591.150390625 9.470703125 c 0
 591.150390625 40.0546875 591.157226562 70.638671875 591.157226562 101.221679688 c 1
 535.04296875 39.236328125 452.213867188 0 360 0 c 0
 191.440429688 0 54.240234375 131.099609375 54.240234375 292.599609375 c 0
 54.240234375 454.099609375 191.440429688 585.19921875 360 585.19921875 c 0
 528.559570312 585.19921875 665.759765625 454.099609375 665.759765625 292.599609375 c 2
 665.25 10.470703125 l 2
132.97265625 292.599609375 m 0
 132.97265625 181.079101562 234.844726562 82.470703125 360 82.470703125 c 0
 485.155273438 82.470703125 587.02734375 181.079101562 587.02734375 292.599609375 c 0
 587.02734375 404.119140625 485.155273438 502.728515625 360 502.728515625 c 0
 234.844726562 502.728515625 132.97265625 404.119140625 132.97265625 292.599609375 c 0
EndSplineSet
EndChar

StartChar: b
Encoding: 98 98 67
GlifName: b
Width: 723
GlyphClass: 2
Flags: MW
HStem: 0 82.4707<298.922 424.078 298.922 445.78> 502.729 82.4707<315.393 424.078>
VStem: 56.25 74.0996<718.729 726.229> 588.527 78.7324<236.84 348.36>
LayerCount: 2
Back
Fore
SplineSet
56.25 718.728515625 m 2
 56.25 733.728515625 130.349609375 734.728515625 130.349609375 719.728515625 c 0
 130.349609375 689.14453125 130.342773438 514.560546875 130.342773438 483.977539062 c 1
 186.45703125 545.962890625 269.286132812 585.19921875 361.5 585.19921875 c 0
 530.059570312 585.19921875 667.259765625 454.099609375 667.259765625 292.599609375 c 0
 667.259765625 131.099609375 530.059570312 0 361.5 0 c 0
 192.940429688 0 55.740234375 131.099609375 55.740234375 292.599609375 c 2
 56.25 718.728515625 l 2
588.52734375 292.599609375 m 0
 588.52734375 404.120117188 486.655273438 502.728515625 361.5 502.728515625 c 0
 236.344726562 502.728515625 134.47265625 404.120117188 134.47265625 292.599609375 c 0
 134.47265625 181.080078125 236.344726562 82.470703125 361.5 82.470703125 c 0
 486.655273438 82.470703125 588.52734375 181.080078125 588.52734375 292.599609375 c 0
EndSplineSet
EndChar

StartChar: c
Encoding: 99 99 68
GlifName: c
Width: 684
GlyphClass: 2
Flags: MW
HStem: -0.171875 74.7959<283.54 395.06 283.54 420.05> 505.976 74.7959<283.54 395.06>
VStem: 46.7002 82.4707<230.851 349.749 230.851 370.366>
LayerCount: 2
Back
Fore
SplineSet
609.299804688 580.049804688 m 2
 624.299804688 580.049804688 637.299804688 563.899414062 637.299804688 543 c 0
 637.299804688 522.099609375 624.299804688 505.950195312 609.299804688 505.950195312 c 2
 609.299804688 505.950195312 450.8203125 505.975585938 339.299804688 505.975585938 c 0
 227.780273438 505.975585938 129.170898438 409.197265625 129.170898438 290.299804688 c 0
 129.170898438 171.40234375 227.780273438 74.6240234375 339.299804688 74.6240234375 c 0
 450.8203125 74.6240234375 609.299804688 74.6494140625 609.299804688 74.6494140625 c 2
 624.299804688 74.6494140625 637.299804688 58.5 637.299804688 37.599609375 c 0
 637.299804688 16.7001953125 624.299804688 0.5498046875 609.299804688 0.5498046875 c 2
 609.299804688 0.5498046875 500.799804688 -0.171875 339.299804688 -0.171875 c 0
 177.799804688 -0.171875 46.7001953125 130.16796875 46.7001953125 290.299804688 c 0
 46.7001953125 450.431640625 177.799804688 580.771484375 339.299804688 580.771484375 c 0
 500.799804688 580.771484375 609.299804688 580.049804688 609.299804688 580.049804688 c 2
EndSplineSet
EndChar

StartChar: d
Encoding: 100 100 69
GlifName: d
Width: 721
GlyphClass: 2
Flags: MW
HStem: 0 82.4707<297.922 423.078 297.922 444.78> 502.729 82.4707<297.922 406.607 276.22 423.078>
VStem: 54.7402 78.7324<236.84 348.36 236.84 373.35> 591.657 74.6025
LayerCount: 2
Back
Fore
SplineSet
665.75 718.728515625 m 2
 666.259765625 292.599609375 l 2
 666.259765625 131.099609375 529.059570312 0 360.5 0 c 0
 191.940429688 0 54.740234375 131.099609375 54.740234375 292.599609375 c 0
 54.740234375 454.099609375 191.940429688 585.19921875 360.5 585.19921875 c 0
 452.713867188 585.19921875 535.54296875 545.962890625 591.657226562 483.977539062 c 1
 591.657226562 514.560546875 591.650390625 689.14453125 591.650390625 719.728515625 c 0
 591.650390625 734.728515625 665.75 733.728515625 665.75 718.728515625 c 2
133.47265625 292.599609375 m 0
 133.47265625 181.080078125 235.344726562 82.470703125 360.5 82.470703125 c 0
 485.655273438 82.470703125 587.52734375 181.080078125 587.52734375 292.599609375 c 0
 587.52734375 404.120117188 485.655273438 502.728515625 360.5 502.728515625 c 0
 235.344726562 502.728515625 133.47265625 404.120117188 133.47265625 292.599609375 c 0
EndSplineSet
EndChar

StartChar: e
Encoding: 101 101 70
GlifName: e
Width: 677
GlyphClass: 2
Flags: W
LayerCount: 2
Back
Fore
SplineSet
627.412109375 156.776367188 m 0
 564.6328125 95 580.690429688 95.638671875 492.154296875 40.6015625 c 0
 361.912109375 -40.361328125 161.80859375 -3.7431640625 81.05859375 136.120117188 c 0
 0.30859375 275.983398438 53.578125 458.119140625 199.5546875 542.3984375 c 0
 318.849609375 611.274414062 463.78515625 593.852539062 556.854492188 508.848632812 c 0
 577.669921875 489.836914062 629.854492188 454 606.854492188 433 c 0
 544.359375 372.814453125 478.676757812 316.206054688 410.854492188 262 c 0
 399.034179688 252.764648438 376.467773438 249.096679688 363.600585938 265.56640625 c 0
 350.733398438 282.036132812 351.643554688 302.03515625 362.854492188 312 c 0
 389.854492188 336 526.51171875 439.174804688 502.854492188 450.366210938 c 0
 422.528320312 488.362304688 328.700195312 521.732421875 240.790039062 470.9765625 c 0
 132.40234375 408.399414062 93.4833984375 272.065429688 149.243164062 175.486328125 c 0
 205.002929688 78.90625 353.626953125 28.294921875 450.918945312 107.0234375 c 2
 573.465820312 206.1875 l 2
 585.126953125 215.624023438 602.79296875 218.373046875 618.854492188 205 c 0
 634.916992188 191.626953125 638.102539062 167.295898438 627.412109375 156.776367188 c 0
EndSplineSet
AlternateSubs2: "'salt' Stylistic Alternatives in Latin lookup 0 subtable" uniE00A
EndChar

StartChar: f
Encoding: 102 102 71
GlifName: f
Width: 685
GlyphClass: 2
Flags: MW
HStem: 279 74.0996<178.5 561 186 561> 505.976 74.7959<284.04 395.56>
VStem: 55.9502 74.0996<28 28>
LayerCount: 2
Back
Fore
SplineSet
561 279 m 2
 186 279 l 2
 171 279 158 295.150390625 158 316.049804688 c 0
 158 336.950195312 171.20703125 353.100585938 186 353.099609375 c 2
 186 353.099609375 560.842773438 353.307617188 561 353.099609375 c 0
 576 353.099609375 589 336.950195312 589 316.049804688 c 0
 589 295.150390625 576 279.42578125 561 279 c 2
130.049804688 28 m 1
 130 13 113.900390625 0 93 0 c 0
 72.1005859375 0 56 13 55.9501953125 28 c 1
 56 28 47.2001953125 290.299804688 47.2001953125 290.299804688 c 1
 57.6796875 450.087890625 178.299804688 580.771484375 339.799804688 580.771484375 c 0
 501.299804688 580.771484375 609.799804688 580.049804688 609.799804688 580.049804688 c 2
 624.799804688 580.049804688 637.799804688 563.899414062 637.799804688 543 c 0
 637.799804688 522.099609375 624.799804688 505.950195312 609.799804688 505.950195312 c 2
 609.799804688 505.950195312 451.3203125 505.975585938 339.799804688 505.975585938 c 0
 228.280273438 505.975585938 129.670898438 409.197265625 129.670898438 290.299804688 c 0
 129.670898438 171.40234375 130 28 130.049804688 28 c 1
EndSplineSet
EndChar

StartChar: g
Encoding: 103 103 72
GlifName: g
Width: 701
GlyphClass: 2
Flags: MW
HStem: -0.171875 74.7959<292.04 384.775 292.04 428.55> 505.976 74.7959<292.04 403.56>
VStem: 55.2002 82.4707<230.851 349.749 230.851 370.366> 571.696 74.1035<37.5996 74.6426>
LayerCount: 2
Back
Fore
SplineSet
617.799804688 580.049804688 m 2
 632.799804688 580.049804688 645.799804688 563.899414062 645.799804688 543 c 0
 645.799804688 522.099609375 632.799804688 505.950195312 617.799804688 505.950195312 c 2
 617.799804688 505.950195312 459.3203125 505.975585938 347.799804688 505.975585938 c 0
 236.280273438 505.975585938 137.670898438 409.197265625 137.670898438 290.299804688 c 0
 137.670898438 171.40234375 236.280273438 74.6240234375 347.799804688 74.6240234375 c 0
 421.750976562 74.6240234375 516.3515625 74.634765625 571.696289062 74.642578125 c 1
 571.674804688 308.599609375 l 2
 571.673828125 323.599609375 587.82421875 336.599609375 608.724609375 336.599609375 c 0
 629.624023438 336.599609375 645.774414062 323.599609375 645.774414062 308.599609375 c 2
 645.799804688 37.599609375 l 2
 645.788085938 16.685546875 632.79296875 0.5498046875 617.799804688 0.5498046875 c 2
 617.799804688 0.5498046875 509.299804688 -0.171875 347.799804688 -0.171875 c 0
 186.299804688 -0.171875 55.2001953125 130.16796875 55.2001953125 290.299804688 c 0
 55.2001953125 450.431640625 186.299804688 580.771484375 347.799804688 580.771484375 c 0
 509.299804688 580.771484375 617.799804688 580.049804688 617.799804688 580.049804688 c 2
EndSplineSet
AlternateSubs2: "'salt' Stylistic Alternatives in Latin lookup 0 subtable" uniE003
EndChar

StartChar: h
Encoding: 104 104 73
GlifName: h
Width: 663
GlyphClass: 2
Flags: MW
HStem: 400.129 82.4707<286.833 388.949>
VStem: 57.9395 74.1562 531.176 74.7959<134.24 245.76>
LayerCount: 2
Back
Fore
SplineSet
94.7998046875 0 m 2
 73.900390625 0 57.75 13 57.75 28 c 2
 57.75 28 57.0283203125 28.5 57.0283203125 190 c 0
 57.0283203125 197.844726562 57.3359375 205.6171875 57.939453125 213.306640625 c 0
 57.8974609375 377.00390625 57.8681640625 589.903320312 57.99609375 590 c 0
 57.99609375 605 74.1455078125 618 95.0458984375 618 c 0
 115.9453125 618 131.669921875 605 132.095703125 590 c 2
 132.095703125 386.150390625 l 1
 185.29296875 445.370117188 244.166015625 482.599609375 329.5 482.599609375 c 0
 489.631835938 482.599609375 605.971679688 351.5 605.971679688 190 c 0
 605.971679688 28.5 605.25 28 605.25 28 c 2
 605.25 13 589.099609375 0 568.200195312 0 c 0
 547.299804688 0 531.150390625 13 531.150390625 28 c 2
 531.150390625 28 531.17578125 78.4794921875 531.17578125 190 c 0
 531.17578125 301.51953125 448.397460938 400.12890625 329.5 400.12890625 c 0
 214.252929688 400.12890625 137.787109375 307.481445312 132.095703125 200.232421875 c 1
 132.095703125 28 l 2
 132.095703125 13 115.9453125 0 95.0458984375 0 c 2
 94.7998046875 0 l 2
EndSplineSet
AlternateSubs2: "'salt' Stylistic Alternatives in Latin lookup 0 subtable" uniE004
EndChar

StartChar: i
Encoding: 105 105 74
GlifName: i
Width: 197
GlyphClass: 2
Flags: MW
VStem: 61.4961 74.0996<28 562>
LayerCount: 2
Back
Fore
SplineSet
135.595703125 562 m 2
 135.595703125 28 l 2
 135.595703125 13 119.4453125 0 98.5458984375 0 c 0
 77.6455078125 0 61.4951171875 13.20703125 61.49609375 28 c 2
 61.49609375 28 61.2880859375 561.842773438 61.49609375 562 c 0
 61.49609375 577 77.6455078125 590 98.5458984375 590 c 0
 119.4453125 590 135.169921875 577 135.595703125 562 c 2
EndSplineSet
EndChar

StartChar: j
Encoding: 106 106 75
GlifName: j
Width: 691
GlyphClass: 2
Flags: MW
HStem: 0 74.7959<292.44 403.96 292.44 428.95>
VStem: 557.95 74.0996<552 552> 558.329 82.4707<290.472 290.472 290.472 349.92>
LayerCount: 2
Back
Fore
SplineSet
557.950195312 552.771484375 m 1xc0
 558 567.771484375 574.099609375 580.771484375 595 580.771484375 c 0
 615.899414062 580.771484375 632 567.771484375 632.049804688 552.771484375 c 1xc0
 632 552.771484375 640.799804688 290.471679688 640.799804688 290.471679688 c 1
 630.3203125 130.68359375 509.700195312 0 348.200195312 0 c 0
 186.700195312 0 78.2001953125 0.7216796875 78.2001953125 0.7216796875 c 2
 63.2001953125 0.7216796875 50.2001953125 16.8720703125 50.2001953125 37.771484375 c 0
 50.2001953125 58.671875 63.2001953125 74.8212890625 78.2001953125 74.8212890625 c 2
 78.2001953125 74.8212890625 236.6796875 74.7958984375 348.200195312 74.7958984375 c 0
 459.719726562 74.7958984375 558.329101562 171.57421875 558.329101562 290.471679688 c 0xa0
 558.329101562 409.369140625 558 552.771484375 557.950195312 552.771484375 c 1xc0
EndSplineSet
EndChar

StartChar: k
Encoding: 107 107 76
GlifName: k
Width: 571
GlyphClass: 2
Flags: MW
VStem: 47.6318 74.0996<138.338 590 138.338 590 138.338 597.5>
LayerCount: 2
Back
Fore
SplineSet
520.56640625 28 m 0
 529.486328125 13.20703125 517.26171875 0 491.135742188 0 c 0
 465.01171875 0 436.985351562 13 427.94140625 28 c 2
 290.453125 264.474609375 l 1
 147.875976562 28 l 2
 138.83203125 13 110.805664062 0 84.681640625 0 c 0
 68.185546875 0 57.2314453125 5.265625 53.642578125 12.8701171875 c 0
 49.8251953125 17.310546875 47.6318359375 22.546875 47.6318359375 28 c 2
 47.6318359375 28 47.423828125 589.842773438 47.6318359375 590 c 0
 47.6318359375 605 63.78125 618 84.681640625 618 c 0
 105.581054688 618 121.305664062 605 121.731445312 590 c 2
 121.731445312 138.337890625 l 1
 157.125976562 197.079101562 202.174804688 271.8359375 245.396484375 343.544921875 c 1
 243.431640625 351.471679688 247.58984375 358.41015625 256.763671875 362.403320312 c 1
 329.44140625 482.977539062 393.940429688 589.931640625 394.095703125 590 c 0
 403.139648438 605 431.1640625 618 457.290039062 618 c 0
 483.4140625 618 495.232421875 605 486.720703125 590 c 2
 337.294921875 342.166015625 l 2
 338.815429688 340.388671875 518.676757812 31.25 520.56640625 28 c 0
EndSplineSet
EndChar

StartChar: l
Encoding: 108 108 77
GlifName: l
Width: 681
GlyphClass: 2
Flags: MW
HStem: 0 74.7959<282.04 393.56 282.04 418.55>
VStem: 45.2002 82.4707<290.472 290.472> 53.9502 73.7207
LayerCount: 2
Back
Fore
SplineSet
128.049804688 552.771484375 m 1xa0
 128 552.771484375 127.670898438 409.369140625 127.670898438 290.471679688 c 0
 127.670898438 171.57421875 226.280273438 74.7958984375 337.799804688 74.7958984375 c 0
 449.3203125 74.7958984375 607.799804688 74.8212890625 607.799804688 74.8212890625 c 2
 622.799804688 74.8212890625 635.799804688 58.671875 635.799804688 37.771484375 c 0
 635.799804688 16.8720703125 622.799804688 0.7216796875 607.799804688 0.7216796875 c 2
 607.799804688 0.7216796875 499.299804688 0 337.799804688 0 c 0
 176.299804688 0 55.6796875 130.68359375 45.2001953125 290.471679688 c 1xc0
 53.9501953125 552.771484375 l 2
 54 567.771484375 70.1005859375 580.771484375 91 580.771484375 c 0
 111.900390625 580.771484375 128 567.771484375 128.049804688 552.771484375 c 1xa0
EndSplineSet
EndChar

StartChar: m
Encoding: 109 109 78
GlifName: m
Width: 1066
GlyphClass: 2
Flags: MW
HStem: 508.129 82.4707<255.978 369.634 235.36 374.875 697.366 811.022>
VStem: 58.9551 74.7949<242.24 353.76 242.24 378.75> 496.102 74.7969<242.24 353.76> 932.25 74.7949<242.24 353.76>
LayerCount: 2
Back
Fore
SplineSet
1006.32421875 28 m 2
 1006.32421875 13 990.173828125 0 969.2734375 0 c 0
 948.373046875 0 932.224609375 13 932.224609375 28 c 2
 932.224609375 28 932.25 186.479492188 932.25 298 c 0
 932.25 409.51953125 870.470703125 508.12890625 751.57421875 508.12890625 c 0
 632.67578125 508.12890625 570.8984375 409.51953125 570.8984375 298 c 0
 570.8984375 186.479492188 570.923828125 28 570.923828125 28 c 2
 570.923828125 13 554.7734375 0 533.873046875 0 c 0
 533.749023438 0 533.624023438 0.0009765625 533.5 0.0009765625 c 0
 533.375 0.0009765625 533.250976562 0 533.126953125 0 c 0
 512.2265625 0 496.076171875 13 496.076171875 28 c 2
 496.076171875 28 496.1015625 186.479492188 496.1015625 298 c 0
 496.1015625 409.51953125 434.32421875 508.12890625 315.42578125 508.12890625 c 0
 196.529296875 508.12890625 133.75 409.51953125 133.75 298 c 0
 133.75 186.479492188 133.775390625 28 133.775390625 28 c 2
 133.775390625 13 117.626953125 0 96.7265625 0 c 0
 75.826171875 0 59.67578125 13 59.67578125 28 c 2
 59.67578125 28 58.955078125 136.5 58.955078125 298 c 0
 58.955078125 459.5 155.294921875 590.599609375 315.42578125 590.599609375 c 0
 423.841796875 590.599609375 483.600585938 530.505859375 533.5 441.5703125 c 1
 583.399414062 530.505859375 643.158203125 590.599609375 751.57421875 590.599609375 c 0
 911.705078125 590.599609375 1007.04492188 459.5 1007.04492188 298 c 0
 1007.04492188 136.5 1006.32421875 28 1006.32421875 28 c 2
EndSplineSet
EndChar

StartChar: n
Encoding: 110 110 79
GlifName: n
Width: 699
GlyphClass: 2
Flags: MW
HStem: 508.129 82.4707<290.051 408.949>
VStem: 59.0283 74.7959<242.24 353.76 242.24 378.75> 565.176 74.7959<242.24 353.76>
LayerCount: 2
Back
Fore
SplineSet
639.25 28 m 2
 639.25 13 623.099609375 0 602.200195312 0 c 0
 581.299804688 0 565.150390625 13 565.150390625 28 c 2
 565.150390625 28 565.17578125 186.479492188 565.17578125 298 c 0
 565.17578125 409.51953125 468.397460938 508.12890625 349.5 508.12890625 c 0
 230.602539062 508.12890625 133.82421875 409.51953125 133.82421875 298 c 0
 133.82421875 186.479492188 133.849609375 28 133.849609375 28 c 2
 133.849609375 13 117.700195312 0 96.7998046875 0 c 0
 75.900390625 0 59.75 13 59.75 28 c 2
 59.75 28 59.0283203125 136.5 59.0283203125 298 c 0
 59.0283203125 459.5 189.368164062 590.599609375 349.5 590.599609375 c 0
 509.631835938 590.599609375 639.971679688 459.5 639.971679688 298 c 0
 639.971679688 136.5 639.25 28 639.25 28 c 2
EndSplineSet
EndChar

StartChar: o
Encoding: 111 111 80
GlifName: o
Width: 716
GlyphClass: 2
Flags: MW
HStem: 0 82.4707<295.422 420.578 295.422 442.28> 502.729 82.4707<295.422 420.578>
VStem: 52.2402 78.7324<236.839 348.359 236.839 373.35> 585.027 78.7324<236.839 348.359>
LayerCount: 2
Back
Fore
SplineSet
130.97265625 292.599609375 m 0
 130.97265625 181.079101562 232.844726562 82.470703125 358 82.470703125 c 0
 483.155273438 82.470703125 585.02734375 181.079101562 585.02734375 292.599609375 c 0
 585.02734375 404.119140625 483.155273438 502.728515625 358 502.728515625 c 0
 232.844726562 502.728515625 130.97265625 404.119140625 130.97265625 292.599609375 c 0
52.240234375 292.599609375 m 0
 52.240234375 454.099609375 189.440429688 585.19921875 358 585.19921875 c 0
 526.559570312 585.19921875 663.759765625 454.099609375 663.759765625 292.599609375 c 0
 663.759765625 131.099609375 526.559570312 0 358 0 c 0
 189.440429688 0 52.240234375 131.099609375 52.240234375 292.599609375 c 0
EndSplineSet
EndChar

StartChar: p
Encoding: 112 112 81
GlifName: p
Width: 726
GlyphClass: 2
Flags: MW
HStem: 0 82.4707<316.893 425.578 300.422 447.28> 502.729 82.4707<300.422 425.578>
VStem: 57.75 74.0996<-103.029 -95.5293> 590.027 78.7324<236.839 348.359>
LayerCount: 2
Back
Fore
SplineSet
57.75 -95.529296875 m 2
 57.240234375 292.599609375 l 2
 57.240234375 454.099609375 194.440429688 585.19921875 363 585.19921875 c 0
 531.559570312 585.19921875 668.759765625 454.099609375 668.759765625 292.599609375 c 0
 668.759765625 131.099609375 531.559570312 0 363 0 c 0
 270.786132812 0 187.95703125 39.236328125 131.842773438 101.221679688 c 1
 131.842773438 70.638671875 131.849609375 -65.9453125 131.849609375 -96.529296875 c 0
 131.849609375 -111.529296875 57.75 -110.529296875 57.75 -95.529296875 c 2
590.02734375 292.599609375 m 0
 590.02734375 404.119140625 488.155273438 502.728515625 363 502.728515625 c 0
 237.844726562 502.728515625 135.97265625 404.119140625 135.97265625 292.599609375 c 0
 135.97265625 181.079101562 237.844726562 82.470703125 363 82.470703125 c 0
 488.155273438 82.470703125 590.02734375 181.079101562 590.02734375 292.599609375 c 0
EndSplineSet
EndChar

StartChar: q
Encoding: 113 113 82
GlifName: q
Width: 720
GlyphClass: 2
Flags: MW
HStem: 0 82.4707<297.422 406.107> 502.729 82.4707<297.422 422.578>
VStem: 54.2402 78.7324<236.839 348.359 236.839 373.35> 591.15 74.0996<-103.029 -95.5293 -103.029 -81.2373>
LayerCount: 2
Back
Fore
SplineSet
665.25 -95.529296875 m 2
 665.25 -110.529296875 591.150390625 -111.529296875 591.150390625 -96.529296875 c 0
 591.150390625 -65.9453125 591.157226562 70.638671875 591.157226562 101.221679688 c 1
 535.04296875 39.236328125 452.213867188 0 360 0 c 0
 191.440429688 0 54.240234375 131.099609375 54.240234375 292.599609375 c 0
 54.240234375 454.099609375 191.440429688 585.19921875 360 585.19921875 c 0
 528.559570312 585.19921875 665.759765625 454.099609375 665.759765625 292.599609375 c 2
 665.25 -95.529296875 l 2
132.97265625 292.599609375 m 0
 132.97265625 181.079101562 234.844726562 82.470703125 360 82.470703125 c 0
 485.155273438 82.470703125 587.02734375 181.079101562 587.02734375 292.599609375 c 0
 587.02734375 404.119140625 485.155273438 502.728515625 360 502.728515625 c 0
 234.844726562 502.728515625 132.97265625 404.119140625 132.97265625 292.599609375 c 0
EndSplineSet
EndChar

StartChar: r
Encoding: 114 114 83
GlifName: r
Width: 686
GlyphClass: 2
Flags: MW
HStem: 505.976 74.7959<284.54 396.06>
VStem: 56.4502 74.0996<28 28>
LayerCount: 2
Back
Fore
SplineSet
130.549804688 28 m 1
 130.5 13 114.400390625 0 93.5 0 c 0
 72.6005859375 0 56.5 13 56.4501953125 28 c 1
 56.5 28 47.7001953125 290.299804688 47.7001953125 290.299804688 c 1
 58.1796875 450.087890625 178.799804688 580.771484375 340.299804688 580.771484375 c 0
 501.799804688 580.771484375 610.299804688 580.049804688 610.299804688 580.049804688 c 2
 625.299804688 580.049804688 638.299804688 563.899414062 638.299804688 543 c 0
 638.299804688 522.099609375 625.299804688 505.950195312 610.299804688 505.950195312 c 2
 610.299804688 505.950195312 451.8203125 505.975585938 340.299804688 505.975585938 c 0
 228.780273438 505.975585938 130.170898438 409.197265625 130.170898438 290.299804688 c 0
 130.170898438 171.40234375 130.5 28 130.549804688 28 c 1
EndSplineSet
EndChar

StartChar: s
Encoding: 115 115 84
GlifName: s
Width: 697
GlyphClass: 2
Flags: MW
HStem: 0 74.7959<296.74 408.26 296.74 433.25> 251.426 74.7959<213.5 213.5 213.5 294.25> 503.573 74.7959<288.74 400.26>
VStem: 51.9004 82.4707<392.949 436.846 392.949 471.963> 562.629 82.4707<141.523 185.42>
LayerCount: 2
Back
Fore
SplineSet
483.5 326.943359375 m 0
 557 326.943359375 645.099609375 343.603515625 645.099609375 184.471679688 c 0
 645.099609375 28.33984375 514 0 352.5 0 c 0
 191 0 82.5 0.7216796875 82.5 0.7216796875 c 2
 67.5 0.7216796875 54.5 16.8720703125 54.5 37.771484375 c 0
 54.5 58.671875 67.5 74.8212890625 82.5 74.8212890625 c 2
 82.5 74.8212890625 240.979492188 74.7958984375 352.5 74.7958984375 c 0
 464.01953125 74.7958984375 562.62890625 98.57421875 562.62890625 184.471679688 c 0
 562.62890625 186.369140625 584 252.291992188 483.5 252.147460938 c 0
 483 252.291992188 375 251.42578125 213.5 251.42578125 c 0
 140 251.42578125 51.900390625 234.765625 51.900390625 393.897460938 c 0
 51.900390625 550.029296875 183 578.369140625 344.5 578.369140625 c 0
 506 578.369140625 614.5 577.647460938 614.5 577.647460938 c 2
 629.5 577.647460938 642.5 561.497070312 642.5 540.59765625 c 0
 642.5 519.697265625 629.5 503.547851562 614.5 503.547851562 c 2
 614.5 503.547851562 456.020507812 503.573242188 344.5 503.573242188 c 0
 232.98046875 503.573242188 134.37109375 479.794921875 134.37109375 393.897460938 c 0
 134.37109375 392 113.000976562 325.953125 213.5 326.221679688 c 2
 213.5 326.221679688 322 326.943359375 483.5 326.943359375 c 0
EndSplineSet
AlternateSubs2: "'salt' Stylistic Alternatives in Latin lookup 0 subtable" uniE016
EndChar

StartChar: t
Encoding: 116 116 85
GlifName: t
Width: 584
GlyphClass: 2
Flags: MW
HStem: 515.882 74.168<329.05 329.05>
VStem: 254.95 74.0996<20.5 28>
LayerCount: 2
Back
Fore
SplineSet
67 590.049804688 m 2
 278.401367188 590.049804688 l 2
 282.5859375 591.3046875 287.166015625 592 292 592 c 0
 296.833984375 592 301.390625 591.3046875 305.545898438 590.049804688 c 2
 517 590.049804688 l 2
 532 590.049804688 545 573.899414062 545 553 c 0
 545 532.099609375 531.79296875 515.94921875 517 515.950195312 c 2
 517 515.950195312 427.93359375 515.909179688 329.049804688 515.881835938 c 1
 329.049804688 28 l 2
 329.049804688 13 312.899414062 0 292 0 c 0
 271.099609375 0 254.94921875 13.20703125 254.950195312 28 c 2
 254.950195312 28 254.810546875 379.770507812 254.875 515.864257812 c 1
 156.059570312 515.84765625 67.0703125 515.857421875 67 515.950195312 c 0
 52 515.950195312 39 532.099609375 39 553 c 0
 39 573.899414062 52 589.624023438 67 590.049804688 c 2
EndSplineSet
EndChar

StartChar: u
Encoding: 117 117 86
GlifName: u
Width: 696
GlyphClass: 2
Flags: MW
HStem: 0 82.4707<288.551 407.449 288.551 428.066>
VStem: 57.5283 74.7959<236.84 348.36 236.84 373.35> 563.676 74.7959<236.84 348.36>
LayerCount: 2
Back
Fore
SplineSet
637.75 562.599609375 m 2
 637.75 562.599609375 638.471679688 454.099609375 638.471679688 292.599609375 c 0
 638.471679688 131.099609375 508.131835938 0 348 0 c 0
 187.868164062 0 57.5283203125 131.099609375 57.5283203125 292.599609375 c 0
 57.5283203125 454.099609375 58.25 562.599609375 58.25 562.599609375 c 2
 58.25 577.599609375 74.400390625 590.599609375 95.2998046875 590.599609375 c 0
 116.200195312 590.599609375 132.349609375 577.599609375 132.349609375 562.599609375 c 2
 132.349609375 562.599609375 132.32421875 404.120117188 132.32421875 292.599609375 c 0
 132.32421875 181.080078125 229.102539062 82.470703125 348 82.470703125 c 0
 466.897460938 82.470703125 563.67578125 181.080078125 563.67578125 292.599609375 c 0
 563.67578125 404.120117188 563.650390625 562.599609375 563.650390625 562.599609375 c 2
 563.650390625 577.599609375 579.799804688 590.599609375 600.700195312 590.599609375 c 0
 621.599609375 590.599609375 637.75 577.599609375 637.75 562.599609375 c 2
EndSplineSet
EndChar

StartChar: v
Encoding: 118 118 87
GlifName: v
Width: 592
GlyphClass: 2
Flags: MW
HStem: -0.72168 0.72168<244.969 255.419 244.969 332.169> 0 74.0742<251.419 251.827 251.419 255.419>
VStem: 461.169 74.0996<552 552> 461.548 82.4707<289.75 289.75 289.75 349.199>
LayerCount: 2
Back
Fore
SplineSet
253.8671875 74.08984375 m 2x40
 251.418945312 74.07421875 l 2
 252.235351562 74.07421875 253.051757812 74.08984375 253.8671875 74.08984375 c 2x40
49.220703125 552 m 2
 44.1259765625 567 55.06640625 580 75.9658203125 580 c 0
 96.8662109375 580 117.799804688 567 123.3203125 552 c 0
 123.538085938 551.872070312 229.109375 203.23828125 268 74.787109375 c 1
 372.530273438 83.783203125 461.547851562 176.783203125 461.547851562 289.75 c 0x90
 461.547851562 408.647460938 461.21875 552.049804688 461.168945312 552.049804688 c 1
 461.21875 567.049804688 477.318359375 580.049804688 498.21875 580.049804688 c 0
 519.118164062 580.049804688 535.21875 567.049804688 535.268554688 552.049804688 c 1xa0
 535.21875 552.049804688 544.018554688 289.75 544.018554688 289.75 c 1
 533.5390625 129.961914062 412.918945312 -0.7216796875 251.418945312 -0.7216796875 c 0
 89.9189453125 -0.7216796875 255.418945312 0 255.418945312 0 c 2x90
 234.51953125 0 213.584960938 13 208.064453125 28 c 2
 49.220703125 552 l 2
EndSplineSet
AlternateSubs2: "'salt' Stylistic Alternatives in Latin lookup 0 subtable" uniE015
EndChar

StartChar: w
Encoding: 119 119 88
GlifName: w
Width: 1064
GlyphClass: 2
Flags: MW
HStem: 0 82.4707<253.978 367.634 695.366 809.022>
VStem: 57.9551 74.7949<236.84 348.36 236.84 373.35> 494.102 74.7969<236.84 348.36> 931.25 74.7949<236.84 348.36>
LayerCount: 2
Back
Fore
SplineSet
58.67578125 562.599609375 m 2
 58.67578125 577.599609375 74.826171875 590.599609375 95.7265625 590.599609375 c 0
 116.626953125 590.599609375 132.775390625 577.599609375 132.775390625 562.599609375 c 2
 132.775390625 562.599609375 132.75 404.120117188 132.75 292.599609375 c 0
 132.75 181.080078125 194.529296875 82.470703125 313.42578125 82.470703125 c 0
 432.32421875 82.470703125 494.1015625 181.080078125 494.1015625 292.599609375 c 0
 494.1015625 404.120117188 494.076171875 562.599609375 494.076171875 562.599609375 c 2
 494.076171875 577.599609375 510.2265625 590.599609375 531.126953125 590.599609375 c 0
 531.250976562 590.599609375 531.375976562 590.598632812 531.5 590.598632812 c 0
 531.625 590.598632812 531.749023438 590.599609375 531.873046875 590.599609375 c 0
 552.7734375 590.599609375 568.923828125 577.599609375 568.923828125 562.599609375 c 2
 568.923828125 562.599609375 568.8984375 404.120117188 568.8984375 292.599609375 c 0
 568.8984375 181.080078125 630.67578125 82.470703125 749.57421875 82.470703125 c 0
 868.470703125 82.470703125 931.25 181.080078125 931.25 292.599609375 c 0
 931.25 404.120117188 931.224609375 562.599609375 931.224609375 562.599609375 c 2
 931.224609375 577.599609375 947.373046875 590.599609375 968.2734375 590.599609375 c 0
 989.173828125 590.599609375 1005.32421875 577.599609375 1005.32421875 562.599609375 c 2
 1005.32421875 562.599609375 1006.04492188 454.099609375 1006.04492188 292.599609375 c 0
 1006.04492188 131.099609375 909.705078125 0 749.57421875 0 c 0
 641.158203125 0 581.399414062 60.09375 531.5 149.029296875 c 1
 481.600585938 60.09375 421.841796875 0 313.42578125 0 c 0
 153.294921875 0 57.955078125 131.099609375 57.955078125 292.599609375 c 0
 57.955078125 454.099609375 58.67578125 562.599609375 58.67578125 562.599609375 c 2
EndSplineSet
EndChar

StartChar: x
Encoding: 120 120 89
GlifName: x
Width: 630
GlyphClass: 2
Flags: W
LayerCount: 2
Back
Fore
SplineSet
586.900390625 562 m 2
 361.354492188 295.049804688 l 1
 474.133789062 161.533203125 586.900390625 28 586.900390625 28 c 2
 596.14453125 13.20703125 584.2109375 0 558.083984375 0 c 0
 531.9609375 0 503.6484375 13 494.275390625 28 c 2
 315 240.185546875 l 1
 135.724609375 28 l 2
 126.3515625 13 98.0390625 0 71.916015625 0 c 0
 45.7890625 0 33.85546875 13.20703125 43.099609375 28 c 2
 43.099609375 28 155.865234375 161.533203125 268.645507812 295.049804688 c 1
 43.099609375 562 l 2
 34.2578125 577 45.791015625 590 71.916015625 590 c 0
 98.041015625 590 126.3515625 577 135.724609375 562 c 0
 135.877929688 561.932617188 219.673828125 462.76953125 315 349.92578125 c 1
 410.325195312 462.76953125 494.12109375 561.932617188 494.275390625 562 c 0
 503.6484375 577 531.958984375 590 558.083984375 590 c 0
 584.208984375 590 595.7421875 577 586.900390625 562 c 2
EndSplineSet
EndChar

StartChar: y
Encoding: 121 121 90
GlifName: y
Width: 661
GlyphClass: 2
Flags: MW
HStem: -65.3223 74.7959<264.394 375.914 264.394 400.904> 108 82.4707<273.051 375.167>
VStem: 56.0283 74.7959<344.84 456.36 344.84 481.35> 529.904 75.0674<396.677 481.35 396.677 562.6>
LayerCount: 2
Back
Fore
SplineSet
567.200195312 590.599609375 m 2
 588.099609375 590.599609375 604.25 577.599609375 604.25 562.599609375 c 2
 604.25 562.599609375 604.971679688 562.099609375 604.971679688 400.599609375 c 0
 604.971679688 392.754882812 604.6640625 384.982421875 604.060546875 377.29296875 c 0
 604.102539062 213.595703125 604.131835938 185.696289062 604.00390625 185.599609375 c 0
 612.524414062 6.8115234375 481.654296875 -65.322265625 320.154296875 -65.322265625 c 0
 158.654296875 -65.322265625 197.154296875 -64.6005859375 197.154296875 -64.6005859375 c 2
 182.154296875 -64.6005859375 169.154296875 -48.4501953125 169.154296875 -27.55078125 c 0
 169.154296875 -6.650390625 182.154296875 9.4990234375 197.154296875 9.4990234375 c 2
 197.154296875 9.4990234375 208.633789062 9.4736328125 320.154296875 9.4736328125 c 0
 431.673828125 9.4736328125 530.283203125 48.251953125 530.283203125 167.149414062 c 0
 530.283203125 172.541992188 530.28125 177.522460938 530.28125 182.116210938 c 0
 530.064453125 183.26171875 529.9375 184.424804688 529.904296875 185.599609375 c 2
 529.904296875 204.44921875 l 1
 476.70703125 145.229492188 417.833984375 108 332.5 108 c 0
 172.368164062 108 56.0283203125 239.099609375 56.0283203125 400.599609375 c 0
 56.0283203125 562.099609375 56.75 562.599609375 56.75 562.599609375 c 2
 56.75 577.599609375 72.900390625 590.599609375 93.7998046875 590.599609375 c 0
 114.700195312 590.599609375 130.849609375 577.599609375 130.849609375 562.599609375 c 2
 130.849609375 562.599609375 130.82421875 512.120117188 130.82421875 400.599609375 c 0
 130.82421875 289.080078125 213.602539062 190.470703125 332.5 190.470703125 c 0
 447.747070312 190.470703125 524.212890625 283.118164062 529.904296875 390.3671875 c 1
 529.904296875 562.599609375 l 2
 529.904296875 577.599609375 546.0546875 590.599609375 566.954101562 590.599609375 c 2
 567.200195312 590.599609375 l 2
530.262695312 208.25 m 0
 530.194335938 260.0859375 529.974609375 210.888671875 529.9140625 205.008789062 c 1
 529.946289062 206.102539062 530.064453125 207.18359375 530.262695312 208.25 c 0
EndSplineSet
AlternateSubs2: "'salt' Stylistic Alternatives in Latin lookup 0 subtable" uniE00D
EndChar

StartChar: z
Encoding: 122 122 91
GlifName: z
Width: 699
GlyphClass: 2
Flags: MW
HStem: 0 74.7959<289.74 401.26 289.74 426.25> 252.147 74.7959<214 214> 503.573 74.7959<297.74 409.26>
VStem: 52.9004 82.4707<141.523 185.42 141.523 264.038> 563.629 82.4707<392.949 436.846>
LayerCount: 2
Back
Fore
SplineSet
214.5 326.943359375 m 0
 376 326.943359375 484.5 326.221679688 484.5 326.221679688 c 2
 584.999023438 325.953125 563.62890625 392 563.62890625 393.897460938 c 0
 563.62890625 479.794921875 465.01953125 503.573242188 353.5 503.573242188 c 0
 241.979492188 503.573242188 83.5 503.547851562 83.5 503.547851562 c 2
 68.5 503.547851562 55.5 519.697265625 55.5 540.59765625 c 0
 55.5 561.497070312 68.5 577.647460938 83.5 577.647460938 c 2
 83.5 577.647460938 192 578.369140625 353.5 578.369140625 c 0
 515 578.369140625 646.099609375 550.029296875 646.099609375 393.897460938 c 0
 646.099609375 234.765625 558 251.42578125 484.5 251.42578125 c 0
 323 251.42578125 215 252.291992188 214.5 252.147460938 c 0
 114 252.291992188 135.37109375 186.369140625 135.37109375 184.471679688 c 0
 135.37109375 98.57421875 233.98046875 74.7958984375 345.5 74.7958984375 c 0
 457.020507812 74.7958984375 615.5 74.8212890625 615.5 74.8212890625 c 2
 630.5 74.8212890625 643.5 58.671875 643.5 37.771484375 c 0
 643.5 16.8720703125 630.5 0.7216796875 615.5 0.7216796875 c 2
 615.5 0.7216796875 507 0 345.5 0 c 0
 184 0 52.900390625 28.33984375 52.900390625 184.471679688 c 0
 52.900390625 343.603515625 141 326.943359375 214.5 326.943359375 c 0
EndSplineSet
AlternateSubs2: "'salt' Stylistic Alternatives in Latin lookup 0 subtable" uniE017
EndChar

StartChar: braceleft
Encoding: 123 123 92
GlifName: braceleft
Width: 348
GlyphClass: 2
Flags: MW
HStem: -0.171875 0.696289<237.566 245.066 237.566 318.316> 505.976 74.7959<181.807 245.066> 580.075 0.696289<237.566 245.066>
VStem: 38.6553 132.782<287.423 297.874> 88.7246 82.7129
LayerCount: 2
Back
Fore
SplineSet
237.56640625 580.075195312 m 1xb0
 252.56640625 580.075195312 265.56640625 563.924804688 265.56640625 543.025390625 c 0
 265.56640625 522.125 252.56640625 505.975585938 237.56640625 505.975585938 c 0
 126.046875 505.975585938 171.4375 311.197265625 171.4375 290.299804688 c 0xd0
 171.4375 265.40234375 126.046875 74.6240234375 237.56640625 74.6240234375 c 0
 252.56640625 74.6240234375 265.56640625 58.474609375 265.56640625 37.57421875 c 0
 265.56640625 16.6748046875 252.56640625 0.5244140625 237.56640625 0.5244140625 c 1
 237.56640625 0.5244140625 399.06640625 -0.171875 237.56640625 -0.171875 c 0
 96.9833984375 -0.171875 88.55078125 98.591796875 88.724609375 229.798828125 c 1xc8
 71.287109375 248.720703125 52.6962890625 268.900390625 52.6552734375 268.970703125 c 0
 45.1552734375 271.731445312 38.6552734375 282.198242188 38.6552734375 292.6484375 c 0
 38.6552734375 303.098632812 45.1552734375 313.565429688 52.6552734375 316.326171875 c 0
 52.6962890625 316.396484375 71.28515625 336.57421875 88.72265625 355.495117188 c 1
 88.771484375 484.356445312 98.6650390625 580.771484375 237.56640625 580.771484375 c 0xd0
 399.06640625 580.771484375 237.56640625 580.075195312 237.56640625 580.075195312 c 1xb0
EndSplineSet
EndChar

StartChar: bar
Encoding: 124 124 93
GlifName: bar
Width: 199
GlyphClass: 2
Flags: MW
VStem: 62.4961 74.0996<-22 650>
LayerCount: 2
Back
Fore
SplineSet
136.595703125 650 m 2
 136.595703125 -22 l 2
 136.595703125 -37 120.4453125 -50 99.5458984375 -50 c 0
 78.6455078125 -50 62.4951171875 -36.79296875 62.49609375 -22 c 2
 62.49609375 -22 62.2880859375 649.842773438 62.49609375 650 c 0
 62.49609375 665 78.6455078125 678 99.5458984375 678 c 0
 120.4453125 678 136.169921875 665 136.595703125 650 c 2
EndSplineSet
EndChar

StartChar: braceright
Encoding: 125 125 94
GlifName: braceright
Width: 349
GlyphClass: 2
Flags: MW
HStem: -0.171875 0.696289<103.434 110.934 103.434 181.226> 0.524414 74.0996<103.434 110.934> 580.075 0.696289<103.434 110.934>
VStem: 177.062 82.7139 177.062 132.782<287.423 297.874 287.423 300.749>
LayerCount: 2
Back
Fore
SplineSet
110.93359375 580.075195312 m 1x68
 110.93359375 580.075195312 -50.56640625 580.771484375 110.93359375 580.771484375 c 0
 249.8359375 580.771484375 259.729492188 484.356445312 259.778320312 355.495117188 c 1
 277.21484375 336.57421875 295.803710938 316.396484375 295.844726562 316.326171875 c 0
 303.344726562 313.565429688 309.844726562 303.098632812 309.844726562 292.6484375 c 0x68
 309.844726562 282.198242188 303.344726562 271.731445312 295.844726562 268.970703125 c 0
 295.803710938 268.900390625 277.212890625 248.720703125 259.776367188 229.798828125 c 1
 259.950195312 98.591796875 251.517578125 -0.171875 110.93359375 -0.171875 c 0
 -50.56640625 -0.171875 110.93359375 0.5244140625 110.93359375 0.5244140625 c 1xb0
 95.93359375 0.5244140625 82.93359375 16.6748046875 82.93359375 37.57421875 c 0
 82.93359375 58.474609375 95.93359375 74.6240234375 110.93359375 74.6240234375 c 0
 222.453125 74.6240234375 177.0625 265.40234375 177.0625 290.299804688 c 0
 177.0625 311.197265625 222.453125 505.975585938 110.93359375 505.975585938 c 0
 95.93359375 505.975585938 82.93359375 522.125 82.93359375 543.025390625 c 0
 82.93359375 563.924804688 95.93359375 580.075195312 110.93359375 580.075195312 c 1x68
EndSplineSet
EndChar

StartChar: asciitilde
Encoding: 126 126 95
GlifName: asciitilde
Width: 469
GlyphClass: 2
Flags: W
LayerCount: 2
Back
Fore
SplineSet
249.203125 368.102539062 m 1
 263.708007812 356.241210938 256.862304688 356.4296875 262.221679688 336.427734375 c 0
 267.234375 317.71875 282.743164062 302.51953125 318.28125 312.041992188 c 0
 355.583984375 322.037109375 358.900390625 345.280273438 354.63671875 361.190429688 c 0
 351.861328125 371.548828125 362.94140625 406.837890625 368.178710938 388.498046875 c 1
 368.462890625 388.661132812 373.5625 391.108398438 376.314453125 391.845703125 c 0
 389.586914062 395.40234375 406.1328125 390.77734375 410.080078125 376.046875 c 0
 431.225585938 297.127929688 369.833007812 262.459960938 334.129882812 252.892578125 c 0
 304.876953125 245.0546875 249.509765625 239.892578125 219.796875 289.897460938 c 1
 205.291992188 301.758789062 212.137695312 301.5703125 206.778320312 321.572265625 c 0
 201.765625 340.28125 186.256835938 355.48046875 150.71875 345.958007812 c 0
 113.416015625 335.962890625 110.099609375 312.719726562 114.36328125 296.809570312 c 0
 117.138671875 286.451171875 106.05859375 251.162109375 100.821289062 269.501953125 c 1
 100.537109375 269.338867188 95.4375 266.891601562 92.685546875 266.154296875 c 0
 79.4130859375 262.59765625 62.8671875 267.22265625 58.919921875 281.953125 c 0
 37.7744140625 360.872070312 99.1669921875 395.540039062 134.870117188 405.107421875 c 0
 164.123046875 412.9453125 219.490234375 418.107421875 249.203125 368.102539062 c 1
EndSplineSet
EndChar

StartChar: exclamdown
Encoding: 161 161 97
GlifName: exclamdown
Width: 199
GlyphClass: 2
Flags: MW
HStem: 487.5 92.5<87.625 112.625>
VStem: 55.125 88.75<521.25 546.25> 62.4043 74.0996<27.75 423.75>
LayerCount: 2
Back
Fore
SplineSet
143.875 533.75 m 0xc0
 143.875 508.75 125.125 487.5 100.125 487.5 c 0
 75.125 487.5 55.125 508.75 55.125 533.75 c 0
 55.125 558.75 75.125 580 100.125 580 c 0
 125.125 580 143.875 558.75 143.875 533.75 c 0xc0
62.404296875 27.75 m 2xa0
 62.404296875 423.75 l 2
 62.404296875 438.75 78.5546875 451.75 99.4541015625 451.75 c 0
 120.354492188 451.75 136.504882812 438.54296875 136.50390625 423.75 c 2
 136.50390625 423.75 136.711914062 27.9072265625 136.50390625 27.75 c 0
 136.50390625 12.75 120.354492188 -0.25 99.4541015625 -0.25 c 0
 78.5546875 -0.25 62.830078125 12.75 62.404296875 27.75 c 2xa0
EndSplineSet
EndChar

StartChar: cent
Encoding: 162 162 98
GlifName: cent
Width: 532
GlyphClass: 2
Flags: MW
HStem: 77.0371 56.0615<318.57 318.57> 456.608 56.0615<318.57 318.57>
VStem: 44.5254 61.8525<253.777 335.92 253.777 351.631> 244.435 74.1357
LayerCount: 2
Back
Fore
SplineSet
244.379882812 455.28125 m 1
 169.119140625 445.047851562 106.377929688 376.987304688 106.377929688 294.853515625 c 0
 106.377929688 212.700195312 169.149414062 144.626953125 244.434570312 134.418945312 c 1
 244.405273438 227.526367188 244.379882812 362.083984375 244.379882812 455.28125 c 1
318.5703125 562 m 2
 318.5703125 512.669921875 l 1
 408.919921875 512.548828125 466.474609375 512.166015625 466.474609375 512.166015625 c 2
 477.724609375 512.166015625 487.474609375 500.053710938 487.474609375 484.37890625 c 0
 487.474609375 468.703125 477.724609375 456.590820312 466.474609375 456.590820312 c 2
 466.474609375 456.590820312 391.3828125 456.603515625 318.5703125 456.608398438 c 1
 318.5703125 133.098632812 l 1
 391.3828125 133.103515625 466.474609375 133.116210938 466.474609375 133.116210938 c 2
 477.724609375 133.116210938 487.474609375 121.00390625 487.474609375 105.328125 c 0
 487.474609375 89.6533203125 477.724609375 77.541015625 466.474609375 77.541015625 c 2
 466.474609375 77.541015625 408.919921875 77.158203125 318.5703125 77.037109375 c 1
 318.5703125 28 l 2
 318.5703125 13 302.419921875 0 281.520507812 0 c 0
 260.620117188 0 244.469726562 13.20703125 244.470703125 28 c 2
 244.470703125 28 244.462890625 47.0087890625 244.453125 77.8525390625 c 1
 132.458984375 87.6845703125 44.525390625 181.27734375 44.525390625 294.853515625 c 0
 44.525390625 408.409179688 132.427734375 501.989257812 244.393554688 511.848632812 c 1
 244.407226562 542.844726562 244.431640625 561.970703125 244.470703125 562 c 0
 244.470703125 577 260.620117188 590 281.520507812 590 c 0
 302.419921875 590 318.14453125 577 318.5703125 562 c 2
EndSplineSet
EndChar

StartChar: sterling
Encoding: 163 163 99
GlifName: sterling
Width: 682
GlyphClass: 2
Flags: MW
HStem: 0 74.0996<137.88 608 137.88 608 74 608> 252.622 74.1777<138.479 285.747> 505.426 74.7959<289.462 394.959>
LayerCount: 2
Back
Fore
SplineSet
608 74.099609375 m 2
 623 73.673828125 636 57.94921875 636 37.0498046875 c 0
 636 16.1494140625 623 0 608 0 c 0
 607.842773438 -0.2080078125 74 0 74 0 c 2
 59.20703125 -0.0009765625 46 16.1494140625 46 37.0498046875 c 0
 46 122.508789062 57.990234375 199.483398438 93.7216796875 252.689453125 c 1
 81.6533203125 252.696289062 74.599609375 252.700195312 74.599609375 252.700195312 c 2
 59.806640625 252.69921875 46.599609375 268.849609375 46.599609375 289.75 c 0
 46.599609375 449.881835938 177.69921875 580.221679688 339.19921875 580.221679688 c 0
 500.69921875 580.221679688 529.19921875 579.5 529.19921875 579.5 c 2
 544.19921875 579.5 557.19921875 563.349609375 557.19921875 542.450195312 c 0
 557.19921875 521.549804688 544.19921875 505.400390625 529.19921875 505.400390625 c 2
 529.19921875 505.400390625 450.719726562 505.42578125 339.19921875 505.42578125 c 0
 239.724609375 505.42578125 169.244140625 426.551757812 138.479492188 326.799804688 c 1
 229.331054688 326.799804688 l 2
 235.868164062 327.278320312 242.623046875 327.521484375 249.599609375 327.521484375 c 0
 411.099609375 327.521484375 412.599609375 326.799804688 412.599609375 326.799804688 c 2
 427.599609375 326.799804688 440.599609375 310.649414062 440.599609375 289.75 c 0
 440.599609375 268.849609375 427.599609375 252.700195312 412.599609375 252.700195312 c 0
 412.520507812 252.595703125 327.994140625 252.622070312 243.5 252.622070312 c 0
 150.879882812 249.41015625 168 171.760742188 137.879882812 74.099609375 c 1
 608 74.099609375 l 2
EndSplineSet
EndChar

StartChar: currency
Encoding: 164 164 100
GlifName: currency
Width: 501
GlyphClass: 2
Flags: MW
HStem: 73.1504 21<45.8242 77.2334> 128.013 46.3896<233.363 267.637> 410.797 46.3896<233.363 267.637 233.363 285.7> 491.049 21<45.8242 77.2334>
VStem: 78.5098 44.2871<273.779 311.42> 378.203 44.2871<273.779 311.42 273.779 323.964>
LayerCount: 2
Back
Fore
SplineSet
122.796875 292.599609375 m 0
 122.796875 229.869140625 180.100585938 174.40234375 250.5 174.40234375 c 0
 320.899414062 174.40234375 378.203125 229.869140625 378.203125 292.599609375 c 0
 378.203125 355.329101562 320.899414062 410.796875 250.5 410.796875 c 0
 180.100585938 410.796875 122.796875 355.329101562 122.796875 292.599609375 c 0
385.70703125 94.150390625 m 2
 343.595703125 154.245117188 l 1
 316.743164062 137.6484375 284.774414062 128.012695312 250.5 128.012695312 c 0
 216.2265625 128.012695312 184.256835938 137.6484375 157.405273438 154.245117188 c 1
 115.29296875 94.150390625 l 2
 107.625 83.650390625 87.029296875 73.150390625 67.4375 73.150390625 c 0
 47.841796875 73.150390625 38.625 83.650390625 45.82421875 94.150390625 c 0
 46.05078125 94.150390625 91.5048828125 159.9140625 114.0234375 192.514648438 c 1
 91.759765625 220.25390625 78.509765625 254.958984375 78.509765625 292.599609375 c 0
 78.509765625 330.240234375 91.759765625 364.9453125 114.0234375 392.684570312 c 1
 91.5048828125 425.28515625 46.05078125 491.048828125 45.82421875 491.048828125 c 0
 38.625 501.548828125 47.841796875 512.048828125 67.4375 512.048828125 c 0
 87.029296875 512.048828125 107.625 501.548828125 115.29296875 491.048828125 c 2
 157.405273438 430.954101562 l 1
 184.256835938 447.55078125 216.2265625 457.186523438 250.5 457.186523438 c 0
 284.774414062 457.186523438 316.743164062 447.55078125 343.595703125 430.954101562 c 1
 385.70703125 491.048828125 l 2
 393.375 501.548828125 413.970703125 512.048828125 433.5625 512.048828125 c 0
 453.158203125 512.048828125 462.375 501.548828125 455.17578125 491.048828125 c 0
 454.950195312 491.048828125 409.49609375 425.28515625 386.9765625 392.684570312 c 1
 409.241210938 364.9453125 422.490234375 330.240234375 422.490234375 292.599609375 c 0
 422.490234375 254.958984375 409.241210938 220.25390625 386.9765625 192.514648438 c 1
 409.49609375 159.9140625 454.950195312 94.150390625 455.17578125 94.150390625 c 0
 462.375 83.650390625 453.158203125 73.150390625 433.5625 73.150390625 c 0
 413.970703125 73.150390625 393.375 83.650390625 385.70703125 94.150390625 c 2
EndSplineSet
EndChar

StartChar: yen
Encoding: 165 165 101
GlifName: yen
Width: 685
GlyphClass: 2
Flags: MW
HStem: -27.4004 21G<546.49 567.39> 26.4746 37.0498<461.736 519.891 624.986 628.685> 86.4756 37.0498<461.736 519.891> 108 82.4707<263.037 365.153>
VStem: 46.0137 74.7969<344.84 456.36 344.84 481.35> 519.891 74.1562
LayerCount: 2
Back
Fore
SplineSet
557.185546875 590.599609375 m 2xdc
 578.0859375 590.599609375 594.236328125 577.599609375 594.236328125 562.599609375 c 2
 594.236328125 562.599609375 594.95703125 562.099609375 594.95703125 400.599609375 c 0
 594.95703125 392.754882812 594.650390625 384.982421875 594.046875 377.29296875 c 0
 594.067382812 293.9296875 594.0859375 197.805664062 594.081054688 123.525390625 c 1
 624.986328125 123.525390625 l 2
 632.486328125 123.525390625 638.986328125 115.450195312 638.986328125 105 c 0
 638.986328125 94.55078125 632.3828125 86.474609375 624.986328125 86.4755859375 c 2
 624.986328125 86.4755859375 612.296875 86.466796875 594.077148438 86.4580078125 c 1
 594.077148438 78.365234375 594.071289062 70.69921875 594.071289062 63.5244140625 c 1
 624.986328125 63.5244140625 l 2
 632.486328125 63.5244140625 638.986328125 55.44921875 638.986328125 45 c 0
 638.986328125 34.548828125 632.3828125 26.474609375 624.986328125 26.474609375 c 2
 624.986328125 26.474609375 612.28515625 26.466796875 594.05078125 26.45703125 c 1
 594.037109375 10.05078125 594.016601562 0.6201171875 593.990234375 0.599609375 c 0
 593.990234375 -14.400390625 577.83984375 -27.400390625 556.939453125 -27.400390625 c 0
 536.041015625 -27.400390625 520.31640625 -14.400390625 519.890625 0.599609375 c 2
 519.890625 26.4296875 l 1
 490.064453125 26.4248046875 465.516601562 26.43359375 465.486328125 26.474609375 c 0
 457.986328125 26.474609375 451.486328125 34.548828125 451.486328125 45 c 0
 451.486328125 55.44921875 457.986328125 63.3115234375 465.486328125 63.5244140625 c 2
 519.890625 63.5244140625 l 1
 519.890625 86.4296875 l 1
 490.064453125 86.42578125 465.516601562 86.4345703125 465.486328125 86.4755859375 c 0
 457.986328125 86.4755859375 451.486328125 94.55078125 451.486328125 105 c 0
 451.486328125 115.450195312 457.986328125 123.3125 465.486328125 123.525390625 c 2
 519.890625 123.525390625 l 1xec
 519.890625 204.44921875 l 1
 466.693359375 145.229492188 407.8203125 108 322.486328125 108 c 0
 162.353515625 108 46.013671875 239.099609375 46.013671875 400.599609375 c 0
 46.013671875 562.099609375 46.736328125 562.599609375 46.736328125 562.599609375 c 2
 46.736328125 577.599609375 62.88671875 590.599609375 83.78515625 590.599609375 c 0
 104.685546875 590.599609375 120.8359375 577.599609375 120.8359375 562.599609375 c 2
 120.8359375 562.599609375 120.810546875 512.120117188 120.810546875 400.599609375 c 0
 120.810546875 289.080078125 203.587890625 190.470703125 322.486328125 190.470703125 c 0
 437.732421875 190.470703125 514.19921875 283.118164062 519.890625 390.3671875 c 1
 519.890625 562.599609375 l 2
 519.890625 577.599609375 536.041015625 590.599609375 556.939453125 590.599609375 c 2
 557.185546875 590.599609375 l 2xdc
EndSplineSet
EndChar

StartChar: brokenbar
Encoding: 166 166 102
GlifName: brokenbar
Width: 198
GlyphClass: 2
Flags: MW
VStem: 62.2695 74.0996<28 300>
LayerCount: 2
Back
Fore
SplineSet
136.369140625 300 m 2
 136.369140625 28 l 2
 136.369140625 13 120.21875 0 99.3193359375 0 c 0
 78.4189453125 0 62.2685546875 13.20703125 62.26953125 28 c 2
 62.26953125 28 62.0615234375 299.842773438 62.26953125 300 c 0
 62.26953125 315 78.4189453125 328 99.3193359375 328 c 0
 120.21875 328 135.943359375 315 136.369140625 300 c 2
135.823242188 672 m 2
 135.823242188 400 l 2
 135.823242188 385 119.672851562 372 98.7734375 372 c 0
 77.873046875 372 61.72265625 385.20703125 61.7236328125 400 c 2
 61.7236328125 400 61.515625 671.842773438 61.7236328125 672 c 0
 61.7236328125 687 77.873046875 700 98.7734375 700 c 0
 119.672851562 700 135.397460938 687 135.823242188 672 c 2
EndSplineSet
EndChar

StartChar: section
Encoding: 167 167 103
GlifName: section
Width: 690
GlyphClass: 2
Flags: MW
HStem: 0 74.7959<293.24 404.76 293.24 429.75> 146.3 56.9951<327.591 364.519 327.591 380.747> 251.454 75.0146 381.904 56.9951<326.037 365.868> 503.573 74.7959<285.24 396.76>
VStem: 48.4004 82.4707<392.991 436.846 392.991 471.963> 559.129 82.4707<141.523 185.378>
LayerCount: 2
Back
Fore
SplineSet
197.274414062 326.569335938 m 1
 213.31640625 390.958984375 273.924804688 438.899414062 346 438.899414062 c 0
 417.875976562 438.899414062 478.348632812 391.223632812 494.590820312 327.103515625 c 1
 564.655273438 328.37109375 641.599609375 333.1875 641.599609375 184.471679688 c 0
 641.599609375 28.33984375 510.5 0 349 0 c 0
 187.5 0 79 0.7216796875 79 0.7216796875 c 2
 64 0.7216796875 51 16.8720703125 51 37.771484375 c 0
 51 58.671875 64 74.8212890625 79 74.8212890625 c 2
 79 74.8212890625 237.479492188 74.7958984375 349 74.7958984375 c 0
 460.51953125 74.7958984375 559.12890625 98.57421875 559.12890625 184.471679688 c 0
 559.12890625 186.284179688 578.62109375 246.4921875 492.83203125 251.778320312 c 1
 474.329101562 190.869140625 415.494140625 146.299804688 346 146.299804688 c 0
 276.67578125 146.299804688 217.958984375 190.651367188 199.303710938 251.33203125 c 1
 128.228515625 250.229492188 48.400390625 242.419921875 48.400390625 393.897460938 c 0
 48.400390625 550.029296875 179.5 578.369140625 341 578.369140625 c 0
 502.5 578.369140625 611 577.647460938 611 577.647460938 c 2
 626 577.647460938 639 561.497070312 639 540.59765625 c 0
 639 519.697265625 626 503.547851562 611 503.547851562 c 2
 611 503.547851562 452.520507812 503.573242188 341 503.573242188 c 0
 229.48046875 503.573242188 130.87109375 479.794921875 130.87109375 393.897460938 c 0
 130.87109375 392.084960938 111.36328125 331.713867188 197.274414062 326.569335938 c 1
434.715820312 326.924804688 m 1
 419.94921875 358.516601562 385.736328125 381.904296875 346 381.904296875 c 0
 306.073242188 381.904296875 271.72265625 358.291015625 257.073242188 326.46875 c 1
 296.231445312 326.64453125 357.89453125 326.860351562 434.715820312 326.924804688 c 1
260.845703125 251.454101562 m 1
 277.10546875 223.374023438 309.181640625 203.294921875 346 203.294921875 c 0
 383.037109375 203.294921875 415.276367188 223.614257812 431.442382812 251.95703125 c 1
 393.220703125 251.778320312 334.21484375 251.536132812 260.845703125 251.454101562 c 1
EndSplineSet
EndChar

StartChar: dieresis
Encoding: 168 168 104
GlifName: dieresis
Width: 366
GlyphClass: 2
Flags: MW
HStem: 611.25 88.75<96.75 121.75 244.25 269.25>
VStem: 63 92.5<642.5 667.5> 210.5 92.5<642.5 667.5>
LayerCount: 2
Back
Fore
SplineSet
109.25 611.25 m 0
 84.25 611.25 63 630 63 655 c 0
 63 680 84.25 700 109.25 700 c 0
 134.25 700 155.5 680 155.5 655 c 0
 155.5 630 134.25 611.25 109.25 611.25 c 0
256.75 611.25 m 0
 231.75 611.25 210.5 630 210.5 655 c 0
 210.5 680 231.75 700 256.75 700 c 0
 281.75 700 303 680 303 655 c 0
 303 630 281.75 611.25 256.75 611.25 c 0
EndSplineSet
EndChar

StartChar: copyright
Encoding: 169 169 105
GlifName: copyright
Width: 708
GlyphClass: 2
Flags: MW
HStem: 0 82.4707<291.422 416.578 291.422 438.28> 145.064 37.3975<299.771 355.53 299.771 368.025> 398.138 37.3975<299.771 355.53> 502.729 82.4707<291.422 416.578>
VStem: 48.2402 78.7324<236.839 348.359 236.839 373.35> 181.35 41.2363<260.576 320.024 260.576 330.333> 581.027 78.7324<236.839 348.359>
LayerCount: 2
Back
Fore
SplineSet
126.97265625 292.599609375 m 0
 126.97265625 181.079101562 228.844726562 82.470703125 354 82.470703125 c 0
 479.155273438 82.470703125 581.02734375 181.079101562 581.02734375 292.599609375 c 0
 581.02734375 404.119140625 479.155273438 502.728515625 354 502.728515625 c 0
 228.844726562 502.728515625 126.97265625 404.119140625 126.97265625 292.599609375 c 0
48.240234375 292.599609375 m 0
 48.240234375 454.099609375 185.440429688 585.19921875 354 585.19921875 c 0
 522.559570312 585.19921875 659.759765625 454.099609375 659.759765625 292.599609375 c 0
 659.759765625 131.099609375 522.559570312 0 354 0 c 0
 185.440429688 0 48.240234375 131.099609375 48.240234375 292.599609375 c 0
462.650390625 435.174804688 m 2
 470.150390625 435.174804688 476.650390625 427.099609375 476.650390625 416.650390625 c 0
 476.650390625 406.19921875 470.150390625 398.125 462.650390625 398.125 c 2
 462.650390625 398.125 383.41015625 398.137695312 327.650390625 398.137695312 c 0
 271.890625 398.137695312 222.5859375 349.748046875 222.5859375 290.299804688 c 0
 222.5859375 230.8515625 271.890625 182.461914062 327.650390625 182.461914062 c 0
 383.41015625 182.461914062 462.650390625 182.474609375 462.650390625 182.474609375 c 2
 470.150390625 182.474609375 476.650390625 174.400390625 476.650390625 163.94921875 c 0
 476.650390625 153.5 470.150390625 145.424804688 462.650390625 145.424804688 c 2
 462.650390625 145.424804688 408.400390625 145.064453125 327.650390625 145.064453125 c 0
 246.900390625 145.064453125 181.349609375 210.234375 181.349609375 290.299804688 c 0
 181.349609375 370.365234375 246.900390625 435.53515625 327.650390625 435.53515625 c 0
 408.400390625 435.53515625 462.650390625 435.174804688 462.650390625 435.174804688 c 2
EndSplineSet
EndChar

StartChar: ordfeminine
Encoding: 170 170 106
GlifName: ordfeminine
Width: 316
GlyphClass: 2
Flags: MW
HStem: 495.18 28.8652<136.098 174.137> 671.135 28.8652<136.098 179.902>
VStem: 50.9844 27.5557<578.074 617.106 578.074 625.853> 238.902 25.9355<496.22 498.845 496.22 503.847>
LayerCount: 2
Back
Fore
SplineSet
264.837890625 498.844726562 m 2
 264.837890625 493.594726562 238.90234375 493.245117188 238.90234375 498.495117188 c 0
 238.90234375 509.19921875 238.905273438 519.903320312 238.905273438 530.607421875 c 1
 219.264648438 508.913085938 190.274414062 495.1796875 158 495.1796875 c 0
 99.00390625 495.1796875 50.984375 541.064453125 50.984375 597.58984375 c 0
 50.984375 654.115234375 99.00390625 700 158 700 c 0
 216.99609375 700 265.015625 654.115234375 265.015625 597.58984375 c 2
 264.837890625 498.844726562 l 2
78.5400390625 597.58984375 m 0
 78.5400390625 558.557617188 114.1953125 524.044921875 158 524.044921875 c 0
 201.8046875 524.044921875 237.459960938 558.557617188 237.459960938 597.58984375 c 0
 237.459960938 636.622070312 201.8046875 671.134765625 158 671.134765625 c 0
 114.1953125 671.134765625 78.5400390625 636.622070312 78.5400390625 597.58984375 c 0
EndSplineSet
EndChar

StartChar: guillemotleft
Encoding: 171 171 107
GlifName: guillemotleft
Width: 586
GlyphClass: 2
Flags: W
LayerCount: 2
Back
Fore
SplineSet
269.5 343 m 0
 269.5 363.900390625 282.5 384.833984375 297.5 390.354492188 c 0
 297.657226562 390.62109375 511.5 533.6484375 511.5 533.6484375 c 1
 526.29296875 537.732421875 539.5 529.265625 539.5 513.58984375 c 0
 539.5 497.915039062 526.5 482.21484375 511.5 478.07421875 c 1
 336.166992188 343 l 1
 511.5 207.92578125 l 1
 526.5 203.78515625 539.5 188.084960938 539.5 172.41015625 c 0
 539.5 156.734375 526.29296875 148.267578125 511.5 152.3515625 c 1
 511.5 152.3515625 297.657226562 295.37890625 297.5 295.645507812 c 0
 282.5 301.166015625 269.5 322.099609375 269.5 343 c 0
46.5 343 m 0
 46.5 363.900390625 59.5 384.833984375 74.5 390.354492188 c 0
 74.6572265625 390.62109375 288.5 533.6484375 288.5 533.6484375 c 1
 303.29296875 537.732421875 316.5 529.265625 316.5 513.58984375 c 0
 316.5 497.915039062 303.5 482.21484375 288.5 478.07421875 c 1
 113.166992188 343 l 1
 288.5 207.92578125 l 1
 303.5 203.78515625 316.5 188.084960938 316.5 172.41015625 c 0
 316.5 156.734375 303.29296875 148.267578125 288.5 152.3515625 c 1
 288.5 152.3515625 74.6572265625 295.37890625 74.5 295.645507812 c 0
 59.5 301.166015625 46.5 322.099609375 46.5 343 c 0
EndSplineSet
EndChar

StartChar: logicalnot
Encoding: 172 172 108
GlifName: logicalnot
Width: 593
GlyphClass: 2
Flags: MW
HStem: 271.904 74.0996<78 507.5 85.5 461.309>
VStem: 461.4 74.0996<170.454 177.954>
LayerCount: 2
Back
Fore
SplineSet
461.30859375 271.904296875 m 1
 85.5 271.904296875 l 2
 70.5 271.904296875 57.5 288.0546875 57.5 308.954101562 c 0
 57.5 329.854492188 70.70703125 346.004882812 85.5 346.00390625 c 2
 85.5 346.00390625 507.342773438 346.211914062 507.5 346.00390625 c 0
 522.5 346.00390625 535.5 329.854492188 535.5 308.954101562 c 2
 535.5 177.954101562 l 2
 535.5 162.954101562 519.349609375 149.954101562 498.450195312 149.954101562 c 0
 477.549804688 149.954101562 461.399414062 163.161132812 461.400390625 177.954101562 c 2
 461.400390625 177.954101562 461.30859375 233.16796875 461.30859375 271.904296875 c 1
EndSplineSet
EndChar

StartChar: uni00AD
Encoding: 173 173 109
GlifName: uni00A_D_
Width: 515
GlyphClass: 2
Flags: MW
HStem: 271.904 74.0996<77.5 430 85 430>
LayerCount: 2
Back
Fore
SplineSet
430 271.904296875 m 2
 85 271.904296875 l 2
 70 271.904296875 57 288.0546875 57 308.954101562 c 0
 57 329.854492188 70.20703125 346.004882812 85 346.00390625 c 2
 85 346.00390625 429.842773438 346.211914062 430 346.00390625 c 0
 445 346.00390625 458 329.854492188 458 308.954101562 c 0
 458 288.0546875 445 272.330078125 430 271.904296875 c 2
EndSplineSet
EndChar

StartChar: registered
Encoding: 174 174 110
GlifName: registered
Width: 708
GlyphClass: 2
Flags: MW
HStem: 0 82.4707<291.422 416.578 291.422 438.28> 398.181 37.3975<319.271 375.03> 502.729 82.4707<291.422 416.578>
VStem: 48.2402 78.7324<236.839 348.359 236.839 373.35> 200.85 41.2363<290.343 290.343> 581.027 78.7324<236.839 348.359>
LayerCount: 2
Back
Fore
SplineSet
126.97265625 292.599609375 m 0
 126.97265625 181.079101562 228.844726562 82.470703125 354 82.470703125 c 0
 479.155273438 82.470703125 581.02734375 181.079101562 581.02734375 292.599609375 c 0
 581.02734375 404.119140625 479.155273438 502.728515625 354 502.728515625 c 0
 228.844726562 502.728515625 126.97265625 404.119140625 126.97265625 292.599609375 c 0
48.240234375 292.599609375 m 0
 48.240234375 454.099609375 185.440429688 585.19921875 354 585.19921875 c 0
 522.559570312 585.19921875 659.759765625 454.099609375 659.759765625 292.599609375 c 0
 659.759765625 131.099609375 522.559570312 0 354 0 c 0
 185.440429688 0 48.240234375 131.099609375 48.240234375 292.599609375 c 0
242.275390625 159.193359375 m 1
 242.25 151.693359375 234.200195312 145.193359375 223.75 145.193359375 c 0
 213.30078125 145.193359375 205.25 151.693359375 205.224609375 159.193359375 c 1
 205.25 159.193359375 200.849609375 290.342773438 200.849609375 290.342773438 c 1
 206.08984375 370.236328125 266.400390625 435.578125 347.150390625 435.578125 c 0
 427.900390625 435.578125 482.150390625 435.217773438 482.150390625 435.217773438 c 2
 489.650390625 435.217773438 496.150390625 427.142578125 496.150390625 416.693359375 c 0
 496.150390625 406.2421875 489.650390625 398.16796875 482.150390625 398.16796875 c 2
 482.150390625 398.16796875 402.91015625 398.180664062 347.150390625 398.180664062 c 0
 291.390625 398.180664062 242.0859375 349.791015625 242.0859375 290.342773438 c 0
 242.0859375 230.89453125 242.25 159.193359375 242.275390625 159.193359375 c 1
EndSplineSet
EndChar

StartChar: macron
Encoding: 175 175 111
GlifName: macron
Width: 863
GlyphClass: 2
Flags: MW
HStem: 625.9 74.0996<88 767.5 95.5 767.5>
LayerCount: 2
Back
Fore
SplineSet
95.5 700 m 2
 767.5 700 l 2
 782.5 700 795.5 683.849609375 795.5 662.950195312 c 0
 795.5 642.049804688 782.29296875 625.899414062 767.5 625.900390625 c 2
 767.5 625.900390625 95.6572265625 625.692382812 95.5 625.900390625 c 0
 80.5 625.900390625 67.5 642.049804688 67.5 662.950195312 c 0
 67.5 683.849609375 80.5 699.57421875 95.5 700 c 2
EndSplineSet
EndChar

StartChar: degree
Encoding: 176 176 112
GlifName: degree
Width: 344
GlyphClass: 2
Flags: MW
HStem: 464.818 33.1953<146.812 197.188 146.812 205.923> 667.166 33.1953<146.812 197.188>
VStem: 48.9316 31.6895<560.146 605.033 560.146 615.092> 263.379 31.6895<560.146 605.033>
LayerCount: 2
Back
Fore
SplineSet
80.62109375 582.58984375 m 0
 80.62109375 537.703125 121.625 498.013671875 172 498.013671875 c 0
 222.375 498.013671875 263.37890625 537.703125 263.37890625 582.58984375 c 0
 263.37890625 627.4765625 222.375 667.166015625 172 667.166015625 c 0
 121.625 667.166015625 80.62109375 627.4765625 80.62109375 582.58984375 c 0
48.931640625 582.58984375 m 0
 48.931640625 647.59375 104.154296875 700.361328125 172 700.361328125 c 0
 239.845703125 700.361328125 295.068359375 647.59375 295.068359375 582.58984375 c 0
 295.068359375 517.5859375 239.845703125 464.818359375 172 464.818359375 c 0
 104.154296875 464.818359375 48.931640625 517.5859375 48.931640625 582.58984375 c 0
EndSplineSet
EndChar

StartChar: plusminus
Encoding: 177 177 113
GlifName: plusminus
Width: 571
GlyphClass: 2
Flags: MW
HStem: 0 74.0996<66.75 496.25 74.25 496.25> 330 74.0996<67.25 74.75 74.75 248.7>
VStem: 248.7 74.0996<148.55 330>
LayerCount: 2
Back
Fore
SplineSet
496.25 0 m 2
 74.25 0 l 2
 59.25 0 46.25 16.150390625 46.25 37.0498046875 c 0
 46.25 57.9501953125 59.45703125 74.1005859375 74.25 74.099609375 c 2
 74.25 74.099609375 496.092773438 74.3076171875 496.25 74.099609375 c 0
 511.25 74.099609375 524.25 57.9501953125 524.25 37.0498046875 c 0
 524.25 16.150390625 511.25 0.42578125 496.25 0 c 2
496.75 330 m 2
 322.885742188 330 l 1
 322.90234375 238.233398438 322.891601562 156.119140625 322.799804688 156.049804688 c 0
 322.799804688 141.049804688 306.650390625 128.049804688 285.75 128.049804688 c 0
 264.850585938 128.049804688 249.125976562 141.049804688 248.700195312 156.049804688 c 2
 248.700195312 330 l 1
 74.75 330 l 2
 59.75 330 46.75 346.150390625 46.75 367.049804688 c 0
 46.75 387.950195312 59.95703125 404.100585938 74.75 404.099609375 c 2
 74.75 404.099609375 156.89453125 404.139648438 248.700195312 404.16796875 c 1
 248.700195312 578.049804688 l 2
 248.700195312 593.049804688 264.850585938 606.049804688 285.75 606.049804688 c 0
 306.650390625 606.049804688 322.80078125 592.842773438 322.799804688 578.049804688 c 2
 322.799804688 578.049804688 322.83984375 495.956054688 322.8671875 404.185546875 c 1
 414.606445312 404.202148438 496.680664062 404.19140625 496.75 404.099609375 c 0
 511.75 404.099609375 524.75 387.950195312 524.75 367.049804688 c 0
 524.75 346.150390625 511.75 330.42578125 496.75 330 c 2
EndSplineSet
EndChar

StartChar: uni00B2
Encoding: 178 178 114
GlifName: uni00B_2
Width: 396
GlyphClass: 2
Flags: MW
HStem: 410.821 37.3975<168.37 224.13 168.37 236.625> 515.895 37.3984<112.375 130.75> 662.607 37.3984<171.87 227.63>
VStem: 49.9502 41.2354<464.083 480.031 464.083 519.34> 304.814 41.2354<591.295 636.994>
LayerCount: 2
Back
Fore
SplineSet
331.25 411.181640625 m 2
 331.25 411.181640625 277 410.821289062 196.25 410.821289062 c 0
 115.5 410.821289062 49.9501953125 401.491210938 49.9501953125 479.556640625 c 0
 49.9501953125 559.123046875 94 553.29296875 130.75 553.29296875 c 0
 211.5 553.29296875 265.75 552.931640625 265.75 552.931640625 c 2
 293.009765625 552.931640625 304.814453125 575.321289062 304.814453125 607.26953125 c 0
 304.814453125 666.71875 255.509765625 662.607421875 199.75 662.607421875 c 0
 143.990234375 662.607421875 64.75 662.594726562 64.75 662.594726562 c 2
 57.25 662.594726562 50.75 670.669921875 50.75 681.120117188 c 0
 50.75 691.569335938 57.25 699.64453125 64.75 699.64453125 c 2
 64.75 699.64453125 119 700.005859375 199.75 700.005859375 c 0
 280.5 700.005859375 346.049804688 687.3359375 346.049804688 607.26953125 c 0
 346.049804688 534.204101562 313.5 515.534179688 265.75 515.534179688 c 0
 185 515.534179688 130.75 515.89453125 130.75 515.89453125 c 2
 74.990234375 515.89453125 91.185546875 480.505859375 91.185546875 479.556640625 c 0
 91.185546875 448.608398438 140.490234375 448.21875 196.25 448.21875 c 0
 252.009765625 448.21875 331.25 448.231445312 331.25 448.231445312 c 2
 338.75 448.231445312 345.25 440.157226562 345.25 429.70703125 c 0
 345.25 419.256835938 338.75 411.181640625 331.25 411.181640625 c 2
EndSplineSet
EndChar

StartChar: uni00B3
Encoding: 179 179 115
GlifName: uni00B_3
Width: 431
GlyphClass: 2
Flags: MW
HStem: 409.529 37.3975<210.134 265.894 210.134 278.389> 536.09 37.0498<56.9365 257.687 60.6865 257.687> 662.603 37.3975<210.134 265.894>
VStem: 343.078 41.2354<525.041 584.489>
LayerCount: 2
Back
Fore
SplineSet
60.6865234375 573.139648438 m 2
 257.686523438 573.139648438 l 2
 265.186523438 573.139648438 271.686523438 564.564453125 271.686523438 554.115234375 c 0
 271.686523438 543.6640625 265.083007812 536.08984375 257.686523438 536.08984375 c 2
 257.686523438 536.08984375 60.765625 535.986328125 60.6865234375 536.08984375 c 0
 53.1865234375 536.08984375 46.6865234375 544.1640625 46.6865234375 554.615234375 c 0
 46.6865234375 565.064453125 53.1865234375 572.926757812 60.6865234375 573.139648438 c 2
103.013671875 699.639648438 m 2
 103.013671875 699.639648438 157.263671875 700 238.013671875 700 c 0
 318.763671875 700 384.313476562 634.830078125 384.313476562 554.764648438 c 0
 384.313476562 474.69921875 318.763671875 409.529296875 238.013671875 409.529296875 c 0
 157.263671875 409.529296875 103.013671875 409.889648438 103.013671875 409.889648438 c 2
 95.513671875 409.889648438 89.013671875 417.96484375 89.013671875 428.4140625 c 0
 89.013671875 438.865234375 95.513671875 446.939453125 103.013671875 446.939453125 c 2
 103.013671875 446.939453125 182.25390625 446.926757812 238.013671875 446.926757812 c 0
 293.7734375 446.926757812 343.078125 495.31640625 343.078125 554.764648438 c 0
 343.078125 614.212890625 293.7734375 662.602539062 238.013671875 662.602539062 c 0
 182.25390625 662.602539062 103.013671875 662.58984375 103.013671875 662.58984375 c 2
 95.513671875 662.58984375 89.013671875 670.6640625 89.013671875 681.115234375 c 0
 89.013671875 691.564453125 95.513671875 699.639648438 103.013671875 699.639648438 c 2
EndSplineSet
EndChar

StartChar: acute
Encoding: 180 180 116
GlifName: acute
Width: 229
GlyphClass: 2
Flags: MW
HStem: 557.5 21G 607.5 92.5<107.875 167.369>
LayerCount: 2
Back
Fore
SplineSet
177.051757812 653.75 m 0
 165.39453125 628.75 136.735351562 607.5 111.735351562 607.5 c 0
 104.013671875 607.5 97.7138671875 609.52734375 93.0380859375 613.06640625 c 1
 75.91015625 577.020507812 97.7978515625 571.014648438 119.669921875 557.5 c 1
 86.80859375 562.083984375 45.4150390625 572.5 46.9111328125 583.75 c 0
 48.23828125 600 73.7734375 633.318359375 88.3017578125 653.75 c 1
 99.9599609375 678.75 129.869140625 700 154.869140625 700 c 0
 179.869140625 700 188.709960938 678.75 177.051757812 653.75 c 0
EndSplineSet
EndChar

StartChar: mu
Encoding: 181 181 117
GlifName: mu
Width: 699
GlyphClass: 2
Flags: MW
HStem: 0 82.4707<306.627 409.011 290.114 429.628>
VStem: 59.0586 74.8281<236.84 348.36 236.84 497> 565.238 74.7959<236.84 348.36>
LayerCount: 2
Back
Fore
SplineSet
59.05859375 497 m 0
 59.05859375 532.768554688 59.8125 562.599609375 59.8125 562.599609375 c 2
 59.8125 577.599609375 75.962890625 590.599609375 96.8623046875 590.599609375 c 0
 117.762695312 590.599609375 133.912109375 577.599609375 133.912109375 562.599609375 c 2
 133.912109375 562.599609375 133.88671875 404.120117188 133.88671875 292.599609375 c 0
 133.88671875 181.080078125 230.665039062 82.470703125 349.5625 82.470703125 c 0
 468.459960938 82.470703125 565.23828125 181.080078125 565.23828125 292.599609375 c 0
 565.23828125 404.120117188 565.212890625 562.599609375 565.212890625 562.599609375 c 2
 565.212890625 577.599609375 581.362304688 590.599609375 602.262695312 590.599609375 c 0
 623.162109375 590.599609375 639.3125 577.599609375 639.3125 562.599609375 c 2
 639.3125 562.599609375 640.034179688 454.099609375 640.034179688 292.599609375 c 0
 640.034179688 131.099609375 509.694335938 0 349.5625 0 c 0
 263.692382812 0 186.389648438 37.69921875 133.158203125 97.568359375 c 1
 133.158203125 -37 l 2
 133.158203125 -52 117.0078125 -65 96.1083984375 -65 c 0
 75.2080078125 -65 59.0576171875 -51.79296875 59.05859375 -37 c 2
 59.05859375 -37 58.8505859375 496.842773438 59.05859375 497 c 0
EndSplineSet
EndChar

StartChar: paragraph
Encoding: 182 182 118
GlifName: paragraph
Width: 489
GlyphClass: 2
Flags: MW
HStem: 515.9 74.0996<318.119 362.943 318.119 318.119>
VStem: 52.4697 265.649<414.489 424.094> 244.02 74.0996<20.5 28> 363.02 74.0996<20.5 28>
LayerCount: 2
Back
Fore
SplineSet
437.119140625 562 m 2xd0
 437.119140625 28 l 2
 437.119140625 13 420.96875 0 400.069335938 0 c 0
 379.168945312 0 363.018554688 13.20703125 363.01953125 28 c 2
 363.01953125 28 362.879882812 386.279296875 362.943359375 515.900390625 c 1
 318.119140625 515.900390625 l 1
 318.119140625 28 l 2
 318.119140625 13 301.96875 0 281.069335938 0 c 0
 260.168945312 0 244.018554688 13.20703125 244.01953125 28 c 2xb0
 244.01953125 28 243.96875 156.915039062 243.942382812 288.063476562 c 1
 84.287109375 289.114257812 52.4697265625 408.450195312 52.4697265625 420.528320312 c 0
 52.4697265625 427.66015625 34.5693359375 589.998046875 196.069335938 590 c 2
 196.069335938 590 399.912109375 590.208007812 400.069335938 590 c 0
 420.96875 590 436.693359375 577 437.119140625 562 c 2xd0
EndSplineSet
EndChar

StartChar: periodcentered
Encoding: 183 183 119
GlifName: periodcentered
Width: 200
GlyphClass: 2
Flags: MW
HStem: 218.75 92.5<86.875 111.875>
VStem: 55.625 88.75<252.5 277.5>
LayerCount: 2
Back
Fore
SplineSet
55.625 265 m 0
 55.625 290 74.375 311.25 99.375 311.25 c 0
 124.375 311.25 144.375 290 144.375 265 c 0
 144.375 240 124.375 218.75 99.375 218.75 c 0
 74.375 218.75 55.625 240 55.625 265 c 0
EndSplineSet
EndChar

StartChar: cedilla
Encoding: 184 184 120
GlifName: cedilla
Width: 204
GlyphClass: 2
Flags: MW
HStem: -50.25 92.5<83.5039 99.8647 83.5039 108.504>
VStem: 52.2539 88.75<-16.5 -4 -16.5 8.5> 117.297 32.457
LayerCount: 2
Back
Fore
SplineSet
52.25390625 -4 m 0xc0
 52.25390625 21 71.00390625 42.25 96.00390625 42.25 c 0
 103.725585938 42.25 110.970703125 40.22265625 117.296875 36.68359375 c 1
 117.616210938 72.7294921875 92.927734375 78.7353515625 64.75390625 92.25 c 1
 99.7529296875 87.666015625 146.00390625 77.25 149.75390625 66 c 0xa0
 156.00390625 49.75 146.004882812 16.431640625 141.00390625 -4 c 1
 141.00390625 -29 121.00390625 -50.25 96.00390625 -50.25 c 0
 71.00390625 -50.25 52.25390625 -29 52.25390625 -4 c 0xc0
EndSplineSet
EndChar

StartChar: uni00B9
Encoding: 185 185 121
GlifName: uni00B_9
Width: 195
GlyphClass: 2
Flags: MW
HStem: 405 295<128.711 133.936 128.711 133.936>
VStem: 110.186 37.0498<415.302 419>
LayerCount: 2
Back
Fore
SplineSet
110.141601562 637.55859375 m 1
 77.2294921875 604.647460938 l 2
 71.9267578125 599.34375 61.6201171875 600.458007812 54.2314453125 607.846679688 c 0
 46.841796875 615.236328125 45.80078125 625.615234375 51.03125 630.845703125 c 2
 51.03125 630.845703125 106.079101562 685.93359375 106.185546875 686 c 0
 111.489257812 691.302734375 115.9375 701 128.7109375 700 c 0
 139.16015625 700 147.022460938 693.5 147.235351562 686 c 2
 147.235351562 419 l 2
 147.235351562 411.5 139.16015625 405 128.7109375 405 c 0
 118.260742188 405 110.185546875 411.603515625 110.185546875 419 c 2
 110.185546875 419 110.141601562 557.180664062 110.141601562 637.55859375 c 1
EndSplineSet
EndChar

StartChar: ordmasculine
Encoding: 186 186 122
GlifName: ordmasculine
Width: 311
GlyphClass: 2
Flags: MW
HStem: 495.18 28.8652<133.598 177.402 133.598 184.998> 671.135 28.8652<133.598 177.402>
VStem: 48.4844 27.5557<578.074 617.106 578.074 625.853> 234.96 27.5557<578.074 617.106>
LayerCount: 2
Back
Fore
SplineSet
76.0400390625 597.58984375 m 0
 76.0400390625 558.557617188 111.6953125 524.044921875 155.5 524.044921875 c 0
 199.3046875 524.044921875 234.959960938 558.557617188 234.959960938 597.58984375 c 0
 234.959960938 636.622070312 199.3046875 671.134765625 155.5 671.134765625 c 0
 111.6953125 671.134765625 76.0400390625 636.622070312 76.0400390625 597.58984375 c 0
48.484375 597.58984375 m 0
 48.484375 654.115234375 96.50390625 700 155.5 700 c 0
 214.49609375 700 262.515625 654.115234375 262.515625 597.58984375 c 0
 262.515625 541.064453125 214.49609375 495.1796875 155.5 495.1796875 c 0
 96.50390625 495.1796875 48.484375 541.064453125 48.484375 597.58984375 c 0
EndSplineSet
EndChar

StartChar: guillemotright
Encoding: 187 187 123
GlifName: guillemotright
Width: 588
GlyphClass: 2
Flags: W
LayerCount: 2
Back
Fore
SplineSet
317.5 343 m 0
 317.5 322.099609375 304.5 301.166015625 289.5 295.645507812 c 0
 289.342773438 295.37890625 75.5 152.3515625 75.5 152.3515625 c 1
 60.70703125 148.267578125 47.5 156.734375 47.5 172.41015625 c 0
 47.5 188.084960938 60.5 203.78515625 75.5 207.92578125 c 1
 250.833007812 343 l 1
 75.5 478.07421875 l 1
 60.5 482.21484375 47.5 497.915039062 47.5 513.58984375 c 0
 47.5 529.265625 60.70703125 537.732421875 75.5 533.6484375 c 1
 75.5 533.6484375 289.342773438 390.62109375 289.5 390.354492188 c 0
 304.5 384.833984375 317.5 363.900390625 317.5 343 c 0
540.5 343 m 0
 540.5 322.099609375 527.5 301.166015625 512.5 295.645507812 c 0
 512.342773438 295.37890625 298.5 152.3515625 298.5 152.3515625 c 1
 283.70703125 148.267578125 270.5 156.734375 270.5 172.41015625 c 0
 270.5 188.084960938 283.5 203.78515625 298.5 207.92578125 c 1
 473.833007812 343 l 1
 298.5 478.07421875 l 1
 283.5 482.21484375 270.5 497.915039062 270.5 513.58984375 c 0
 270.5 529.265625 283.70703125 537.732421875 298.5 533.6484375 c 1
 298.5 533.6484375 512.342773438 390.62109375 512.5 390.354492188 c 0
 527.5 384.833984375 540.5 363.900390625 540.5 343 c 0
EndSplineSet
EndChar

StartChar: onequarter
Encoding: 188 188 124
GlifName: onequarter
Width: 588
GlyphClass: 2
Flags: MW
HStem: 119.614 37.3975<403.231 426.125> 257.688 37.3984<426 426>
VStem: 113.905 37.0508<333.802 337.5> 457.062 37.0498<10.25 14>
LayerCount: 2
Back
Fore
SplineSet
478.861328125 590 m 2
 116.045898438 28 l 2
 106.362304688 13 81.8203125 0 60.9208984375 0 c 0
 40.0205078125 0 32.3955078125 13.20703125 41.9462890625 28 c 2
 41.9462890625 28 404.451171875 589.842773438 404.76171875 590 c 0
 414.4453125 605 438.986328125 618 459.88671875 618 c 0
 480.786132812 618 488.119140625 605 478.861328125 590 c 2
494.125 278.700195312 m 1
 494.125 156.6640625 l 1
 536.125 156.6640625 l 2
 543.625 156.6640625 550.125 148.588867188 550.125 138.138671875 c 0
 550.125 127.689453125 543.521484375 119.61328125 536.125 119.614257812 c 2
 536.125 119.614257812 519.653320312 119.59375 494.112304688 119.580078125 c 1
 494.112304688 14 l 2
 494.112304688 6.5 486.037109375 0 475.586914062 0 c 0
 465.13671875 0 457.061523438 6.603515625 457.0625 14 c 2
 457.0625 14 457.041015625 60.5009765625 457.02734375 119.568359375 c 1
 439.4375 119.568359375 426.151367188 119.579101562 426.125 119.614257812 c 0
 380.336914062 119.614257812 357.909179688 119.19921875 282.586914062 119.5078125 c 1
 260.9609375 124.32421875 271.849609375 138.43359375 284.825195312 157.349609375 c 0
 336.3046875 232.404296875 381.283203125 293.080078125 426.125 295.0859375 c 0
 498.703125 298.333007812 494.125 278.700195312 494.125 278.700195312 c 1
457.036132812 257.95703125 m 1
 449.412109375 257.95703125 439.354492188 257.86328125 426.125 257.6875 c 0
 404.98828125 257.408203125 382.09375 235.4296875 334.060546875 165.349609375 c 0
 327.204101562 155.34765625 352.865234375 157.01171875 426.125 157.01171875 c 2
 426.125 157.01171875 429.340820312 157.017578125 457.020507812 157.021484375 c 1
 457.013671875 197.03515625 457.036132812 235.9921875 457.036132812 257.95703125 c 1
113.861328125 556.05859375 m 1
 80.9501953125 523.147460938 l 2
 75.646484375 517.84375 65.3408203125 518.958007812 57.951171875 526.34765625 c 0
 50.5615234375 533.736328125 49.5205078125 544.115234375 54.7509765625 549.345703125 c 2
 54.7509765625 549.345703125 109.798828125 604.43359375 109.905273438 604.5 c 0
 115.208984375 609.802734375 119.657226562 619.5 132.430664062 618.5 c 0
 142.879882812 618.5 150.743164062 612 150.956054688 604.5 c 2
 150.956054688 337.5 l 2
 150.956054688 330 142.879882812 323.5 132.430664062 323.5 c 0
 121.98046875 323.5 113.905273438 330.103515625 113.905273438 337.5 c 2
 113.905273438 337.5 113.861328125 475.681640625 113.861328125 556.05859375 c 1
EndSplineSet
EndChar

StartChar: onehalf
Encoding: 189 189 125
GlifName: onehalf
Width: 669
GlyphClass: 2
Flags: MW
HStem: 0 37.3984<448.576 504.336 448.576 516.831> 105.074 37.3984<392.581 410.956> 251.787 37.3984<452.076 507.836>
VStem: 118.774 37.0508<333.802 337.5> 330.156 41.2354<53.2617 69.2109 53.2617 108.52> 585.021 41.2354<180.475 226.174>
LayerCount: 2
Back
Fore
SplineSet
483.73046875 590 m 2
 120.915039062 28 l 2
 111.231445312 13 86.689453125 0 65.7900390625 0 c 0
 44.8896484375 0 37.2646484375 13.20703125 46.8154296875 28 c 2
 46.8154296875 28 409.3203125 589.842773438 409.630859375 590 c 0
 419.314453125 605 443.85546875 618 464.755859375 618 c 0
 485.655273438 618 492.98828125 605 483.73046875 590 c 2
611.456054688 0.361328125 m 2
 611.456054688 0.361328125 557.206054688 0 476.456054688 0 c 0
 395.706054688 0 330.15625 -9.330078125 330.15625 68.736328125 c 0
 330.15625 148.302734375 374.206054688 142.47265625 410.956054688 142.47265625 c 0
 491.706054688 142.47265625 545.956054688 142.111328125 545.956054688 142.111328125 c 2
 573.215820312 142.111328125 585.020507812 164.5 585.020507812 196.44921875 c 0
 585.020507812 255.8984375 535.715820312 251.787109375 479.956054688 251.787109375 c 0
 424.196289062 251.787109375 344.956054688 251.774414062 344.956054688 251.774414062 c 2
 337.456054688 251.774414062 330.956054688 259.849609375 330.956054688 270.298828125 c 0
 330.956054688 280.749023438 337.456054688 288.82421875 344.956054688 288.82421875 c 2
 344.956054688 288.82421875 399.206054688 289.185546875 479.956054688 289.185546875 c 0
 560.706054688 289.185546875 626.255859375 276.515625 626.255859375 196.44921875 c 0
 626.255859375 123.3828125 593.706054688 104.712890625 545.956054688 104.712890625 c 0
 465.206054688 104.712890625 410.956054688 105.07421875 410.956054688 105.07421875 c 2
 355.196289062 105.07421875 371.391601562 69.685546875 371.391601562 68.736328125 c 0
 371.391601562 37.787109375 420.696289062 37.3984375 476.456054688 37.3984375 c 0
 532.215820312 37.3984375 611.456054688 37.4111328125 611.456054688 37.4111328125 c 2
 618.956054688 37.4111328125 625.456054688 29.3359375 625.456054688 18.88671875 c 0
 625.456054688 8.4365234375 618.956054688 0.361328125 611.456054688 0.361328125 c 2
118.73046875 556.05859375 m 1
 85.8193359375 523.147460938 l 2
 80.515625 517.84375 70.2099609375 518.958007812 62.8203125 526.34765625 c 0
 55.4306640625 533.736328125 54.3896484375 544.115234375 59.6201171875 549.345703125 c 2
 59.6201171875 549.345703125 114.66796875 604.43359375 114.774414062 604.5 c 0
 120.078125 609.802734375 124.526367188 619.5 137.299804688 618.5 c 0
 147.749023438 618.5 155.612304688 612 155.825195312 604.5 c 2
 155.825195312 337.5 l 2
 155.825195312 330 147.749023438 323.5 137.299804688 323.5 c 0
 126.849609375 323.5 118.774414062 330.103515625 118.774414062 337.5 c 2
 118.774414062 337.5 118.73046875 475.681640625 118.73046875 556.05859375 c 1
EndSplineSet
EndChar

StartChar: threequarters
Encoding: 190 190 126
GlifName: threequarters
Width: 673
GlyphClass: 2
Flags: MW
HStem: 119.614 37.3975<490.039 512.933> 257.688 37.3984<512 512> 327.529 37.3975<161.515 217.274 161.515 229.77> 454.09 37.0498<46.3174 209.067 50.0674 209.067> 580.603 37.3975<161.515 217.274>
VStem: 294.459 41.2354<443.041 502.489> 543.87 37.0498<10.25 14>
LayerCount: 2
Back
Fore
SplineSet
565.668945312 590 m 2
 202.853515625 28 l 2
 193.169921875 13 168.627929688 0 147.728515625 0 c 0
 126.828125 0 119.203125 13.20703125 128.75390625 28 c 2
 128.75390625 28 491.258789062 589.842773438 491.569335938 590 c 0
 501.252929688 605 525.793945312 618 546.694335938 618 c 0
 567.59375 618 574.926757812 605 565.668945312 590 c 2
580.932617188 278.700195312 m 1
 580.932617188 156.6640625 l 1
 622.932617188 156.6640625 l 2
 630.432617188 156.6640625 636.932617188 148.588867188 636.932617188 138.138671875 c 0
 636.932617188 127.689453125 630.329101562 119.61328125 622.932617188 119.614257812 c 2
 622.932617188 119.614257812 606.4609375 119.59375 580.919921875 119.580078125 c 1
 580.919921875 14 l 2
 580.919921875 6.5 572.844726562 0 562.39453125 0 c 0
 551.944335938 0 543.869140625 6.603515625 543.870117188 14 c 2
 543.870117188 14 543.848632812 60.5009765625 543.834960938 119.568359375 c 1
 526.245117188 119.568359375 512.958984375 119.579101562 512.932617188 119.614257812 c 0
 467.14453125 119.614257812 444.716796875 119.19921875 369.39453125 119.5078125 c 1
 347.768554688 124.32421875 358.657226562 138.43359375 371.6328125 157.349609375 c 0
 423.112304688 232.404296875 468.090820312 293.080078125 512.932617188 295.0859375 c 0
 585.510742188 298.333007812 580.932617188 278.700195312 580.932617188 278.700195312 c 1
543.84375 257.95703125 m 1
 536.219726562 257.95703125 526.162109375 257.86328125 512.932617188 257.6875 c 0
 491.795898438 257.408203125 468.901367188 235.4296875 420.868164062 165.349609375 c 0
 414.01171875 155.34765625 439.672851562 157.01171875 512.932617188 157.01171875 c 2
 512.932617188 157.01171875 516.1484375 157.017578125 543.828125 157.021484375 c 1
 543.821289062 197.03515625 543.84375 235.9921875 543.84375 257.95703125 c 1
50.0673828125 491.139648438 m 2
 209.067382812 491.139648438 l 2
 216.567382812 491.139648438 223.067382812 482.564453125 223.067382812 472.115234375 c 0
 223.067382812 461.6640625 216.463867188 454.08984375 209.067382812 454.08984375 c 2
 209.067382812 454.08984375 50.146484375 453.986328125 50.0673828125 454.08984375 c 0
 42.5673828125 454.08984375 36.0673828125 462.1640625 36.0673828125 472.615234375 c 0
 36.0673828125 483.064453125 42.5673828125 490.926757812 50.0673828125 491.139648438 c 2
92.39453125 617.639648438 m 2
 92.39453125 617.639648438 108.64453125 618 189.39453125 618 c 0
 270.14453125 618 335.694335938 552.830078125 335.694335938 472.764648438 c 0
 335.694335938 392.69921875 270.14453125 327.529296875 189.39453125 327.529296875 c 0
 108.64453125 327.529296875 92.39453125 327.889648438 92.39453125 327.889648438 c 2
 84.89453125 327.889648438 78.39453125 335.96484375 78.39453125 346.4140625 c 0
 78.39453125 356.865234375 84.89453125 364.939453125 92.39453125 364.939453125 c 2
 92.39453125 364.939453125 133.634765625 364.926757812 189.39453125 364.926757812 c 0
 245.154296875 364.926757812 294.458984375 413.31640625 294.458984375 472.764648438 c 0
 294.458984375 532.212890625 245.154296875 580.602539062 189.39453125 580.602539062 c 0
 133.634765625 580.602539062 92.39453125 580.58984375 92.39453125 580.58984375 c 2
 84.89453125 580.58984375 78.39453125 588.6640625 78.39453125 599.115234375 c 0
 78.39453125 609.564453125 84.89453125 617.639648438 92.39453125 617.639648438 c 2
EndSplineSet
EndChar

StartChar: questiondown
Encoding: 191 191 127
GlifName: questiondown
Width: 593
GlyphClass: 2
Flags: MW
HStem: 0 64.3242<251.404 342.132 251.404 363.623> 217.942 63.7998<310.776 310.776 310.776 350.422> 501.041 79.5498<331.33 352.83>
VStem: 303.38 76.3252<530.066 551.566> 310.776 63.7256<281.742 447.605>
LayerCount: 2
Back
Fore
SplineSet
310.776367188 281.7421875 m 1xe8
 310.776367188 447.60546875 l 2
 310.776367188 460.504882812 324.666015625 471.685546875 342.639648438 471.685546875 c 0
 360.61328125 471.685546875 374.502929688 460.327148438 374.501953125 447.60546875 c 2
 374.501953125 447.60546875 374.680664062 249.940429688 374.501953125 249.805664062 c 0
 374.501953125 231.83203125 363.322265625 218.30859375 350.421875 217.942382812 c 2
 121.55859375 217.942382812 l 1
 148.016601562 132.15625 208.629882812 64.32421875 294.177734375 64.32421875 c 0
 390.0859375 64.32421875 526.377929688 64.345703125 526.377929688 64.345703125 c 2
 539.278320312 64.345703125 550.458007812 50.45703125 550.458007812 32.4833984375 c 0
 550.458007812 14.509765625 539.278320312 0.6201171875 526.377929688 0.6201171875 c 2
 526.377929688 0.6201171875 433.067382812 0 294.177734375 0 c 0
 155.288085938 0 42.5419921875 112.091796875 42.5419921875 249.805664062 c 0
 42.5419921875 267.779296875 53.900390625 281.668945312 66.6220703125 281.66796875 c 2
 66.6220703125 281.66796875 232.717773438 281.7734375 310.776367188 281.7421875 c 1xe8
379.705078125 540.81640625 m 0xf0
 379.705078125 519.31640625 363.580078125 501.041015625 342.080078125 501.041015625 c 0
 320.580078125 501.041015625 303.379882812 519.31640625 303.379882812 540.81640625 c 0
 303.379882812 562.31640625 320.580078125 580.590820312 342.080078125 580.590820312 c 0
 363.580078125 580.590820312 379.705078125 562.31640625 379.705078125 540.81640625 c 0xf0
EndSplineSet
EndChar

StartChar: Agrave
Encoding: 192 192 128
GlifName: A_grave
Width: 720
GlyphClass: 2
Flags: MW
HStem: 0 82.4707<297.422 406.107> 502.729 82.4707<297.422 422.578> 666 92.5<312.801 372.295>
VStem: 54.2402 78.7324<236.839 348.359 236.839 373.35> 591.15 74.0996<2.9707 10.4707 2.9707 24.7627>
LayerCount: 2
Back
Fore
SplineSet
665.25 10.470703125 m 2
 665.25 -4.529296875 591.150390625 -5.529296875 591.150390625 9.470703125 c 0
 591.150390625 40.0546875 591.157226562 70.638671875 591.157226562 101.221679688 c 1
 535.04296875 39.236328125 452.213867188 0 360 0 c 0
 191.440429688 0 54.240234375 131.099609375 54.240234375 292.599609375 c 0
 54.240234375 454.099609375 191.440429688 585.19921875 360 585.19921875 c 0
 528.559570312 585.19921875 665.759765625 454.099609375 665.759765625 292.599609375 c 2
 665.25 10.470703125 l 2
132.97265625 292.599609375 m 0
 132.97265625 181.079101562 234.844726562 82.470703125 360 82.470703125 c 0
 485.155273438 82.470703125 587.02734375 181.079101562 587.02734375 292.599609375 c 0
 587.02734375 404.119140625 485.155273438 502.728515625 360 502.728515625 c 0
 234.844726562 502.728515625 132.97265625 404.119140625 132.97265625 292.599609375 c 0
303.118164062 712.25 m 0
 291.459960938 737.25 300.30078125 758.5 325.30078125 758.5 c 0
 350.30078125 758.5 380.209960938 737.25 391.868164062 712.25 c 1
 406.396484375 691.818359375 431.931640625 658.5 433.258789062 642.25 c 0
 434.754882812 631 393.361328125 620.583984375 360.5 616 c 1
 382.372070312 629.514648438 404.259765625 635.520507812 387.131835938 671.56640625 c 1
 382.456054688 668.02734375 376.15625 666 368.434570312 666 c 0
 343.434570312 666 314.775390625 687.25 303.118164062 712.25 c 0
EndSplineSet
EndChar

StartChar: Aacute
Encoding: 193 193 129
GlifName: A_acute
Width: 720
GlyphClass: 2
Flags: MW
HStem: 0 82.4707<297.422 406.107> 502.729 82.4707<297.422 422.578> 666 92.5<345.082 404.576>
VStem: 54.2402 78.7324<236.839 348.359 236.839 373.35> 591.15 74.0996<2.9707 10.4707 2.9707 24.7627>
LayerCount: 2
Back
Fore
SplineSet
665.25 10.470703125 m 2
 665.25 -4.529296875 591.150390625 -5.529296875 591.150390625 9.470703125 c 0
 591.150390625 40.0546875 591.157226562 70.638671875 591.157226562 101.221679688 c 1
 535.04296875 39.236328125 452.213867188 0 360 0 c 0
 191.440429688 0 54.240234375 131.099609375 54.240234375 292.599609375 c 0
 54.240234375 454.099609375 191.440429688 585.19921875 360 585.19921875 c 0
 528.559570312 585.19921875 665.759765625 454.099609375 665.759765625 292.599609375 c 2
 665.25 10.470703125 l 2
132.97265625 292.599609375 m 0
 132.97265625 181.079101562 234.844726562 82.470703125 360 82.470703125 c 0
 485.155273438 82.470703125 587.02734375 181.079101562 587.02734375 292.599609375 c 0
 587.02734375 404.119140625 485.155273438 502.728515625 360 502.728515625 c 0
 234.844726562 502.728515625 132.97265625 404.119140625 132.97265625 292.599609375 c 0
414.258789062 712.25 m 0
 402.6015625 687.25 373.942382812 666 348.942382812 666 c 0
 341.220703125 666 334.920898438 668.02734375 330.245117188 671.56640625 c 1
 313.1171875 635.520507812 335.004882812 629.514648438 356.876953125 616 c 1
 324.015625 620.583984375 282.622070312 631 284.118164062 642.25 c 0
 285.4453125 658.5 310.98046875 691.818359375 325.508789062 712.25 c 1
 337.166992188 737.25 367.076171875 758.5 392.076171875 758.5 c 0
 417.076171875 758.5 425.916992188 737.25 414.258789062 712.25 c 0
EndSplineSet
EndChar

StartChar: Acircumflex
Encoding: 194 194 130
GlifName: A_circumflex
Width: 720
GlyphClass: 2
Flags: MW
HStem: 0 82.4707<297.422 406.107> 502.729 82.4707<297.422 422.578>
VStem: 54.2402 78.7324<236.839 348.359 236.839 373.35> 249.626 51.0195<623.85 633.143> 413.354 51.0195<623.85 633.143> 591.15 74.0996<2.9707 10.4707 2.9707 24.7627>
LayerCount: 2
Back
Fore
SplineSet
665.25 10.470703125 m 2
 665.25 -4.529296875 591.150390625 -5.529296875 591.150390625 9.470703125 c 0
 591.150390625 40.0546875 591.157226562 70.638671875 591.157226562 101.221679688 c 1
 535.04296875 39.236328125 452.213867188 0 360 0 c 0
 191.440429688 0 54.240234375 131.099609375 54.240234375 292.599609375 c 0
 54.240234375 454.099609375 191.440429688 585.19921875 360 585.19921875 c 0
 528.559570312 585.19921875 665.759765625 454.099609375 665.759765625 292.599609375 c 2
 665.25 10.470703125 l 2
132.97265625 292.599609375 m 0
 132.97265625 181.079101562 234.844726562 82.470703125 360 82.470703125 c 0
 485.155273438 82.470703125 587.02734375 181.079101562 587.02734375 292.599609375 c 0
 587.02734375 404.119140625 485.155273438 502.728515625 360 502.728515625 c 0
 234.844726562 502.728515625 132.97265625 404.119140625 132.97265625 292.599609375 c 0
357 763.31640625 m 0
 371.676757812 763.31640625 385.768554688 755.435546875 391.744140625 742.7734375 c 0
 399.352539062 731.5 462.690429688 636.80078125 462.713867188 636.765625 c 2
 463.836914062 635.087890625 l 1
 464.374023438 633.142578125 l 2
 466.493164062 625.461914062 465.139648438 616.75390625 459.342773438 610.5 c 0
 455.005859375 605.822265625 448.709960938 603.31640625 442.294921875 603.31640625 c 0
 428.529296875 603.31640625 417.690429688 613.009765625 413.354492188 623.849609375 c 2
 357 697 l 1
 300.645507812 623.849609375 l 2
 295.899414062 611.984375 285.075195312 603.31640625 271.705078125 603.31640625 c 0
 265.604492188 603.31640625 259.590820312 605.571289062 255.280273438 609.85546875 c 0
 248.979492188 616.1171875 247.430664062 625.189453125 249.625976562 633.142578125 c 2
 250.163085938 635.087890625 l 1
 251.286132812 636.765625 l 1
 251.286132812 636.765625 315.26953125 732.421875 322.254882812 742.7734375 c 0
 328.642578125 756.306640625 342.721679688 763.31640625 357 763.31640625 c 0
EndSplineSet
EndChar

StartChar: Atilde
Encoding: 195 195 131
GlifName: A_tilde
Width: 720
GlyphClass: 2
Flags: MW
HStem: 0 82.4707<297.422 406.107> 502.729 82.4707<297.422 422.578>
VStem: 54.2402 78.7324<236.839 348.359 236.839 373.35> 591.15 74.0996<2.9707 10.4707 2.9707 24.7627>
LayerCount: 2
Back
Fore
SplineSet
665.25 10.470703125 m 2
 665.25 -4.529296875 591.150390625 -5.529296875 591.150390625 9.470703125 c 0
 591.150390625 40.0546875 591.157226562 70.638671875 591.157226562 101.221679688 c 1
 535.04296875 39.236328125 452.213867188 0 360 0 c 0
 191.440429688 0 54.240234375 131.099609375 54.240234375 292.599609375 c 0
 54.240234375 454.099609375 191.440429688 585.19921875 360 585.19921875 c 0
 528.559570312 585.19921875 665.759765625 454.099609375 665.759765625 292.599609375 c 2
 665.25 10.470703125 l 2
132.97265625 292.599609375 m 0
 132.97265625 181.079101562 234.844726562 82.470703125 360 82.470703125 c 0
 485.155273438 82.470703125 587.02734375 181.079101562 587.02734375 292.599609375 c 0
 587.02734375 404.119140625 485.155273438 502.728515625 360 502.728515625 c 0
 234.844726562 502.728515625 132.97265625 404.119140625 132.97265625 292.599609375 c 0
381.33984375 730.993164062 m 1
 393.436523438 720.833007812 389.32421875 716.982421875 393.245117188 702.350585938 c 0
 396.94140625 688.553710938 407.333007812 677.030273438 435.690429688 684.62890625 c 0
 465.2734375 692.5546875 466.709960938 709.544921875 463.587890625 721.19921875 c 0
 462.383789062 725.690429688 469.405273438 766.98046875 481.352539062 751.1484375 c 1
 481.352539062 751.1484375 483.244140625 751.986328125 485.018554688 752.461914062 c 0
 497.594726562 755.83203125 514.72265625 751.70703125 518.924804688 736.02734375 c 0
 537.78125 665.647460938 482.5078125 634.487304688 451.361328125 626.140625 c 0
 426.21875 619.404296875 377.071289062 614.240234375 349.8125 658.881835938 c 1
 337.715820312 669.041992188 341.828125 672.892578125 337.907226562 687.524414062 c 0
 334.2109375 701.321289062 323.819335938 712.844726562 295.461914062 705.24609375 c 0
 265.87890625 697.3203125 264.442382812 680.330078125 267.564453125 668.67578125 c 0
 268.768554688 664.184570312 261.747070312 622.89453125 249.799804688 638.7265625 c 1
 249.799804688 638.7265625 247.908203125 637.888671875 246.133789062 637.413085938 c 0
 233.557617188 634.04296875 216.4296875 638.16796875 212.227539062 653.84765625 c 0
 193.37109375 724.227539062 248.64453125 755.387695312 279.791015625 763.734375 c 0
 304.93359375 770.470703125 354.081054688 775.634765625 381.33984375 730.993164062 c 1
EndSplineSet
EndChar

StartChar: Adieresis
Encoding: 196 196 132
GlifName: A_dieresis
Width: 720
GlyphClass: 2
Flags: MW
HStem: 0 82.4707<297.422 406.107> 502.729 82.4707<297.422 422.578> 631 88.75<268 293 415.5 440.5>
VStem: 54.2402 78.7324<236.839 348.359 236.839 373.35> 234.25 92.5<662.25 687.25> 381.75 92.5<662.25 687.25> 591.15 74.0996<2.9707 10.4707 2.9707 24.7627>
LayerCount: 2
Back
Fore
SplineSet
665.25 10.470703125 m 2
 665.25 -4.529296875 591.150390625 -5.529296875 591.150390625 9.470703125 c 0
 591.150390625 40.0546875 591.157226562 70.638671875 591.157226562 101.221679688 c 1
 535.04296875 39.236328125 452.213867188 0 360 0 c 0
 191.440429688 0 54.240234375 131.099609375 54.240234375 292.599609375 c 0
 54.240234375 454.099609375 191.440429688 585.19921875 360 585.19921875 c 0
 528.559570312 585.19921875 665.759765625 454.099609375 665.759765625 292.599609375 c 2
 665.25 10.470703125 l 2
132.97265625 292.599609375 m 0
 132.97265625 181.079101562 234.844726562 82.470703125 360 82.470703125 c 0
 485.155273438 82.470703125 587.02734375 181.079101562 587.02734375 292.599609375 c 0
 587.02734375 404.119140625 485.155273438 502.728515625 360 502.728515625 c 0
 234.844726562 502.728515625 132.97265625 404.119140625 132.97265625 292.599609375 c 0
280.5 631 m 0
 255.5 631 234.25 649.75 234.25 674.75 c 0
 234.25 699.75 255.5 719.75 280.5 719.75 c 0
 305.5 719.75 326.75 699.75 326.75 674.75 c 0
 326.75 649.75 305.5 631 280.5 631 c 0
428 631 m 0
 403 631 381.75 649.75 381.75 674.75 c 0
 381.75 699.75 403 719.75 428 719.75 c 0
 453 719.75 474.25 699.75 474.25 674.75 c 0
 474.25 649.75 453 631 428 631 c 0
EndSplineSet
EndChar

StartChar: Aring
Encoding: 197 197 133
GlifName: A_ring
Width: 720
GlyphClass: 2
Flags: MW
HStem: 0 82.4707<297.422 406.107> 502.729 82.4707<297.422 422.578> 624.603 43.7129<351.644 371.356 351.644 383.624> 734.505 43.7129<351.644 371.356>
VStem: 54.2402 78.7324<236.839 348.359 236.839 373.35> 281.238 44.5049<692.628 710.192 692.628 722.607> 397.257 44.5049<692.628 710.192> 591.15 74.0996<2.9707 10.4707 2.9707 24.7627>
LayerCount: 2
Back
Fore
SplineSet
665.25 10.470703125 m 2
 665.25 -4.529296875 591.150390625 -5.529296875 591.150390625 9.470703125 c 0
 591.150390625 40.0546875 591.157226562 70.638671875 591.157226562 101.221679688 c 1
 535.04296875 39.236328125 452.213867188 0 360 0 c 0
 191.440429688 0 54.240234375 131.099609375 54.240234375 292.599609375 c 0
 54.240234375 454.099609375 191.440429688 585.19921875 360 585.19921875 c 0
 528.559570312 585.19921875 665.759765625 454.099609375 665.759765625 292.599609375 c 2
 665.25 10.470703125 l 2
132.97265625 292.599609375 m 0
 132.97265625 181.079101562 234.844726562 82.470703125 360 82.470703125 c 0
 485.155273438 82.470703125 587.02734375 181.079101562 587.02734375 292.599609375 c 0
 587.02734375 404.119140625 485.155273438 502.728515625 360 502.728515625 c 0
 234.844726562 502.728515625 132.97265625 404.119140625 132.97265625 292.599609375 c 0
325.743164062 701.41015625 m 0
 325.743164062 683.845703125 341.788085938 668.315429688 361.5 668.315429688 c 0
 381.211914062 668.315429688 397.256835938 683.845703125 397.256835938 701.41015625 c 0
 397.256835938 718.974609375 381.211914062 734.504882812 361.5 734.504882812 c 0
 341.788085938 734.504882812 325.743164062 718.974609375 325.743164062 701.41015625 c 0
281.23828125 701.41015625 m 0
 281.23828125 743.8046875 317.252929688 778.217773438 361.5 778.217773438 c 0
 405.747070312 778.217773438 441.76171875 743.8046875 441.76171875 701.41015625 c 0
 441.76171875 659.015625 405.747070312 624.602539062 361.5 624.602539062 c 0
 317.252929688 624.602539062 281.23828125 659.015625 281.23828125 701.41015625 c 0
EndSplineSet
EndChar

StartChar: AE
Encoding: 198 198 134
GlifName: A_E_
Width: 1208
GlyphClass: 2
Flags: MW
HStem: 0 82.4707<287.051 395.736> 502.729 82.4707<287.051 405.188 265.349 407.083>
VStem: 43.8691 78.7324<236.839 348.359 236.839 373.35> 580.786 74.6025
LayerCount: 2
Back
Fore
SplineSet
122.6015625 292.599609375 m 0
 122.6015625 181.079101562 224.473632812 82.470703125 349.62890625 82.470703125 c 0
 466.141601562 82.470703125 562.475585938 167.930664062 575.224609375 269.708984375 c 0
 573.577148438 286.350585938 573.404296875 303.0703125 574.650390625 319.684570312 c 0
 559.818359375 419.60546875 464.537109375 502.728515625 349.62890625 502.728515625 c 0
 224.473632812 502.728515625 122.6015625 404.119140625 122.6015625 292.599609375 c 0
654.87890625 10.470703125 m 2
 654.87890625 -4.529296875 580.779296875 -5.529296875 580.779296875 9.470703125 c 0
 580.779296875 40.0546875 580.786132812 70.638671875 580.786132812 101.221679688 c 1
 524.671875 39.236328125 441.842773438 0 349.62890625 0 c 0
 181.069335938 0 43.869140625 131.099609375 43.869140625 292.599609375 c 0
 43.869140625 454.099609375 181.069335938 585.19921875 349.62890625 585.19921875 c 0
 460.748046875 585.19921875 558.23828125 528.225585938 611.779296875 443.12890625 c 1
 638.387695312 491.209960938 678.415039062 533.250976562 730.037109375 563.0546875 c 0
 849.33203125 631.930664062 994.267578125 614.508789062 1087.33691406 529.504882812 c 0
 1108.15234375 510.493164062 1160.33691406 474.65625 1137.33691406 453.65625 c 0
 1074.84179688 393.470703125 1009.15917969 336.862304688 941.336914062 282.65625 c 0
 929.516601562 273.420898438 906.950195312 269.752929688 894.083007812 286.22265625 c 0
 881.215820312 302.692382812 882.125976562 322.69140625 893.336914062 332.65625 c 0
 920.336914062 356.65625 1056.99414062 459.831054688 1033.33691406 471.022460938 c 0
 953.010742188 509.018554688 859.182617188 542.388671875 771.272460938 491.6328125 c 0
 701.131835938 451.137695312 660.083007812 379.754882812 654.958007812 308.24609375 c 0
 655.244140625 303.065429688 655.388671875 297.848632812 655.388671875 292.599609375 c 2
 655.353515625 273.30078125 l 2
 657.951171875 246.295898438 665.948242188 220.005859375 679.725585938 196.142578125 c 0
 735.485351562 99.5625 884.109375 48.951171875 981.401367188 127.6796875 c 2
 1103.94824219 226.84375 l 2
 1115.609375 236.280273438 1133.27539062 239.029296875 1149.33691406 225.65625 c 0
 1165.39941406 212.283203125 1168.58496094 187.952148438 1157.89453125 177.432617188 c 0
 1095.11523438 115.65625 1111.17285156 116.294921875 1022.63671875 61.2578125 c 0
 911.833007812 -7.6220703125 750.46484375 8.6015625 655.04296875 101.100585938 c 1
 654.87890625 10.470703125 l 2
EndSplineSet
EndChar

StartChar: Ccedilla
Encoding: 199 199 135
GlifName: C_cedilla
Width: 684
GlyphClass: 2
Flags: MW
HStem: -142.672 92.5<358.05 374.411 358.05 383.05> -0.171875 74.7959<283.54 339.3 339.3 395.06 283.54 420.05> 505.976 74.7959<283.54 395.06>
VStem: 46.7002 82.4707<230.851 349.749 230.851 370.366> 326.8 88.75<-108.922 -96.4219 -108.922 -83.9219> 391.843 32.457
LayerCount: 2
Back
Fore
SplineSet
609.299804688 580.049804688 m 2xf4
 624.299804688 580.049804688 637.299804688 563.899414062 637.299804688 543 c 0
 637.299804688 522.099609375 624.299804688 505.950195312 609.299804688 505.950195312 c 2
 609.299804688 505.950195312 450.8203125 505.975585938 339.299804688 505.975585938 c 0
 227.780273438 505.975585938 129.170898438 409.197265625 129.170898438 290.299804688 c 0
 129.170898438 171.40234375 227.780273438 74.6240234375 339.299804688 74.6240234375 c 0
 450.8203125 74.6240234375 609.299804688 74.6494140625 609.299804688 74.6494140625 c 2
 624.299804688 74.6494140625 637.299804688 58.5 637.299804688 37.599609375 c 0
 637.299804688 16.7001953125 624.299804688 0.5498046875 609.299804688 0.5498046875 c 2
 609.299804688 0.5498046875 500.799804688 -0.171875 339.299804688 -0.171875 c 1
 374.298828125 -4.755859375 420.549804688 -15.171875 424.299804688 -26.421875 c 0xf4
 430.549804688 -42.671875 420.55078125 -75.990234375 415.549804688 -96.421875 c 1
 415.549804688 -121.421875 395.549804688 -142.671875 370.549804688 -142.671875 c 0
 345.549804688 -142.671875 326.799804688 -121.421875 326.799804688 -96.421875 c 0xf8
 326.799804688 -71.421875 345.549804688 -50.171875 370.549804688 -50.171875 c 0
 378.271484375 -50.171875 385.516601562 -52.19921875 391.842773438 -55.73828125 c 1
 392.162109375 -19.6923828125 367.473632812 -13.6865234375 339.299804688 -0.171875 c 1
 177.799804688 -0.171875 46.7001953125 130.16796875 46.7001953125 290.299804688 c 0
 46.7001953125 450.431640625 177.799804688 580.771484375 339.299804688 580.771484375 c 0
 500.799804688 580.771484375 609.299804688 580.049804688 609.299804688 580.049804688 c 2xf4
EndSplineSet
EndChar

StartChar: Egrave
Encoding: 200 200 136
GlifName: E_grave
Width: 675
GlyphClass: 2
Flags: MW
HStem: 670 92.5<255.301 314.795>
LayerCount: 2
Back
Fore
SplineSet
626.412109375 156.776367188 m 0
 563.6328125 95 579.690429688 95.638671875 491.154296875 40.6015625 c 0
 360.912109375 -40.361328125 160.80859375 -3.7431640625 80.05859375 136.120117188 c 0
 -0.69140625 275.983398438 52.578125 458.119140625 198.5546875 542.3984375 c 0
 317.849609375 611.274414062 462.78515625 593.852539062 555.854492188 508.848632812 c 0
 576.669921875 489.836914062 628.854492188 454 605.854492188 433 c 0
 543.359375 372.814453125 477.676757812 316.206054688 409.854492188 262 c 0
 398.034179688 252.764648438 375.467773438 249.096679688 362.600585938 265.56640625 c 0
 349.733398438 282.036132812 350.643554688 302.03515625 361.854492188 312 c 0
 388.854492188 336 525.51171875 439.174804688 501.854492188 450.366210938 c 0
 421.528320312 488.362304688 327.700195312 521.732421875 239.790039062 470.9765625 c 0
 131.40234375 408.399414062 92.4833984375 272.065429688 148.243164062 175.486328125 c 0
 204.002929688 78.90625 352.626953125 28.294921875 449.918945312 107.0234375 c 2
 572.465820312 206.1875 l 2
 584.126953125 215.624023438 601.79296875 218.373046875 617.854492188 205 c 0
 633.916992188 191.626953125 637.102539062 167.295898438 626.412109375 156.776367188 c 0
245.618164062 716.25 m 0
 233.959960938 741.25 242.80078125 762.5 267.80078125 762.5 c 0
 292.80078125 762.5 322.709960938 741.25 334.368164062 716.25 c 1
 348.896484375 695.818359375 374.431640625 662.5 375.758789062 646.25 c 0
 377.254882812 635 335.861328125 624.583984375 303 620 c 1
 324.872070312 633.514648438 346.759765625 639.520507812 329.631835938 675.56640625 c 1
 324.956054688 672.02734375 318.65625 670 310.934570312 670 c 0
 285.934570312 670 257.275390625 691.25 245.618164062 716.25 c 0
EndSplineSet
EndChar

StartChar: Eacute
Encoding: 201 201 137
GlifName: E_acute
Width: 675
GlyphClass: 2
Flags: MW
HStem: 670 92.5<306.582 366.076>
LayerCount: 2
Back
Fore
SplineSet
626.412109375 156.776367188 m 0
 563.6328125 95 579.690429688 95.638671875 491.154296875 40.6015625 c 0
 360.912109375 -40.361328125 160.80859375 -3.7431640625 80.05859375 136.120117188 c 0
 -0.69140625 275.983398438 52.578125 458.119140625 198.5546875 542.3984375 c 0
 317.849609375 611.274414062 462.78515625 593.852539062 555.854492188 508.848632812 c 0
 576.669921875 489.836914062 628.854492188 454 605.854492188 433 c 0
 543.359375 372.814453125 477.676757812 316.206054688 409.854492188 262 c 0
 398.034179688 252.764648438 375.467773438 249.096679688 362.600585938 265.56640625 c 0
 349.733398438 282.036132812 350.643554688 302.03515625 361.854492188 312 c 0
 388.854492188 336 525.51171875 439.174804688 501.854492188 450.366210938 c 0
 421.528320312 488.362304688 327.700195312 521.732421875 239.790039062 470.9765625 c 0
 131.40234375 408.399414062 92.4833984375 272.065429688 148.243164062 175.486328125 c 0
 204.002929688 78.90625 352.626953125 28.294921875 449.918945312 107.0234375 c 2
 572.465820312 206.1875 l 2
 584.126953125 215.624023438 601.79296875 218.373046875 617.854492188 205 c 0
 633.916992188 191.626953125 637.102539062 167.295898438 626.412109375 156.776367188 c 0
375.758789062 716.25 m 0
 364.1015625 691.25 335.442382812 670 310.442382812 670 c 0
 302.720703125 670 296.420898438 672.02734375 291.745117188 675.56640625 c 1
 274.6171875 639.520507812 296.504882812 633.514648438 318.376953125 620 c 1
 285.515625 624.583984375 244.122070312 635 245.618164062 646.25 c 0
 246.9453125 662.5 272.48046875 695.818359375 287.008789062 716.25 c 1
 298.666992188 741.25 328.576171875 762.5 353.576171875 762.5 c 0
 378.576171875 762.5 387.416992188 741.25 375.758789062 716.25 c 0
EndSplineSet
EndChar

StartChar: Ecircumflex
Encoding: 202 202 138
GlifName: E_circumflex
Width: 675
GlyphClass: 2
Flags: MW
VStem: 238.626 51.0195<629.85 639.143> 402.354 51.0195<629.85 639.143>
LayerCount: 2
Back
Fore
SplineSet
626.412109375 156.776367188 m 0
 563.6328125 95 579.690429688 95.638671875 491.154296875 40.6015625 c 0
 360.912109375 -40.361328125 160.80859375 -3.7431640625 80.05859375 136.120117188 c 0
 -0.69140625 275.983398438 52.578125 458.119140625 198.5546875 542.3984375 c 0
 317.849609375 611.274414062 462.78515625 593.852539062 555.854492188 508.848632812 c 0
 576.669921875 489.836914062 628.854492188 454 605.854492188 433 c 0
 543.359375 372.814453125 477.676757812 316.206054688 409.854492188 262 c 0
 398.034179688 252.764648438 375.467773438 249.096679688 362.600585938 265.56640625 c 0
 349.733398438 282.036132812 350.643554688 302.03515625 361.854492188 312 c 0
 388.854492188 336 525.51171875 439.174804688 501.854492188 450.366210938 c 0
 421.528320312 488.362304688 327.700195312 521.732421875 239.790039062 470.9765625 c 0
 131.40234375 408.399414062 92.4833984375 272.065429688 148.243164062 175.486328125 c 0
 204.002929688 78.90625 352.626953125 28.294921875 449.918945312 107.0234375 c 2
 572.465820312 206.1875 l 2
 584.126953125 215.624023438 601.79296875 218.373046875 617.854492188 205 c 0
 633.916992188 191.626953125 637.102539062 167.295898438 626.412109375 156.776367188 c 0
346 769.31640625 m 0
 360.676757812 769.31640625 374.768554688 761.435546875 380.744140625 748.7734375 c 0
 388.352539062 737.5 451.690429688 642.80078125 451.713867188 642.765625 c 2
 452.836914062 641.087890625 l 1
 453.374023438 639.142578125 l 2
 455.493164062 631.461914062 454.139648438 622.75390625 448.342773438 616.5 c 0
 444.005859375 611.822265625 437.709960938 609.31640625 431.294921875 609.31640625 c 0
 417.529296875 609.31640625 406.690429688 619.009765625 402.354492188 629.849609375 c 2
 346 703 l 1
 289.645507812 629.849609375 l 2
 284.899414062 617.984375 274.075195312 609.31640625 260.705078125 609.31640625 c 0
 254.604492188 609.31640625 248.590820312 611.571289062 244.280273438 615.85546875 c 0
 237.979492188 622.1171875 236.430664062 631.189453125 238.625976562 639.142578125 c 2
 239.163085938 641.087890625 l 1
 240.286132812 642.765625 l 1
 240.286132812 642.765625 304.26953125 738.421875 311.254882812 748.7734375 c 0
 317.642578125 762.306640625 331.721679688 769.31640625 346 769.31640625 c 0
EndSplineSet
EndChar

